<mxfile host="app.diagrams.net" agent="Mozilla/5.0 (Macintosh; Intel Mac OS X 10_15_7) AppleWebKit/537.36 (KHTML, like Gecko) Chrome/134.0.0.0 Safari/537.36" version="26.2.13">
  <diagram name="第 1 页" id="plcRJX-Jz9OLBbEhmIjr">
    <mxGraphModel dx="814" dy="1733" grid="1" gridSize="10" guides="1" tooltips="1" connect="1" arrows="1" fold="1" page="1" pageScale="1" pageWidth="827" pageHeight="1169" math="0" shadow="0">
      <root>
        <mxCell id="0" />
        <mxCell id="1" parent="0" />
        <mxCell id="qu9SdGnDJm_bEYJQGnke-6" style="edgeStyle=orthogonalEdgeStyle;rounded=0;orthogonalLoop=1;jettySize=auto;html=1;" edge="1" parent="1" source="qu9SdGnDJm_bEYJQGnke-1" target="qu9SdGnDJm_bEYJQGnke-7">
          <mxGeometry relative="1" as="geometry">
            <mxPoint x="294" y="165" as="targetPoint" />
          </mxGeometry>
        </mxCell>
        <mxCell id="qu9SdGnDJm_bEYJQGnke-1" value="" style="shape=cylinder3;whiteSpace=wrap;html=1;boundedLbl=1;backgroundOutline=1;size=15;rotation=90;" vertex="1" parent="1">
          <mxGeometry x="137.5" y="102.5" width="50" height="125" as="geometry" />
        </mxCell>
        <mxCell id="qu9SdGnDJm_bEYJQGnke-2" value="Topic" style="text;html=1;align=center;verticalAlign=middle;whiteSpace=wrap;rounded=0;" vertex="1" parent="1">
          <mxGeometry x="128" y="150" width="60" height="30" as="geometry" />
        </mxCell>
        <mxCell id="qu9SdGnDJm_bEYJQGnke-3" value="" style="endArrow=classic;html=1;rounded=0;" edge="1" parent="1">
          <mxGeometry width="50" height="50" relative="1" as="geometry">
            <mxPoint x="162.05" y="80" as="sourcePoint" />
            <mxPoint x="162.05" y="140" as="targetPoint" />
          </mxGeometry>
        </mxCell>
        <mxCell id="qu9SdGnDJm_bEYJQGnke-4" value="SR write:&lt;div&gt;&lt;ul&gt;&lt;li&gt;insert: upsert&lt;/li&gt;&lt;li&gt;update: upsert&lt;/li&gt;&lt;/ul&gt;&lt;/div&gt;" style="text;html=1;align=left;verticalAlign=middle;whiteSpace=wrap;rounded=0;fontStyle=1" vertex="1" parent="1">
          <mxGeometry x="170" y="60" width="150" height="60" as="geometry" />
        </mxCell>
        <mxCell id="qu9SdGnDJm_bEYJQGnke-10" style="edgeStyle=orthogonalEdgeStyle;rounded=0;orthogonalLoop=1;jettySize=auto;html=1;" edge="1" parent="1" source="qu9SdGnDJm_bEYJQGnke-7" target="qu9SdGnDJm_bEYJQGnke-8">
          <mxGeometry relative="1" as="geometry" />
        </mxCell>
        <mxCell id="qu9SdGnDJm_bEYJQGnke-11" style="edgeStyle=orthogonalEdgeStyle;rounded=0;orthogonalLoop=1;jettySize=auto;html=1;entryX=0;entryY=0.5;entryDx=0;entryDy=0;" edge="1" parent="1" source="qu9SdGnDJm_bEYJQGnke-7" target="qu9SdGnDJm_bEYJQGnke-9">
          <mxGeometry relative="1" as="geometry" />
        </mxCell>
        <mxCell id="qu9SdGnDJm_bEYJQGnke-7" value="op_type" style="rhombus;whiteSpace=wrap;html=1;" vertex="1" parent="1">
          <mxGeometry x="280" y="125" width="80" height="80" as="geometry" />
        </mxCell>
        <mxCell id="qu9SdGnDJm_bEYJQGnke-15" style="edgeStyle=orthogonalEdgeStyle;rounded=0;orthogonalLoop=1;jettySize=auto;html=1;" edge="1" parent="1" source="qu9SdGnDJm_bEYJQGnke-8" target="qu9SdGnDJm_bEYJQGnke-12">
          <mxGeometry relative="1" as="geometry" />
        </mxCell>
        <mxCell id="qu9SdGnDJm_bEYJQGnke-8" value="insert record list" style="rounded=1;whiteSpace=wrap;html=1;" vertex="1" parent="1">
          <mxGeometry x="420" y="120" width="120" height="50" as="geometry" />
        </mxCell>
        <mxCell id="qu9SdGnDJm_bEYJQGnke-14" style="edgeStyle=orthogonalEdgeStyle;rounded=0;orthogonalLoop=1;jettySize=auto;html=1;entryX=0;entryY=0.5;entryDx=0;entryDy=0;" edge="1" parent="1" source="qu9SdGnDJm_bEYJQGnke-9" target="qu9SdGnDJm_bEYJQGnke-13">
          <mxGeometry relative="1" as="geometry" />
        </mxCell>
        <mxCell id="qu9SdGnDJm_bEYJQGnke-9" value="update record list" style="rounded=1;whiteSpace=wrap;html=1;" vertex="1" parent="1">
          <mxGeometry x="420" y="205" width="120" height="50" as="geometry" />
        </mxCell>
        <mxCell id="qu9SdGnDJm_bEYJQGnke-12" value="partition update" style="rounded=1;whiteSpace=wrap;html=1;" vertex="1" parent="1">
          <mxGeometry x="600" y="120" width="120" height="50" as="geometry" />
        </mxCell>
        <mxCell id="qu9SdGnDJm_bEYJQGnke-13" value="partition &amp;amp; condition update" style="rounded=1;whiteSpace=wrap;html=1;" vertex="1" parent="1">
          <mxGeometry x="600" y="205" width="120" height="50" as="geometry" />
        </mxCell>
        <mxCell id="qu9SdGnDJm_bEYJQGnke-16" value="" style="shape=cylinder3;whiteSpace=wrap;html=1;boundedLbl=1;backgroundOutline=1;size=15;rotation=0;" vertex="1" parent="1">
          <mxGeometry x="827" y="142" width="70" height="80" as="geometry" />
        </mxCell>
        <mxCell id="qu9SdGnDJm_bEYJQGnke-17" style="edgeStyle=orthogonalEdgeStyle;rounded=0;orthogonalLoop=1;jettySize=auto;html=1;entryX=0;entryY=0;entryDx=0;entryDy=52.5;entryPerimeter=0;" edge="1" parent="1" source="qu9SdGnDJm_bEYJQGnke-12" target="qu9SdGnDJm_bEYJQGnke-16">
          <mxGeometry relative="1" as="geometry" />
        </mxCell>
        <mxCell id="qu9SdGnDJm_bEYJQGnke-18" style="edgeStyle=orthogonalEdgeStyle;rounded=0;orthogonalLoop=1;jettySize=auto;html=1;entryX=0;entryY=0;entryDx=0;entryDy=52.5;entryPerimeter=0;" edge="1" parent="1" source="qu9SdGnDJm_bEYJQGnke-13" target="qu9SdGnDJm_bEYJQGnke-16">
          <mxGeometry relative="1" as="geometry" />
        </mxCell>
        <mxCell id="qu9SdGnDJm_bEYJQGnke-19" value="&lt;font style=&quot;font-size: 11px;&quot;&gt;fields: `REQUEST_ID`, `CAMPAIGN_CREATE_DATE`, `CAMPAIGN_ID`&lt;/font&gt;" style="text;html=1;align=left;verticalAlign=middle;whiteSpace=wrap;rounded=0;" vertex="1" parent="1">
          <mxGeometry x="420" y="72.5" width="220" height="30" as="geometry" />
        </mxCell>
        <mxCell id="qu9SdGnDJm_bEYJQGnke-20" value="&lt;font style=&quot;font-size: 11px;&quot;&gt;fields: `REQUEST_ID`, `CAMPAIGN_CREATE_DATE`, `CAMPAIGN_ID`, &lt;b&gt;response, status, version&lt;/b&gt;&lt;/font&gt;" style="text;html=1;align=left;verticalAlign=middle;whiteSpace=wrap;rounded=0;" vertex="1" parent="1">
          <mxGeometry x="390" y="280" width="220" height="30" as="geometry" />
        </mxCell>
        <mxCell id="qu9SdGnDJm_bEYJQGnke-22" value="" style="shape=image;verticalLabelPosition=bottom;labelBackgroundColor=default;verticalAlign=top;aspect=fixed;imageAspect=0;image=data:image/png,iVBORw0KGgoAAAANSUhEUgAAApQAAACjCAYAAAA0L44AAAAKsmlDQ1BJQ0MgUHJvZmlsZQAASImVlwdUk9kSgO//pzdaAgJSQg1FegsgJYQWQOnVRkgCBEKMgYAidhZXcC2oiIC6YEUUXAsgawEsWFgE7HVBFgFlXSyICsr7gUNw95333nmTM5nvzD93Zu49/82ZAEChcyUSEawEQJo4Qxrm50WPiY2j4wYADIiAAMjAnMtLl7BCQoIAItP27/LxPoAm7B2LiVz//vy/ijJfkM4DAApBOIGfzktD+AyiYzyJNAMA1EnEb5CVIZnguwjTpEiDCPdPcNIUj01wwiSjlSZjIsLYCBsCgCdzudIkAMjWiJ+eyUtC8pAnalmL+UIxwmsRdk9LW8pHuBFhEyRGgvBEfmbCd3mS/pYzQZ6Ty02S89ReJgXvLUyXiLgr/s/j+N+SJpJN12AgSk6W+ochVh05sz9SlwbKWZwwP3iahfzJ+ElOlvlHTjMvnR03zemicM4087negfI8ovlB05wo9JXHCDM4EdMsSPcJn2bp0jB53UQpmzXNXOlMD7LUSLk/WcCR589Ojoie5kxh1Hx5b6nhgTMxbLlfKguT70Ug9vOaqesrP4e09O/2LuTI12YkR/jLz4E7079AzJrJmR4j740v8PaZiYmUx0syvOS1JKIQebxA5Cf3p2eGy9dmIC/nzNoQ+RmmcANCphl4Ax8QhHzoIATYAntgA5yBP2BnCJZnTGyGvVSyQipMSs6gs5AbJ6BzxDzLOXRba1sHACbu79Tr8f7h5L2E1PAzvoQsAOxCEWfRjE/0HoAmGgAqNjM+BnKPSaUAXErkyaSZUz70xBcG+V1QBDSgAXSAATABFkh/jsAVeCIdB4BgEAFiwWLAA8kgDUhBFsgB60AeKADbwC5QAvaDA+AoOAFOgTpwHjSBa+AWaAf3wBPQBXrBazAEPoJRCIJwEAWiQhqQLmQEmUO2EBNyh3ygICgMioXioSRIDMmgHGgDVAAVQiVQOVQJ/QKdg5qgG1AH9Ajqhgagd9AXGAWTYRqsDRvDVjATZsGBcAS8CE6Cl8HZcC68BS6GK+DjcC3cBN+C78Fd8Gt4GAVQJJQaSg9lgWKi2KhgVBwqESVFrUblo4pQFahqVAOqBXUH1YUaRH1GY9FUNB1tgXZF+6Mj0Tz0MvRq9GZ0CfoouhZ9BX0H3Y0eQn/DUDBaGHOMC4aDicEkYbIweZgizGHMWcxVzD1ML+YjFotVwzKwTlh/bCw2BbsSuxm7F1uDbcR2YHuwwzgcTgNnjnPDBeO4uAxcHm4P7jjuEq4T14v7hCfhdfG2eF98HF6MX48vwh/DX8R34vvwowQlghHBhRBM4BNWELYSDhIaCLcJvYRRojKRQXQjRhBTiOuIxcRq4lXiU+J7EomkT3ImhZKEpLWkYtJJ0nVSN+kzWYVsRmaTF5Jl5C3kI+RG8iPyewqFYkzxpMRRMihbKJWUy5TnlE8KVAVLBY4CX2GNQqlCrUKnwhtFgqKRIktxsWK2YpHiacXbioNKBCVjJbYSV2m1UqnSOaUHSsPKVGUb5WDlNOXNyseUbyj3q+BUjFV8VPgquSoHVC6r9FBRVAMqm8qjbqAepF6l9tKwNAaNQ0uhFdBO0NpoQ6oqqvaqUarLVUtVL6h2qaHUjNU4aiK1rWqn1O6rfZmlPYs1SzBr06zqWZ2zRtRnq3uqC9Tz1WvU76l/0aBr+GikamzXqNN4ponWNNMM1czS3Kd5VXNwNm2262ze7PzZp2Y/1oK1zLTCtFZqHdBq1RrW1tH205Zo79G+rD2oo6bjqZOis1Pnos6ALlXXXVeou1P3ku4ruiqdRRfRi+lX6EN6Wnr+ejK9cr02vVF9hn6k/nr9Gv1nBkQDpkGiwU6DZoMhQ13DeYY5hlWGj40IRkyjZKPdRi1GI8YM42jjjcZ1xv0MdQaHkc2oYjw1oZh4mCwzqTC5a4o1ZZqmmu41bTeDzRzMks1KzW6bw+aO5kLzveYdczBznOeI51TMeWBBtmBZZFpUWXRbqlkGWa63rLN8Y2VoFWe13arF6pu1g7XI+qD1ExsVmwCb9TYNNu9szWx5tqW2d+0odr52a+zq7d7am9sL7PfZP3SgOsxz2OjQ7PDV0clR6ljtOOBk6BTvVOb0gEljhjA3M687Y5y9nNc4n3f+7OLokuFyyuUvVwvXVNdjrv1zGXMFcw/O7XHTd+O6lbt1udPd491/du/y0PPgelR4vPA08OR7HvbsY5myUljHWW+8rL2kXme9Rtgu7FXsRm+Ut593vnebj4pPpE+Jz3Nffd8k3yrfIT8Hv5V+jf4Y/0D/7f4PONocHqeSMxTgFLAq4EogOTA8sCTwRZBZkDSoYR48L2DejnlP5xvNF8+vCwbBnOAdwc9CGCHLQn4NxYaGhJaGvgyzCcsJawmnhi8JPxb+McIrYmvEk0iTSFlkc5Ri1MKoyqiRaO/owuiuGKuYVTG3YjVjhbH1cbi4qLjDccMLfBbsWtC70GFh3sL7ixiLli+6sVhzsWjxhSWKS7hLTsdj4qPjj8WPcYO5FdzhBE5CWcIQj83bzXvN9+Tv5A8I3ASFgr5Et8TCxP4kt6QdSQPJHslFyYNCtrBE+DbFP2V/ykhqcOqR1HFRtKgmDZ8Wn3ZOrCJOFV9ZqrN0+dIOibkkT9K1zGXZrmVD0kDp4XQofVF6fQYNGZRaZSayH2Tdme6ZpZmfsqKyTi9XXi5e3rrCbMWmFX3ZvtmHVqJX8lY25+jlrMvpXsVaVb4aWp2wunmNwZrcNb1r/dYeXUdcl7rut/XW6wvXf9gQvaEhVzt3bW7PD34/VOUp5EnzHmx03bj/R/SPwh/bNtlt2rPpWz4//2aBdUFRwdhm3uabP9n8VPzT+JbELW1bHbfu24bdJt52f7vH9qOFyoXZhT075u2o3Unfmb/zw64lu24U2Rft303cLdvdVRxUXL/HcM+2PWMlySX3Sr1Ka8q0yjaVjezl7+3c57mver/2/oL9X34W/vyw3K+8tsK4ougA9kDmgZcHow62HGIeqjysebjg8Ncj4iNdR8OOXql0qqw8pnVsaxVcJasaOL7wePsJ7xP11RbV5TVqNQUnwUnZyVe/xP9y/1TgqebTzNPVZ4zOlJ2lns2vhWpX1A7VJdd11cfWd5wLONfc4Npw9lfLX4+c1ztfekH1wtaLxIu5F8cvZV8abpQ0DjYlNfU0L2l+cjnm8t0roVfargZevX7N99rlFlbLpetu18/fcLlx7ibzZt0tx1u1rQ6tZ39z+O1sm2Nb7W2n2/Xtzu0NHXM7LnZ6dDbd8b5z7S7n7q178+913I+8//DBwgddD/kP+x+JHr19nPl49Mnap5in+c+UnhU913pe8bvp7zVdjl0Xur27W1+Ev3jSw+t5/Uf6H2O9uS8pL4v6dPsq+237zw/4DrS/WvCq97Xk9ehg3p/Kf5a9MXlz5i/Pv1qHYoZ630rfjr/b/F7j/ZEP9h+ah0OGn39M+zg6kv9J49PRz8zPLV+iv/SNZo3hxoq/mn5t+Bb47el42vi4hCvlTo4CKEThxEQA3h0BgBILALUdAOKCqfl6UqCp/wSTBP4TT83gk+IIwCHETIx/YZ4AlCHKaERmEERDEI7wBLCdnVynZ+HJuX1ClI4DUK5lYx/o9ehQ51rwD5ma6b/r+58WyLP+zf4LHI4KWeFP9d0AAAA4ZVhJZk1NACoAAAAIAAGHaQAEAAAAAQAAABoAAAAAAAKgAgAEAAAAAQAAApSgAwAEAAAAAQAAAKMAAAAAjKqmqAAAQABJREFUeAHsvQe8VUWW71808QISVO5Fcs4SJajkqEhUMSsoTnfb3fa0816/6ffmjdPPtuPMdP+n4zhOKygtJgQkiURFEEXJSo4q4ZKzwAX/61uXOuy7qV0n3HMu90Ktz+ecvc+uqlVVv6qz99prVa1V6h9+8vQ3ypNHwCPgEUgDAvMXLkoDF8/CI+AR8AiUXAT69u5RchtfiJZ/qxBlfVGPgEfAIxBD4OzZs7Fzf+IR8Ah4BK5WBK7We6EXKK/WGe/77RFIMwKHjxxNM0fPziPgEfAIlDwEjhw9VvIanYYWe4EyDSB6Fh6Bqx2Bc+fOqy1bt13tMPj+ewQ8Ah4BtXnLNnX+/PmrDgkvUF51Q+477BFIHwLcNA8dPqw+Wb5CnTx5Kn2MPSePgEfAI1BCETh58qRa9ulKuTceuaoEy1Ltu/Xxm3JK6KT1zfYIeAQ8Ah4Bj4BHwCNQHBDwGsriMAq+DR4Bj4BHwCPgEfAIeARKMAJlcmrVSWvz9+760sovu2Yt63V/0SPgEfAIeAQ8Ah4Bj4BHIHkEcvfsSr5QhkqUyRDfAmwRJstXyCpwzf/wCHgEPAIeAY+AR8Aj4BFIHQHkq+IiVJZu0rLdT1PvyqUlTxwr6DokU8Jk+XLlVLcunVW9unVU3Tq11Ve7dqtvvsncctCiru9SZO1X2t14o8Ln1amvv7ZnuIqv1rj+etW0cWO1Nzf3KkbhYtfLlCmjKpQvr87m5V28mMBZqVKl1HXXXqvKlS2rTp8+HSsBv+rVqqlSciVZnjEmjhPb+F1TubKqVLGi+jrJ+R7Vh29961u6D0r6mBfCJdH+wTsVspWLamcU/2pVq6ob27RRe/buTer+l2q5YDsYizatWqnatWqp3Xv26CQXnsGytvOovkfxTEcfaEd4HPgd/Njamuy1ROeSi2/4/xBsY7gPLj6utDCf8G9b2SpVqqjmzZrKpryTqrT8n1q1bKFOnjqlzpw5o1J9bqY6tqnWZ+tX8Jpr/KLSXLgEeYfPE8E8WKZMmbKqgijsThy//K6KikRDGex8us65yXS56SbFxKsoD5gVq1arUzKJM0VFXZ/pxyMPPqCWfvSx2rh5s7lU4PjgffeqWe++qxa8936B65n4Ea8t6a6zsPW1b9tW9enVU61asybdTbus/FLBZUDfvqpv716Km9+BgwfVC+NfUrn79sXtR1sRVu4eOUJlZeVbGD5Y8qGaOn266typk7prxHBVunRpvYtx2/bt+vruPXvj8kw0Q3D8yosgPHb0I6phgwa6ODvLX3zpJRFk4tfn6sOwOwbLzbiC7sMm+Y+9PXOmys3dl3D/vv3YY6ppk8Zq3MsT1Gfr1iXaNWUrF9VOHjCtW7bU41frhhvUlGnT1dKPP9Z18SC/e+RItfazz5J6qUy1nOlgwwb11Xcff1zjxsvs5+vX6zZG4WnKRR2j+s48i+JZ2D7QlvA4tGzeXD0m8yxIM96ZrRa+/74WMqPGIZg/fJ6u/0rw/+BqZ7j+RH/T7+uvu0795re/00UaN2okYzxW/eX559XWbdsj2fBSMXLYUPX8Cy+q0nJ/efj++9Wbkyerj5Z9olJ9bqY6tqnW5/qPucbPlebCJRJMSfjh957QuP3uD390ZSuWaSVWoOQmBuAIlaPuHJlxcIu6PtOhG1u3Vjt2fhEpUL725iS1a/dukz2jx3htSXflRV1futufKX7J4lKvbl01sH8/LfDsEQGsX5/eatRdd6o//edzziZeW7264oUFDe+bk6doYRTBDkIbMX/he2rnl1+K9rK6uuO229SAvv3US6+84uSZamJr0XogTL63aJEWiG8bOFAE2hHqj4XoQ3Z2DbVh4ya1+rO16tpq1dVtAwdIH/qqv736WkL9u6ljRy1M0qcyZRO/ldrKubBuIULO6IceVCdOnNACPFqYy02tRYhAA/Xsr36tTssRcuHpaq+r76nydNVn0mzj8K3S+ftU3507Tx08dEhnNdrXVMchE/8VVztN/5I9IowFqaxYJKCyogFLlYr6uZlqfa6xdY2fKy1VzHhZ5CWxRbNmav3GjamyuSzlEr8LFrJ5vPkMH3KHql+/viojWo3tO3aqF19+WTWSh8TQwYPVn557Tr9hY8Lt3bOH+v2f/6JNOPzmYbhuwwbVoV07bbKbM2++WigPluJEPIi6dr5JlZMHLpqft6ZMjQl6UX1Hu3rP3XepG3Jy9BsJguHkt6eJ+X6Xflg2athAd3FA3z4iOHdSh0Ur8/yL4/S1wYMGqRbNm+lzHuzmpseFqLY0lwnKmyR5m4gpeJ+0k7fvLVu3aj5RXzy4XW2JGiPqcY3trTd3U9zU0bocP35cTZ/1jmiaV8Xte9fOnfUcwdy6f/8BrRnbtGWLxnD4kCGqQ/t2Kk+WAaRjAUTzpk2dfYjCjOtRuDB3o8aIclFp8caBt+ynnvyBxgENpHkgtr2xDWzV5Klva/Mk5w3q1VNVxVRVToSTqDnYWeYcDxleWvbt368FCMpCaOOCGjnGsUnjRvmJ8h01RmSI+j+cO3dO7hH28buxdRt9f2C+srSlTu3a+mUSs+sxmTtR5OrDDJlvQeL/gVYBitc/6kVztnnL1gL9DvKznUeVc7Xz4KGD6pXXXldogf/pH/+Xja16bMxoVUdMz2hup8g9JMqiES5sK4dpNWpOgBH9rnLNNVqz+8Pvf099c/4b9fu//EW58AzXG/zt6nsiPG19gL9rDkaNg2kXGleWETAnDbnGwYVZvLmUyv/BtMnWTpNW3I8uzEzbUxlbU9Z2jLpHusbWNX6uNFv9iVzDp++Afv20RaKkCZQFX0kS6W0KeTCzjZUbXqOGDdWKlavU2zNmqipVrpE3nzJyrKJycrJVqQtvR1WrVtEPCwYeysqqoLJr1FA9brlFtAkb1aLFS7SmJJFmwD+rQr5GJZH8qea5oWaOFnoPHTmilq9YqXKkvUMG367ZufpeqVIldUbWpE2bOUvNmv2uqiYC0mgxcUOr165R8xYs1OfcNOYtWCBmrmX6N1/rNqzXWNQUYbR69Wqx66628BBgLRxlFi1erOvr17t3rGzUSby2RI2Ra2zzb6JD1HHRukx8/Q318aefqsqCB+SqD1MPJthjx46p2XPnygIope4VoZz50rRJE3VLt67ysrJDv4DQ3zAlOydcfTC8o3hG4eIaI1eaCxfTlhtq1lQ52dkxEzXXq1etpoWur2Wu3Tl8mMmqx981BxkjiDn57L88rc1fzUTANnSN4Mv8GfPQQ/o/u0bMrpBrjFz/B9f4nTt/LraujTqMNoXxcVG8PpiymPS5DwVfzKL6R5nhQ4co8Jwr/8tkKKqcq5179+bqFy1X5A1eTvlPo0EeGRjjeG2zlXPNif3yYsG9aP+BA+qI3O84n//ewkucN9vwjGqLq+/BMlE8bX1wzUF4Ro2Dqe9HP/i+evr//G/9f6kumnrINQ4uzCgbNZdS/T/AE7K1Mz8FzWLyzz9eMsc8/JD+DB400LCKHW089+bu1c+mfTInDh8+pM8TWU4TDzMqTWVsY42NOLHdI11jC5uo8XOlJYKLDU9eYt7/4APVUJRtDUQBV5KoSDSUbJzhpjF3/oJ8IUAQMmuAEgVr+qxZWoBKND/5KlXMUlUqV1Jf7smN3fAG9Our36zDfHaKWRnzCuupwkSaax0e6nJo/IQJomk7IZqc06pn9+56QXLt2rUi+47g89IrE/XEqSlCACYttHWsS9u0eYvmef89o/SGo+UiiAdp2/YdorHYcYm539UWU36aCPQIqVmykLdTh/b6sgsX0/eothi+4THqLOufoog+IgSe/vq0NqmuXrs2NkauvqMJgwjzd17C/SEAsLYI7RjaRDZWsJ6Nh2+2YFpb8AxSsnMiWDbq3MYzmDeMC+s6Idt8cY2fCxdT30fLlmlhC1OMoSz5H7CZhgcEZqzXJ72l7hGTNw/o9aL5j5qDlSrmC/j7Zc3lkqUfqW5du+gH7K/+7d81a7MAnhchaP2GfPOMa4y4WUbdC1zjt/azz7XGFw37sWPHtWabOvm/uuZuvD7Ag3kIHrzQTJg4kUuaovrHOjq0z+Pk/86GuCC52sLcjCqXSDuD9YTPmWOrVq9Rh0XIGzlsmMKM3Kljh8j7mSlvK+e6L7H+lg/CP6bQ8H0JvjY8Xbgk0ncbT1cfXHOwXNlykeNw6NBhvayCtbncU7p16aIVGPxnXOTCjDkfNZdcz0bX/yGRdtruS65xoH8IuHln8zft2Ta+2XhyLw6GXZ00ZYoLqliaCzOTyTY/XWNr7pGmvO1ou0fa8gWvRY0feaLSEsHFhic8PxLlUb8+fbSWEmtTSaEiESiry/okiAkUj0qV+pY1i3lYWRMjLnKzP3lKdj8Hdn+znoxdomHiT1Sr1g2RaUaoCpfjd/269bQgiTAJcTNCYKotZjnMspCt72hsvzP2MS38IBiZzQGUDZpaNIMEv1xtMSy+kHVv0CF5m0SoQNvjwsXVd8OTY7wxCo4t6/J4qWANbLu2N2pz/iQxySLguMhoY3l7M8Qft3TpMnrHPw9Uo8lhvWBYoEx2TqCJCVKwD+a6jadJ4xjGxTVGrrSt27YF2V5yjimYtY5hYrMau93RTmO+NnPra7numoPmgcLyDXBASzjsjjv0Sw/LM7j289/8q57jjz7ysLpb1jJjAnKNUZVr8jWKtv8DD9eo8eMFiPWTPEyCL30nT55wzt14fQArtLaYutnsEtx8ENU/rA8IhxWzKur/PjxY77R79x5nW1h6EFUukXZSTxRhnoUOHDioj/yfXf9pTHyQrRwvCIW5L9nwdLUlkb7beOoORPTBNQdd48e8NmvSP12xQpaFVFVsGGIpUvjlwdTP0fU/4v8WNZdcz0bX/yGRdtruS65xoB+8LEx49VVOZUlVczU2cJ/lmo0n11MhF2aGn21+usbWlIs6Rt0jo/Kb61Hjx7PGlWbKRx2j8GRd8gdLlqiBYvpGoxq0nETxKg7Xi0SgxDwJ3SDaog2bNhXoNzdYqLJoEtGqYPKzUdQ6KfNwrCiCUXiX9wkRJvkE6a/jxgd/Jn1uq4/BxlUCDzpujmhgmLj8GVgvCtn63rtHd+1uhYXtlGP3LpoFY84zjSubxIJ/V1sQKKBzlqD1ieLiakt4jOKN7SQRVGaKqZ+H8QgxIQ4U7XFYoAzXd/ToMS0woh0yDyKDExs32ss6W7QZ4G9MaSadY7JzgnW7kGt+2njqQhe+wri4xsiVFuQZxsWkof1k/iz+cGkMnyNH8l15bZT/Hg/JO24bpLMjvPGgxuWPbQ4eveACLE8eiNA50QhD4fnJuj0ExJu7dlWsi3KNUTPRbEG2/wN9jxo/NoCwxpb5Qv0P3HOPat2qpUJT45q7zCsoqg8IF2ihWD6x+MMPdd7wV7h/zC8wGyprCQ0WaB5ZZ+pqCy9OUeUSxTrcNvP7+muv0yZZswQALF1tYb03ZCvH/IiaE6a+qGMUnq62FHaMbH1wzUHqixoH1qMH6WzeWa214yXfJVAmei8PzyXXs9H1fwi2kXNbO233Jdc4PP7omDDbS37beF6SyXLB9txMBLNkx9ZUbavPpNnukSYt3jE8fkGXdK60KL4uPBcv+VD16tFDPJX0kjXUr0WxKFbXi0Sg3PnFF1qD1+OWm/WfkrcrfEii+TDasj49e8pu5p2qVYsWSQHEQnVoYP/+sn5xheaHD6xMka0+Fs7279tHm5o2y+aQLrKZgX4hILv6TuB4/HY1EfcMCD8IVmECKx5Wu8TPJhpFo/3ENA7xcLtOHiZ169TRa5pcbQnzTva3rS0uHq6xRXC+9eabFevujh0/ph/49CVItvrQVCFIsI4S0wU+uNq2aa21Sxs3bdbCAQ81HigN6tfTgmWQZ7Lnrj4ky8vkd42RK82Ut+FCGvixWQtCK8rmLojlBD1uvUVj0aFdW9VVBCj6hUDpmoNrP/9cjxGbMNBS3ywmb26aX371leov5hiE9i+lDtbksuwA7QZClWuMXP8H1/gh0DNfWOZRT+Y6c4A2sY7RRa4+gEkvWZpy5OhRLZh26tBBXlbOaRdkrv4Zkz/1ovF58onvqtcmTdImZ1dbXOUwr9I/G9bwbNO6lbquev4LIeuq+M98vv6iNp/7Dy+09In+BB90rjbZyrnmhIuXC09XuVTHyPC09cE1B13jwFr9b4nwuFeUAWxExOzM/8e8vEaNgwsz11xiHSqWLduz0fV/iNdOg01xOdqemy7MTLuTHVvjJ9dWH3JB1D2S+qLGtrv8L6Puda6xNX1I9Uh7MX13F7lp9pw5+v6aKq+iKlckAiU3/ZcnvqLuGzVKa6LoHDc9CHUxa3+4mXds3z72x9WJ8nVWTNGolc0bh7lujuxkZdc3mzE6yu5e1roskw0emSJbfWh96AP188F1wRwx30Kuvi9ZulQ1btRQuwShj7ytVpXF9UFa+P4i2WV8u8KkeFQw+5loM/G7yUPMCGBoG/iwaWfy229HtgW+LiyD9drObW0hX9QYucaWXZa0uWf3W3VVCMrTxAdgkGz1MbasdeWGiqANIciw9gftN+bvnrfm82TOcCMoDLn6EI9vFC4Ic1HzxZVm6rPhYtIYX6M1M9fQHuKntJdoxDFj8d97463JOtk1B8Hy/Q8W6xsarooQZFl/CzFPGT/mIHUi6M1dMF+fu8aIdcJR9wLX+DGMveVt3dzA2dWPiToeufqAQ26IjQj3jbo7xmqdCOOu/sUypvHE1U6qGSVuRPjfQzz4+PzXCy/o33xVk41X9IE5j+Y/UbKVc80Jw5e5HSYXnkYgC5fht6vvLp6Gl60PrjlohA5TPnjMkZcj5jWEVhxhkueLoahxcGHmmkuu54Pr/xCvnaa9yRzPy9xxaWGT4RXOa3tuujAz5VMdW1t9Ri6w3SOpL2psXePnSjN9KMyRzTl4Q8HzTTL/68LUWZiypQbd+XDhnrih2sOxvMORcrh5Yz4IrpWCBTty+QPH0ziEqitWP7NEQ8DONSYzkzZMUX1HW4dZNJ1/5nhtCbctk7+jxhbBh118mMaPXlgWkWg7mEPgxoMqbFIG57xzebLJ6eLGlET5RuWL6kNU/kSuu8bIlZYIb1seFo9XFkGe+RkWtF1zkI08vABQLki4HAKXE6KJDy83IZ9rjEiP+j9EjR/tYL4w3i4BBd5hiupDOF/wd7z+BfOm6zyVdlI3gj1LWnhZSOY+4irnmhPp6m+QTyb6Hm8OBus355UqVdT3cZZTJIMl5aMwS2QuJft/KEw7TV+LwzEKM9rmmp+pjG2q/XWNnyst1fqC5bDGoXB75he/jAxecPrrU8Ui/GKRC5RBoPy5R8Aj4BHwCHgEPAIeAY+AHQFetLBOsDwiioqLQGnfUh3Van/dI+AR8Ah4BDwCHgGPgEegSBBAS14ShEnAKBM2URcJQr4Sj4BHQHxwZm7zmIfXI+AR8Ah4BK58BHL35G++LA49LZJNOcWho74NHoHigoARJIvTjaC4YOPb4RHwCHgEPAIlE4GMm7xNSMVU4WFRbpDCv4Np5hxfbDgRZiMBmxv0eSAMHzzCH1P2Sjmy6xnfnDZypdnyX85r7ORm0XYmKd58iao7kbkYVdYLk1HI+OseAY+AR8AjUBIRKF2zTsOfZrLhlSpV1r4CU6njsdGPqAF9+2onzZRvLP4a//eP/6e4mdiq/eFF8WRHFPGd8eN1rex8HPPQg+Ifb5/2y4ej6n/44ZM6XBthqMxn9Zq1OvRhFM9MXsehObtkcX+TCCHIENkDNyGEWSMeNr4BDYHZWMGuX5/eencYOLATF3KlmfJFeYzX9//x9z/Uu3ptkVXS1U7XfHHV8fff/552V5VMGNHisnja1S+f5hHwCHgEPAIegWQRKNYayrA/PXY7QcSQTZUMTyIivPrGm7FP2PVMqvxTKYePPyKHJEr4EhwtQjKaO1wn4A7GEI6WB/bvp30yzluwULsSGSVxiiFXmilf1Md4fSdUYDh0YVG3Mao+BEkczNsc0keV8dc9Ah4Bj4BHwCNwJSKQ8TWU31j8MRYHIHFYayKJmPbcNWK4wpHuXyUYOw6YcZZO9AqcpROp407RBu6XWLnEWMUn31tTp2qnvJTv2rmzdj5K7O79+w+oqdOnK5wvQ0TBGT7kDlVfIlwQinH7jp3qxZdf1nGRicYADZBIF0TYOSyRSJ5/cZy+hibyqSd/oB1VEyDe+AEkDu8rr70uzqS3q3/6x/+l85ovzPvQZHGsbpwCN6hXT/v8c6UZR/OGT/gY1Qd2oKH1xBlwufLlVe6+fToCEk6wm0vkn5HDhuo4pE0klvQ+SZvxzmytYb5rxAgdiYJ6bH0n4kuL5vmRgxD+CUMGuXgS1WLo4MHqT889p/11YS7HIezv//wX7XfRNUaaeZJfnyxfIRrufqpv716KCDeePAIeAY+AR8AjcLUiUKQayrKyri+rQvmksMbZ65iHH9KfwYMGXlLWxnNv7l4dNWafROE5LOEKiSCDoBMkQpwZvg/ff79eU7lIgrFnZ2er+8WUTCjDYXfcoeNxExISB86statWrapatHixXps5cugwzbKlaAxxPkqkG2ICK1n2ickdgZD1imPHjBbhqaFasXKVelsijVSpco1oWctIFIY1Ci0iRKiweQsW6LbqCxe+CAyfI23KCqyH3Ls3V8LDrbI6T68uETO042eJTkScZkPVRNB1pZl8tqOrD8ReRyN6SHxkLV+xUuXUqKEIfQiBGc6WCc0HZrShX+/eOi1e39dtWC9lluiy1atX02X4cvFkfHJyspVZt1u1ahVVp3ZtPQ6uMUpkvtjmGVFJiGTQsEEDCfNYP9ZGf+IR8Ah4BDwCHoGrDYEi1VBWqpilqlSupL7ckxsThljDSAzaMO3c+YW+hDCTdyHMly06ho0nobz4GJo0ZYo5jR0R9gxfLvI7N3efmjR5inrg3nu0Joywe2+IdjJIM2a9o8NxEdll+JAhWsi8qWNHnYU6z587r7VpxDYmPi9CB9q9ufMX5AubktOsudu0OV+Def89o0RbulstF4EzTMSrxkxPXPBEKEswJrQYwjdLBNCu3iMmbwRSV5prHIgbHNWHrhKTHRo/YYKOSXvmzGkJp9i9gBmecH0IzFkVsmRNZ3udP17fCeXHZ9SdI3X+8JeNZzhP8LdrjGhLvPlim2fwJ9ZqP4lrjZYSLbInj4BHwCPgEfAIXI0IZFygNNoiwMU8evLU10rsjzGsWddX6UKM2thFOTHCHhtVJrz6qk5i7eBY0QYFycYzmB51PnX6jEtM3uRF84fGDQEKDVk4FOSevXs1ywMH88PQYf42GjQ0VYYQUEqXLiMatSr6UiqbSgiP96YIuMkQm3uainkZzSDrDxFooa/luivNNQ65+/Knia0P9evW04Lk8eMndD3E5GZdZ23RDBoiPjV0SLTFCLYIyLbQlCZ/Ikcbz3C5UqUuKuBdYxQuZ/sdNc9OS7jQD0SzPVBM32iTjWnexsNf8wh4BDwCHgGPwJWKQMYFyuAayhMiTPIJ0l/HjQ/+LHD++KNjCvy2/bDxtOVL9FqvHj20MGnWBq79/HN1VOLjGkJQw3yO6RXC/Hz06DEtII0TLV1Yi9qsSROdj003GzZt0ue2r7Jl7UPRp1dPLYAt/nDpJbxtfI4cyW/rRqnr0xUr1B23DdLZiJ3uSnONg6sPCFCtWrbQWmb6jiCOIIzgDVbQuTjraKP6rgtHfNl4EhMcYr0rGl3M8YZcY2TyuI6uebZ4yYeKedOnVy9Z2/qai41P8wh4BDwCHgGPwBWJwEUVToa6F9RQZqiKlNiypg53MeZTqVJF1bBBfW0qXrl6tfrdH/6oypYrqx66714t0JlKMA1jPu1+y83addG+/fu1ORetG+somzZprFq2aKHXUJaXTSo7v/hCa/B6SH42+KDFxMQd3JnNBhY2kLSSckEhCDM8m1NuGzAgJpyZdrRp3UrhAgli/V7H9u20UMdmIwihrkO7tqprly4KbR4CpStNF4r4cvWBzSi0E/dFnTt10huLqC9RE72t72g4WcPKB97XXXudPjdCfEQzdT9J69Ozp+ompnjwNITJPWqMTJ5UjydF+4vpu51siDJCdKq8fDmPgEfAI+AR8AiURATsarE09iSooUyW7Xkx16IpTCedP59vAh40oH8Bti/97RU1THZiH5Jd1qyjxNT91pSpWvjrccst6szZMzo/Gjg23GBKNuboZZ9+Kpt5aijyIRhCmOpZ/8lu8ZcnviI+I0epEUOH6LTwjuqF7y+S3cm3q0cfeVhrQ3/2q1/rfHxhGkYQCtOokSN1wHiuI1zy+a8XXlCsB1zw3vuiMesuu6SbK+p6463Jujgm66i0MP/gb7CI6gPC46rVa7RAi1B7SrSUc2SHuSHab8zu5lrwaOt7RVkC8eQT39XCJHnZQc6HzVUIt1E8WfNKW3hJ6Ni+fQGNrmuMWHNaWGJzzq03d9O7yifJvPHkEfAIeAQ8Ah6BqwmBUu279bm4oDEDPc+pVUeVK5fczu4MNKPQLG/u2kV2TQ9XTz/zM1WpUiUtqIWFXTRr+IbE9Gvza8mOdfKgLSzsGsJ4HUIDWlkiBeFqCG1lkFxpwXy286g+EJEIXKgv032ztSt4DU3mGVnbGF7/Sp54YxTkk+w5GmqE2Wd+8UstWNvKe8fmNlT8NY+AR8Aj4BEo6QgUaw1lcQT3vAhnaMJshCYOE3gUhTWTUfnScZ3NIqcjIu+40uLVHdUHNJN8igOxAz+K4o1RVLlErrPRa47s5i8uOCTSZp/HI+AR8Ah4BDwC6UDgUltqOrgGeBTXNZSBJiZ0+sWXX6l33p2jNV8JFfCZrjoE0FgfEe1zFHntZBQy/rpHwCPgEfAIlHQEMq6hLOkAmfYTKzsYL9tc98fLgwDCWUmj3D27SlqTfXs9Ah4Bj4BHwCOQEAIZFygLsyknoR74TFcVAkaQ9MLZVTXsvrMeAY+AR8AjUMwRKNEmb1zKBCn8O5hmzgnPR0zra2TDChtJ9PkFn5ImD0fS2SmMi6BE+AbLFpdzNohk2o1NoniGMSkMpl6YDKPpf3sEPAIeAY+AR+DyIpBxgTJTGsrHRj+ifvzUj2LoNW7USP3m589KzOwGsWu2kzatWilidxPVpIH4hOS8VYvmBbLij/L//uQfddi/weIYPBhHu0DGIvjxyIMPKONYPJnqENjuk5jk9DeTlAietvp/+L0n1FNP/sCWFHnNr0GMhMYneAQ8Ah4Bj4BH4LIikHGTd6Y25YR9MxK3GipbJv9YGFRbixCG25lnxR8kO6IvJ93YurXaIXHNN27enFQzcBVE1JZdu/ckVa6oMhPP/G7xpdmiWTOFc3RPHgGPgEfAI+AR8AiUXAQyLlBmSkOZCcibi3Az7I7BOqxiBTGH//D731PfnP9G/f4vf9EC5oC+fbWD7XISAYfwizg+J9ILhENzYoCv27BBR7CpIHnmzJuvGjdqqIiTXU78QhKmEMfohCWc8OprOlrOPeIk/YacHO28HF6T356mY4zfNWJETNs6oG8fHYHmsDhdf/7Fcbo+NJBo+BCsXxj/kvb/qBPk6+8ee1RVq1pV/3x33jy1NzfXJGnn25jxa0koyOPHj6vps97R8cvJENU/cBk5bKhufxOJE75P+j7jndlqy9atMb7JnnyyfIUaIPGv+/bu5QXKZMHz+T0CHgGPgEfAI1DMEChds07Dn2ayTZWrVBVn0vlya1mJHFNewhnm5eVHqwnW60oL5jPnHTu0VzVFEENYay8hBtu2yV8XuXzlSh2lhnw2nuUu1P/ZunXSjrOyPvJbavPWLerwYXH3Ilq9g4cOqhrXX6+dgb87d67atmO7CIC5Kkci4Twk5vE9Ipxt3LhJNRXBqqbEiiZeNoSZnNCD9SRc4JrPPtMRa7hOtBqcnBM5hxCJH3/yqY5qc0B8WZ45c1Y1qFdXLVq8RG3btl3nbSf9WLRkiW7bV7t2KzSU8Fv2yScSJeZLLcjCF4HyzuHDVGVxJk4bjgV8Lx4/dlwLpYQf3CnazR07d1JEC7NjR4/WguG7c+dp5+ylVCkdfYaQj1H9ayRLAzp36qiF14+WLVMIldnX19D1OvHUtdrHwThb79q5s8YKZ+/x6JzE6j5xPNrHZLzyPt0j4BHwCHgEPAIegcwgUKQaykoVs1SVypXUl3tyL4mmYksjbjaawjAhJEGENsw7m6fPiU4TJhvPLVu3iWZtWyzrpClTYucIfXyaNmmiTefLV66KpSEYQuMnTNCxuc+cOa16du+utYxBs/j0WbO0gGgKdhWh7vN169XRY0dF49hQTZs5U9Y1ttRRZQiF+NIrE0UYbaBqZmfrMI1oDonmQghFiLjfCJbBthjeCHdoKMNxszGPI3BSNkjw5frpr09rrSWxvU1UG1f/DI9pM2bquOVZFbIkIkx7fdmFpylnGwfSiH/dr08fraVEy+rJI+AR8Ah4BDwCHoGSiUDGBcrgGkocP588JYKfaALDZEtD+1hJ4jqHyQiRCH8TXn1VJyMQjRXBLEg2nsH0ZM7r162nBcnjx0/oYrv37NWCX+3atdXWbRcF1PUbLl0PeFY0oWdF8EUrR6SWs6JpQ7hDwPzO2Me0UIc5HOEZAY80V/xrGgAvE0s80X5g+mbtYpebblLt2t4oWlmJWy5xt9eLmd7VP8OfuN3QocOH9EYlhFkjkJo8tmPUOCCIfyDa2IFi+maTFBh48gh4BDwCHgGPgEeg5CGQcYEyuIbyhAiTfGxkS/vruPG2rPra44+OiUwzCTaeJi3ZI8JOq5YttNCHNpS1kAh1rIcMki2Gt0k3Zl7zu3eP7lq4ZPMPPNnRTSzwSzcc2YepT6+eOu/iD5fq8oav6zhJ1n3OnP2u3gwzYugQEeb6aoHS1T/jeuicCLupkGscFi/5UPXq0UP16dVLbyJKhb8v4xHwCHgEPAIeAY/A5UXgW5muPqihzHRdmeTPTmTMxSOHDdNrJbvc1EmhsQubm5NpwyFZt1latHxNxOVRbxGq2PEcJjbqsOGnVYsWosXLiSXTlsGDBqnbBgxI2NckwurQwYNlPWi2rOs8pvJEWwofKBP9izXWcXLy1Clt+m4nvkGN4OrI7pM8Ah4Bj4BHwCPgESiGCGRcoAxqKNPZ//OYjsWEngnCPB0mhMdVq9eIs/N26p677lTlxTw9Z/6CWDbKYP61mappJ2bvMC1ZulSv2Rz90IPq9kEDrcLpwvcXabP/o488rB4fM6YAC5e52QiKwQI4a+/a+Sb1/e98W0ztY2XN5km9ppM88foX1bcg/1TP3//gA63t7d2zR6osfDmPgEfAI+AR8Ah4BC4jAqXad+tz6YLGNDYop1YdcZlTPo0cLy8routUkp3VBw8dSmj9YCKtRXOIqTydAjLrT5984rvq5YkT1eo1a2PNwJyOS6E8Wcd5NLAz3GTIRP8Mb9fx7pEjZKNPB/XML36pTlk2WFHWOzZ3IejTPAIeAY+AR8AjcPkQyLhAmV2zlmjzsi5fD6+ymlvLDvL+snMal0qs2Xzml79KeH3l5YQKx/QVZQPWkTjug7xQeTlHydftEfAIeAQ8Ah4BOwL23R72vCldvVLWUKbU+ctQ6Jj4oMRNEY7DV65eXSKESWBCOxtPmDRw8pLi43kbNPzRI+AR8Ah4BDwClx+BjAuUl7+LV1cLdn7xhXZUfqX22mi7ESo9ZQYBL6xnBlfP1SPgEfAIXMkIZFygzNSmnCt5UHzf4iNgBMv4OX2OZBHwGuBkEfP5PQIeAY+ARyDju7wvl8k7vMs5/Ns29FWqVFFtxX0Nu6HZnKLPr7nGlvWqvkZoSlwZhYlrbDBKllItl2w9lyt/uvqX6vxMZO4HsUFY9xrgICL+3CPgEfAIeATiIZBxgfJyaCgfG/2I+vFTP4r1vbH4efzNz5+VyDQNYtdsJ21atVIPS7xuorY0kKg7nLdqkR9y0Zb/ar3Wvm1bde/dd13S/Qfvu1dH4Akn4LC9mYSzjKKoclH5S9r1dPUv1fn5w+89oZ568gclDTbfXo+AR8Aj4BEoQQhkXKC8HBrKSyPNlNVDUrZM/rEEjU+Jauprb06SqDuXhp68sXVrdYPEKI+iqHJR+Uva9cvdP8JtEiPe5ji/pGHp2+sR8Ah4BDwCxRMBv4YywXEZK1pPfDuWK1dOx5wm9CJhFye8+po6evSoOAzvrHDMXb1aNbV//wE1dfp0tWnLFs0dk+fA/v3UOomZ3aFdO1WhfHk1Z9589f7ixWr4kCHaWfoZ2eV84MABHbnmT8/9ly7n4ulqNm0bPuQOVb9+fVVG4oJv37FTvfjyy3on9YC+fbVz83LShtx9+9RbEoqRaDzNJUrPyGFDdd+aNG6s9knajHdmqy1bt+rwjrSzgzh1z5N2hh2XErGnRfP8KD/zF74Xi8l914gRMa3wgL59JIZ4Jx0//PkXx+nmR5UjMZV2Ug7zLto4XipeGP+S9hfK9bFjRufHLpf+QtXFNP+4XHt33jztsN6FddT4LVy0SN16czd1U8eOWmA7Lr5Ep896R61YtUrXkYn+acZJfrHjf4DES+/bu5eOiJRkcZ/dI+AR8Ah4BDwCcREoUg1l2TJlZG2i3cl5qmlRPawq6yHHPPyQ/gyWKDRhstW3N3evWvrxMrVPBLvDhw/pc4QuqKaYwQ+Lj0R2UdetU0ctX7lK1a9XT5vEWzZvrnDMfUwchc+eO1ekGqVNwmbtWlZWBZVdo4bqccstaoOEcFy0eIkqI1g0FTPwLd26qu07d4qrn3WqoZjZa9fK370cj2e4P+Y3fBGeGjVsqFZIG9+eMVNVqXKNor+EbkSwPST9WL5ipcqRNg0ZfLsuWkXWihL6EP+Vi0TQrSaCcb/evXVarJ07dmihmLxBWrdhve4TZatXrxZLWr12jZq3YKH+/fn69XK+QGNqMkSVS7Wdhi9LFggvmZV10f/pIXFEj+BXQdbGQh1FsGdMvvpql4qHddT45QvuQ9TxEyfUxNffUB9/+qmqLE7vDaW7f675aeq0zWuiNxGNiPnVQF4yPHkEPAIeAY+ARyDdCBSphrJSxSxVpXIl9eWe3EuizCSbNqBf35hwEARl584v9E8Eq7wLIRS/tkResdW3Zes20chti7GbNGVK7JwT/DsePXZUC2vTZs5UbcSJOFFzmjbOXx9I2fPnzmsNHesMmzRupDZtztdSUn76rFla8OIcQutHxJpxL0/QIRsRgurUrq3TEH6geDx1psBXvbp1FILOXAkLqYVbScPkCXXt0lkfx0+YoI4fP6HOnDmtenbvrsqL1tXQNBFAEf6yZGNGpw7t9eXmTZvG2kkIxmxpZ+2ACXvb9h2Kz6g7Rxo2+mj6fv89o9RXu3ZrITyYIapcCxHQoWTbaXh/tGyZ1lAG46wjQN/ctavC/L5MBD80xbwc7JeXh9sH5r9wxMM6PH6MFy8Np78+rfbm5qrVa9cWmNfp7h/t42MoPD+5bpvXXP9IXpT6icN7tJRobj15BDwCHgGPgEcgnQhkXKAMrqHEefXJU18rCeFySR+STcP8XEkiq4TJCJEHDh4Uc/SrOhkBZaxoZ4Lkqi+YL3hOPG5idhOBBq3PWREGS4tJ2Wjl0AAZ4sFfunRBeMPrC+vWqa32iXncxP8mnKMRKBPlaeozx+rV8ndZbxdtYpjq162nBUmESWj3nr26/bUvCLFcI6Y3dEg0tGj4MB0jpKKdNbHD90i5oECpC6TxK9V20j7G5s3JBV8EaBpaYOYEZvsvv/pK5eRkqynTpulWJ4p1ePwQIhHWu9x0k96MdPjwYTVp6tuyjnSDE43C9M/JWBKj5vXpM2fUB0uWqIFi+kaDu3vPnnisfLpHwCPgEfAIeAQSRqCgxJNwscQzBnd5nxBhko+Nkk3767jxNjb62uOPjolMMwmu+kyeqCNCS5COHj2mha1xovmzaUNNXuJ1B+mrXbtU506dtFCHUFmt6kVzcaI8g/w4x+wOsQlmw6ZN+tx8IUS0atlCa3ZpJ5pM+sJaUMzd0DkRysJEufai0UMbR37KJUtlyyY+1VJtp2lTn149tSC8+MOlBcZj+cqVOixlrx7d9XitXL1GF0kU6/D4UXiSrMmcOftdveFlxNAhIrD1jStQFrZ/pp+2o2teL17yoerVo4fq06uXeuW112zF/TWPgEfAI+AR8AikhMC3UiqVRKGghjKJYiUqKyZiNHmso2zapLFq2aKFXkNZXja+uAiNFzGsH7j3HjXk9ttiG1gokypPzLhoIHvccrNsGLlZoTXF5IxZe72s30QoHDlsmBZk2SSDRjJoGra1d+OmzXojEestEUga1K8Xy4aGljWlfOB93bXX6fPgOks2/bCxpZXgwvpIyFUu1XbClzawGea2AQNiQjLXIdaUkt6pQwctbJ+QtY9Qqljjc3Po4MF6veax48dUnrwUwB/KVP808xS/Tp46pU3f7cTXqnmBSJGVL+YR8Ah4BDwCHoECCCSuNipQLPEfQQ1l4qUKl/M85mgxr6eb4InZO0ysycvOzt90g+AEYV5lHefp06e1mRxzrDFtm/IbN2+WmNvLFestMZ/D32gI4/E0PMLHr6W+lye+ou4bNUqhMYOOyC50COFxlWjlOorZl88p0VLOEROtIVsbSUPTiQm/56236qz0w2hpK8qygyef+G5MkOra+Sa9i5zNTWaN38L3F4ngdbt69JGH9Y74n/3q18pVbvLbb6fUzmA/wq6jSNu3f7/GAOH30xUrTHa9pjKV8cMBPv3t2T0fF5YQsLYWymT/Yg1P4YTNOexMxyMB2lVPHgGPgEfAI+ARSAcCpdp361PQfpsOrgEeObXqiKsdt6YukL1En6KVQmuFOdlmHg13DqEHoYS8aLYQzA4ePKReeuWVWNYwTzRL116bv04ylunCSV7eOdkcsz12mZ3ulA+ufySRKEBsJmLNplkXGSvkOIFf3rk8deLESUeu9CWl2s5UWxDGOhE+jGG1qlX1pqWjF5YbJFKOPEXdP9MuNOloaZ/5xS/1S4W5Hjye/vqU8jG9g4j4c4+AR8Aj4BFwIZBxgZIQbj7usn0I2PTy//7vP+lNIlVFKEG4ZCPR6jVr7QXkKm5/8NEYRT/556cv0YRG5fXXr04EWGaBBvWIbLSKIi9QRiHjr3sEPAIeAY+ADYGMC5RXk4bSBrDrGtotNuXUqHG9XveIQ2zXQx5eWhgI+FcM8zfm7fB1/9sjkCgCXphMFCmfzyPgEfAIeAQMAhlfQ2kq8sdLEcDcjM/EZIh1lkcysD40mTb4vOlBAMGtOJI3dRfHUfFt8gh4BDwCxRuBjAuUl2NTTvGG3LfuakfACJJecLvaZ4Lvv0fAI+ARuHIQKPZug4wbFgN5+Le5HjxWkc0jbcU1CmsS2figz0PhAoP5i+qcHeBs2kmEcPPDblw+hGe07VpOhE+qeWpcf7129ZNq+ZJULtX5kshcjMLBC5NRyPjrHgGPgEfAI1ASEci4QFkYDeVjox9RP37qRzFcGzdqpH7z82cL+GuMJQZO2rRqpR6+/34dEaSB+GHkvFWL/HB+gWxpP33kwQdUM4nPHUUP3nevjqgSlR68jgBJBBYim+A3Mp5Py2DZdJzjyujeu+9KmFW8vifMKJAxEzwD7GOnqc6XH37vCfXUkz+I8UnkxK9PTAQln8cj4BHwCHgEShoCGRcoC+PYPKyVY0MKVLZM/rG4gU2caCLURNFrb06SKCobo5ILXMdH5O/+8Ec1453ZBa4X1x/x+p5KuzPBM5V2RJUh7GItGe8WzZpFZfHXPQIeAY+AR8AjcFUgcNWtoWzdqqW6UzR++w8c1DGq8cX41tSp2nE3Zt57RCt3Q06ONjET4WXy29MUIRIhTNa47VknsZo7SCjCChIJZ868+eo6CUXYqGEDsohLnz6iWeykiOv8/Ivj9DUit7Roni90zF/4XiyOcrz6dOEkv5o3baqjt/zpuee0j0HajBPr3//5LzrsYlTfEd6HDxmiY13nyaafoHNSVzvvGjHC2feunTvr+qtXq6b2S9zyqdOnq01btuheYTJGw0fdL4x/SfvFJCEez6hxIKQhkWtsfccRu6stScKss3+yfIUaIBrkvr176ShEqfDwZTwCHgGPgEfAI3AlIFCkGsqyEjkmq0JyTs5xpj3m4Yf0Z/CggZdgbuO5N3evIlLLvgMHRLA7pM9z9+3TZQkJyJq5atWqqkWLF+s1liOHDtNpOPs+I5Fmps2cpWZJfOZqIgSNFjO2oaysCiq7Rn5EnA0SxnDR4iU6Gs7qtWvUvAULdTbC+M1bsEDXacqt27Be560pgmr16hfjdcerz5RP5kjfcnKyldEMV61aRdWpXVs7Tnf1vamY6lmruX3HDi0wB0Mnutrp6nvL5s11OErii8+eO1fiIiptRg+uPbyhZk0duhCfnIZcPMkTNQ6uvrva4povpk22eUbEICLPEN6yQf36Jqs/egQ8Ah4Bj4BH4KpDoEg1lJUqZqkqlSupL/fkxiK0DOjXV1WQjTNh2rnzC32J8IV5Z/P0ORFowmTjSZhAPoZMCEDzm+OMWe+o1WvXKqKboJlDGEGYeumViVpAqJmdLRFhTmiTJhFUgmETp8+apQXEID/OiZn91a7darnEjA7Stu07JILNDjXqzpHBywnXV6BQGn7Y+o5mM0/CP457eYIem2zpf+0L5nsXLps252sbbX2/qWNH3VrG4vy581ozy9rMJo0bKVMOt0loKIPxxE2ajWew++FxwKdnFMVrS7z5Yptn1PWRvLj069NHaynRsnryCHgEPAIeAY/A1YhAxgVKoykDXHwonjwlQqGYHw3Vq1tXVZKoHWEyQiQxsYkeA7UQjddY0QYFycYzmB51vmfvXp10QEIdQvXq1hGh5pT6ztjHtECF+RRBF1+RYYEy0XWQmrHjq1HDhgnV52ARN6lUqUuV0La+0/9giMY9EpfaCJSpttNoY9HgGUJwK106f9phhn5z8hSTlPQx3jgE+x6vLfEqj5pnp8+cUR8sWaI3T6FtZd548gh4BDwCHgGPwNWGQMYFyuAu7xMiTPIJ0l/HjQ/+LHD++KNjCvy2/bDxtOULXyMmNmZwY9rduzdX1t/drs6Klu7ZX/1ax+NmlzFufsKbg1xxusuWTRzS3j26x63PaEYrikn41Kn4jrDRMkKVRROM1u+Gmjnhritb3xGE2su6UMzRCHrXy7pQQ4m0k7zhvh89ekwL5OMmTNB4Gn7BY59ePTW+iz9cas0T5hksGx4HV98TaUuQd/jcNc8WL/lQ9erRQ/Xp1Uu98tpr4aL+t0fAI+AR8Ah4BK54BBKXflKEIqihTJFFRophamdtYPdbblaHZAPNvv375XhElRbzaxNxT4RAlezuXTbxsGFkl5i9D8nazd2i5UO7yU5gCGHtumuvU3Xr1NEhFhOpb9v27brswP791fIVK9QXX34pWt5owZJ0qE/PnmrHzp3iLqmF/h38svV946bNqluXLmqICNUIXw3q19OCJeUSaaet76wnZRPU3SNH6IhAZWR3fts2rdWUadPVaVmrCh5sWILQNprNT/qCfNl4mjTb0dX3eG2x8Uv0GuOB6Zu5NHvOHIVW3ZNHwCPgEfAIeASuJgQyLlAGNZTJAnteNj1gaswEITDiZxENoDG7Llm6VDVu1FCNfuhBrVljM0nVqlVj1Z+VtZyYwI3WMJZw4WTh+4u0lvPRRx4Woeyo+ploOiuKOf/JJ76rhSeyde18k/6waQhTqas+8rMLnZ3kbJjp2L6den3SW2rZp5+SZKX9shFp1eo1qlOHDpK/vVXrZ+v7hk2b9LrTnrfeqvnSRzSVUDxcyGPrO+3Mzs7fxISgDSFssS4WgRICz7AGWCfIl40naVHj4Op7Im0x9aZyZHMOTujZUT9pytRUWPgyHgGPgEfAI+ARKLEIlGrfrc/FBY0Z6EZOrTqqXLnkdnZnoBkxljd37aLuHD5cPf3Mz7SG8ogIfmGhFTM35tTw9RiTNJ8kUx/m6muvtUfbycs7J5t/tuvWYco/I+v7vr4guHExkb6zqz7vXJ5sSDqp+QS/kmlnsBxaWsqyqSpspg7mS9e5re+GdybbgiYWQf6ZX/xSu2wydQaP3rF5EA1/7hHwCHgEPAJXCgLFWkOZSZDPi/YNjZaN0AoWJSVTX6eOHcTXZd/I5v3kn5/WGlR2r0eRq+8I2FGUTDuDPNB2sqSgqMjV90y2Zer0GWrO/AWRwiT9L18hS2XXrKV86MWimg2+Ho+AR8Aj4BEoCgQyLlAWtzWUX3z5lXrn3Tlae1cUAKe7jgXvva/X60XxjTLHk7+k9z2qz8XlOhrtI0eOJNQcL1QmBJPP5BHwCHgEPAIlBIGrzuRdQsbFN/MqQADztyePgEfAI+ARiI+At+rEx+hy58i4hrIwm3IuNzi+fo9AJhHA/O3JI+AR8Ah4BOIj4K068TG63Dku9Xqd5hZl0uQdDOFHs8O/bV0hIk7bG9uoaypX1mEX9blsYCkMlS9XTu/wZZcvu7Gjdi0Xpo50lQWjKJxMWvAYrLe8xC5nU1C4vOt3kJc5D/IEK2KFExfdkMlnO5o8UUdXGdIKQ2z2YXNReHxNncnwNmWi2mTSwzzN9eAxmIfrtPGaQs7pIE/ObX03bQjn5bdJCx6D+cx12zWTFjwmwjPIK3gOHxeZeoJ5zDXbkXxR14M8XOc2PIN8XWXDacG2hNNcPIPlzHmwPNfSOZdMHcGjqY9rqVKq9xDTjmC95prtSL5wO8O/bW0J8g+fh8uH64hqh8lnK2/qiGqLiydlo+7zhm/4mOoz1dX2cB38NuvPbWn+WvFAoMRqKB8b/Yj2Ffmb3/5OI9lYfEd+9/Gx6i/PP6+2btseiW6bVq3UyGFD1fMvvKhKi/uah++/X9wGTRY/iZ9ElomXwB+3y003qWriYgg3QStWrU7ICXk8vulOf+Dee1WHdm012+PHT6jP169T74m7m9zcfXK9nXrg3nsuqfLf/r//0A7gRw4bJn4qO+sbKmXH/+1vOnQkrpeaN2umdzZTGHxxu/Tb3/9e1cypGcmTDVGEvGzbpo3stq+oXRR9/Mmn6pPly9X3v/PtS9rBhe3iV/NP//mcNY2L8Hr4gfsLpFPPr//9t7pNtI01prguIuwm8deNM/QChUI/8Bv64H33amGaJPr/uz/8QYft5Dduocjzt1dfUytXr9b+S4k/j7P4//jTn8mifvzUj3T5/3z+vyWee/UYLrhmIiznp+Jj9ONPLs7BME94uPpHOm6lRgwdKrHO8zWf+OUktCVjF2zLjeIL9EGZC3+RtuCr1EVRfR8yeHBKc2lvbq6uLtw/YqG7xn2JOL6Pmp+Gp60fzMV4415UbaF9UXiajWThtuAL90qYS665m8gY2cYWjw2FuYeEsY43B/fLxsKoe13uvv3WtvBsiSJe+p7+3z9R73+wWE2bOVNnw6XaM//8f9Vn69apz9etj5zzhHuNupdH4UJbXOOAgGe7z/PCf9eI4ZH3kNq1aqX0TP3h957QL+e/+8MfoyDy10sYAhkXKDOloUSIC1LZsmX1z7LiPLuo6ZS4w+FPgVAZjtdd1G1x1UfUGTaOvPHWZFW/Xl3tyBzn7sTvNnjOX/ieFiANH9z88EDG5RBCDzc6bjoPSNzyX/7bv0t0nIJ4m8g2ODF38cRHJjw/kCgz6zdsEOEzR9WqdYMIt7nq1Tfe1NV3EAGJGONvTX1bb6IKxvs27Qsed3zxhS6LYNVMyuEP8sTJEzoL7WScZs1+VzVt0lj1lxsyLpLw6+miLAm/+e3HHlVnBDei4HC8pVs3/TJCOd7O69SurVngxB2BsnSZ0tqhPdeza9TQb/wcoXKizTa4zJk/X/xxnpF500k7f9+0ebN2sm/jSVlX/+pLCNP777lHffnVV9pvKS82gwb0F5+fZWNtaSlO7p4tV5AAADrsSURBVNeJs/ny4saLh065cgXHjjqC5Op7qnMJ/rb+xRt3+gPZ5qdOiPiKN+5F2RYXnjTf1pYrZS655m68MYoYWu1nN9V7iA3reHMQDxtBCt7rou5nwfzhc/wc88LL/chQQ3mxAg+UIuY+YZvzrv+fqy2ucYi6zy9ctCjle4jpl+249OOP5b43Ur+Ar9+40ZbFXythCGRcoCxpayhx+j18yB2qvvyxy8hDd/uOnerFl1/WghjuenBMXk7Ms4RtfEsEFqK5uAiBaKhoc/703HNaoMHBN86vf//nv6jHxAE6scwRMtAgUTdxtieIpou40GhSud6kcWO1T+qb8c5scT6+VVeHef2mjh11FJ7jIvRNn/WOaEZX6TTeNJ968gf6hvTC+Je0c3TTxhMSjpF8fK6T+oikw4POEJq7cMSaG0Xzh2Zv8tvTtENy3lhvHzgwJkiZslFHG8/WLVtqnryZ49wcx+qGEFwh/G2CH0JaImEn2WFNWXBEoFwpfQz64QSnDz/6SH/Q+uAzEgHT5Ruzc6dOOqY7Qi7CNPTZ5/lHzlu3bKG1tmgZ0SYhqAWpfdu2Yqq5aM4PpsEHrBnzx8eMVgjQPDxsPMHf1b8e3W/VOPJyYFw/LV+5UuZr51iV/fv01gJl7EKck3h9T2UuUaWtf0Qbco07YwXZ5pJOcHy5xr0o2xIPT1tbgt0qyXPJNXfpo2uMghgEzwtzD7FhHXcOhgTKRNsSzBc+X7d+g+px6y16CRb3oaZNmugs6+Qlu3HDhvo8as5H/f9cuLjGIeo+X61atVizk72HxApaTj5ZvkIN6NdP9e3dS3mB0gJQCbxUUM2XgQ4ENZRlRZ2fFfFwdaVFNQsNE4IBn8GDBl6SzcZzb+5eRZSaffJmeFjCI3KOcAhhbhgrD/ZG8kdesXKVenvGTNEaXKPgQ0zsgf37qUMitCxfsVLliMaJMIXxiDfhnJxsZXCoWjVfo4XQV1OExsPCb6do1jCFLZc669erJ0Jec71mjfWKaO4WLV6s+FP3691bV5cv9A5Rx0+cUBNff0N9LBFpKoumMUgIpDnZ2THzZzCNc8JB1pR0IvoEha5hdwyOYcpyANqJKR8flCa6ze7dezQ7+pII2XgiGCN8sUyBBy1m76IktKJoAK6//mLMclv92YIRZumoGx4370OCDWNUQQRzll4YImIRQmJ7eYng3EbgW7dOvobz5Mn8Xd8unjYeXMuuka1fPowwyTUEdUNECuLlJagNMWlRx3h9N+WSmUuUSaV/pi7bXDJpiRzD416UbYmHp6stJX0uJTI2Jk94jMz18LEw9xAX1uF6EvmdaluwGEDmf9msaRP9Pz4s4YANxZvz4f9fqm2Jus8bhUPUPcT1TDV9sD2LeUkmwljDBg0k1G99k9UfSzACRaqhrFQxS1WpXEl9uSe3wMMO/GxpxJzmIR2mnTu/0JcQAPMkHCJEFJYw2Xhu2bpNhxg0eSdNmWJO5YFbR2u35opz6tlz5+rrqOWhrrJ+EBo/YYJeQ3fmzGnVs3t3MR+WU6clIk2qxDqZo8eOaiEWbV0bMZtihiaeNjRNhFriUGfJjuBOHdrrawhiCCKnvz6tWD/GG2xQeCATa+cQmMJmYm4av372ZzFzCmshTYhFysHXYGp+V5Q1eUTdMYRjdIg2JUI2ntycEObQoHFDQVh9d+489b4IZkVBJh56Zdmc5aJrrqmszdzc/MLE4nW0x6z9xFzNGPCg2rg5X9u6YvUq1a5tfsjJlWtWx84NnwfERJ2VVUFvoGENHRq6SJ4BDa4pHzyyyQxtNsQ6qT69eurzrRciJ8Eb7Ue/3n30OlWdGOfL1XeKpjKX0MZbMYvTP9NU21wKzl+TL+oYHPdUsTa8k22LC8/Itlwhc8lglsgxOEau/KneQyKxTnAO2tqUalv4f/JCz39z/cZN+kV//nvvFajCNs/IEPX/S7UtUfd5Y3WJuoe4nqmmI7ZnMWkfiUKH9aBoKbGmeSrZCGRcoDSaOWBi/d7JUyL4XRBIgtDZ0tCoVLqwdiqY1wg8bK6Y8OqrOqlF8+ZqrAgmQbLxDKaHz6tXq64vbd+xI5yk6tetpwVJNmRAu/fs1Rq22rJObuu2bZfkj7pQqtS3CiSdzTsruORpoQ6h5WxeXgGzKRsroEOiTWWzBUIiQiSCLms2EVh4m50k6wx5s4d4wJr45PpC4AtMWFvYpnUrvTbymsoFd7gT7SVs8uYGX1leBAxxg4O0NiyBwJ02ntxEMaFjxuetfFD//up20TKzMSWoMTV1pvvIzRPC1OYi0svJmiZuqmGh0pi469SuJdrr/poN6ygRLqF9slCfUJisuzx8+Ii+FvxCAEQ7vkXmD3MO/iyJoK4wzynTphUQ/IN8OD9+4rgWTjnHdAZvNL9mLM9JWM6F77+vN+3sP7CfbHHJ1XcKpzKXojCL1z/TWNtcMmmJHIPjXtRtceEZ1ZYrZS4lMjYmT3CMzDXbMdV7SBTWceeg416Xalv4z28UQRaBEi0l91bM4EGKmvNR/79U2xJ1nz9/Lt/Skco9xPQj6lmMMuaDJUvUQDF9Y1UzL8WmnD+WLAQKSjcZaHtwDeUJESb3HzqsjIYrWJ0t7a/jxuu1hqw3DH5mvftusGjkuY1nZGZJYJE0dIOYg8PERMcsazSmmJ0R3Fj/ZsgIHOaGyHWzi9gIZJjObRSlZTkXMFsGyyEU/vTnv5CNIq/rNZgDRZsbJDRU/WTNnGmvSWPdDW+aEya+qtd/slTA7Ao2ecLHI0ePaPchaGMh/vgQux5PnjqplwToC/LFJhAokTWP5EPzufazz9WSpUv1koN6YvIvCuIFBMz3778YfhOXT+CGts8Quze5ybOWM0wIj4z5mTNntWaB8JIsw7hWlioY+vN/Pa/++8Vx5meB4wIR8N6dN0+vizVzJ4onOyldhGDKuDDPEGLZ7BSmj5Z9oud4cF1lOE/wt6vv5EtlLqXav2C7CnMeHPdMtsXPpdRHKThGhosNT5OW7D0k1XFP5F7naktUHxAguW90v/lmdeLESb0EyvTNdYz3/3O1xcY36j5/MhCAIdl7iKnH9SxeLPcqBMs+vXqZ7P5YQhEoUg1lcceItYxoIHvccrPWvrDhBlc5bL5hDV3/vn30DufNW7bonbloD4MmZR7kENqq5SK0kW40jH169tQuWtgEU1jCN9ytcvNZ89lnoo06pvJEqDFaQ3hzPnjQIF3N+g0bY1qqYL0IMGxIYc1oz+63xgSrliJosW7T0PqNG9SatZ8pNgSMkE1Caz//XOPD7sRDohnliNDK8gS0bGwW4m00uJbPxvPWbjeL+5xqatWatWLmLSc7vrtqs/eXFzSypv5kjgiCbMYxAm9H2cjB2k+jucXUxa5QtAGYpnFRFNyQc9uAAVq4/mrXbnXsgvlrmWhMB8i44zajzAzZJS/CIzzeEu0qD77NshbUCIyslf2ff//3os2um0yzY3nRTEbxZAcmC+qj+sdbPqbuRx54UM1dsEDVuiD0x5jLCS8374mLkiG33xa8HHke1fc35f8QpETn0iYx37r6xw71eGSbSzyEXWQbd7QxmWyLn0sFRyQT/020WsneQ+L9x1xz0HWvS6QttjkBSmzA4eWWdYS87IeVC7Y5H0Q3/P/75vw3kbi4xoHnSfg+zz0+uJ4z2XtIsJ1R5/wXMX13l+fu7DlztFu3qLz+evFGIOMCZVBDmU4ozotAhOCSTsJU8PLEV9R9o0aJaXCIZm0EIwRDFsbjkoYPLmjmiJk5SAgvc+bN187NyYNLGtazUI5dqrhzCK/1pA+YvW3EmjyjuQqmc1NgtzmCIIT53fgxM/koa9xOmGscg5ghJGMSRTidIgIShKuZII2f8DctRLImExM7O8uhF8S/Ije+Dz/6WAs53FAh3jTRnlLP+fP56w5tPE/JW2+vNt1j/BDeMYFzczHEUoBkiA0x9426O1aEXfKM37O/+rW+hjNp/NYdOHBQC134oTSEUIzgAZ2QzU6GaM9/i6YcN0lsUoJIR+hmsfoGwdDQ3r25+uaLYOkig0twLMjP4voono0bNdTa8Kj+scuc+cYC/r97dIyuHhch9BViKQW0VHa59xUtrHHDoy9GfEX13WQPtj+RuTRDPBG4+neR76XjbjCzzSVeclxkG/d4WBt+tjkYry1+Lhn0Lh4z8d9M5R5SmHF33evitSVqToAQ95Od8nzhRZT18oZc84w8Uf8/9gDwcmnu1cF7KwJj1D0ESxEaSNyYUZYXtYliycqucb1uUir3ENOXeEc256CMwAMKzw9PJRMBH8s7YtwwQfA2yy7s4IYXHohsmkF4DF6PYBO7zEMNEwRCazoIYZFF2bwxGqfI6eDr4oHAhaCMH0q0sTjGNsRyADbp8EZrE4JNvuARfNkFTx/McoNgevicXe+4ErJRnqwRNBpiW3q8a/hoxI3TRln/iNN7GzGGbAQLzwlb3st1De00GmxeeILac1t7ksGzuPY9mT7YMMjENT+XCqKayf9msveQgi1L7VfUvc7VlkTmRGqtsZdytcVe4uJV7vN4DeEZF9aWXsyV/rO7R47QipdnfvFLff+y1XBaFBE+prcNmeJxrcRqKDMNn9FMhuvhQc0nWUq30Icwyx++KImd2Lyln5K1sMaFkKmft9l4pkeT1xwRPHG5kyjhWBhfoFH0k39+OmFhNsyjhqyJ5Y3/nXfnhJNiv9M9hjHGaTzhAcBmtUQoGTyLa9+T6UMimKQjj59Ll6KYqf9msveQS1uW/JWoe52rLYnMieRbEl3C1ZboUvkp3NvD9/d4ZdKRzuajOaJdTeX5mo76PY/CI+A1lIXH0HMoIgSIIBHc8BSuNuolIJzP/85H4ErA80row5UwH/04XAmjWLz74LWTxXt8aF3GNZTFHwLfwpKCABrEI/LxlBoC3JCDxO/j4gO1JNOV0IeSjL9pux8Hg4Q/ZgoBb+rOFLLp45txgTJTm3LSB4Hn5BG4shEwgqS/IV/Z4+x75xHwCHgELicCGfdDGXRsnu6OBl3lwDv821Yfm0Da3thG+xpkg40+l80WRUE4rWbDhKerG4FU52Ai8zsKWS9MRiHjr3sEPAIeAY9AOhDIuECZKQ3lY6MfUT9+6kcxDHBL8ZufPyshDBvErtlO8OeH+xd8FTaQyDqcEzs7UXrkwQdUM/FjmAo9eN+9l4TfS4VPYcsUpg+Frbs4ly8qXFKdgz/83hPqqSd/kBSEaCe9MJkUZD6zR8Aj4BHwCKSAQMYFykxpKMM+FlkUDpW9EKklBSwSKnJj69bWSDqJFH7tzUniZPui38JEymQiT2H6kIn2FBeexR0Xwm3iR4/QcZ48Ah4Bj4BHwCNQnBDwayhDo4FzVZy68uAm9u50cca8YtUqiZQyIqb9JHIKzl+JIPD8hbB6mLMH9u+nox50aNdOVRBfXjg5X7hokY5a06J5vhAwf+F7sXilhAC7U3w67hfn0/Xq1tFugN6aOlVC8W0LterSn7jPwbl5OamHsHtE88GBLSEChw4erP703HPa/QLtwlksoSvvHD7c2QdC8pG3erVqOnLO1OnT1SaJCgS5+ndp6/Kv1Lj+enXP3XepG8QJOC8AxsGuiS/t4hmV9tm6dZE8xzz0kMTNPqPDUdICQkp+/9vfFme9y9QiiSSDyRgNH215YfxLMbdLqY4t4TijsMZ9jwvPKMxc1z9ZvkIiEvVTfXv30pGbXHl9mkfAI+AR8Ah4BIoSgSLVUJYVp9BZFfKjkYQ76UoL5zW/cT4+5uGH9IeY1GGy8dybu1ctlTBP+yRk4OHDh/Q5AhlEfG4iqRyXyAUTX39DfSxRbnDwCq1eu0aZyCpEM5gn4e3gYygrq4JEFKghYQlv0dFTFi1eop1gk75uw3rFb6KrECrMEM6iWU9XrVpVSV+so4iMHDrMJEceiQeO8HpInK4vX7FS5Ui9QwbfrvPDj0gtRjNctWoVVad2bS1MufpAeC8cy+JgfPbcubIgVal7RRg06/Zc/YtqKA7gz4hPs2kzZ+kwj9VEUB0tSwYMuXhGpbl45u7L1aHDzDpVBHuwMOEvqZelDjnZ2QXil7twoUxUW1xYu/B0zUHqg2xzF99yRJRoKEs1CNPmySPgEfAIeAQ8AsUFgSLVUFaqmKWqVK6kvtyTe0mUGVsa8aEJWRWmnTu/0JeIWpJ3ITxfOKQhGWw80f4FNYCTpkyJsSe6AALU6a9Pq725uSJEro21c9PmfE3d/RKCj1jPy1euipULnkyfNUsLj8FrhMXjM+rOkcHLsXNC0lEXzqMRaBFUjkrIwCgiBjE0fsIEHXv8zJnTEoaxuypfrlxUEX3d1QcTpgtszp87r7WohOlq0riRMuVgYutfVKXE9n7plYlaAKopQhwhxtD8gjPCkSEXT1taFE/ChvWWmOmdO3XSQnHnTh31OG7fudNUpbWVaCiDUWRM/5IdW+qJonh4Rs1Bw882d0kj5m2/Pn20lhItqyePgEfAI+AR8AgUBwQyLlAaTRmdxY/gSYmyIvGcLum7La2exDatVLHiJXmNEElEkAmvvqrTEbLGiuYmSDaewfTwOUIk69SIWd2u7Y3apD1J4nWv37AhnDXydyprJPfs3av5HTiYHzUG8zdxVaOoft16WpA8fjw/5jSxvBHSaosmMkylSiWmhDaaU7RfhhB6SpcuOEWS6V+jhg3Vd8Y+poVyzMO8HBDhJyxQuniG01w8mQ+Y6G8SQXLNZ59pzezbM2aY7ugwYm9OvvgCEUtI8CTclnCxINaJ4hnmYX5HzV1ipX8g5ntip6NtBVdPHgGPgEfAI+ARuNwIFJQWMtCa4C7vEyJM8rGRLe2v48bbsuprjz86JjLNJNh4mrSoI4HpZ85+V298GDF0iDy4+14iUJYtGw3bMVl3mSwRjxizOyZwaO/eXCcLhIhWLVtoAQ3NLKZ61uwhmLIMAKosmmC0cJjHbRTuw9Gjx7SwN060njZtr+GRTP969+iuzkqc7md/9WvNk13UmKPDG6pcPMNp8XiiwXv4gfvVg/feq2OEfypLAoLUp1dPXf/iD5da+xnGJVg23BZikEM2rBPFM8g/eO6au4uXfKh69eih+vTqJetFXwsW8+ceAY+AR8Aj4BG4LAgkpr4qRNOCGspCsCmSogg7bLJgjd2x48dUnphlzRpC0wA2lrBhpFWLFpHCmsnLEW1c3Tp19Ade1117nT43wiN5MO1jIu1+y83qkGz02bd/P5cjaf3GjbpdI2VDD2ZXNgixThAB0qwX7COm325dOut2hhnZ+sC6UAQ91lE2bdJYtZT+sYayvGz6SZUOHT6iSgvPJuLSqbcIQOnYnRyPJ5t20NxmZ9dQn32+roBpG/wHDxqkbhswQMbh2ku6ZcPlkkyBCy6sM4GnqfrkqVPa9N1O/Kna+mHy+aNHwCPgEfAIeASKCoFoVVuaWhDUUKaJpWZzXoQ9zILppGsqV9Y7p3t2v1WzxZQ8bebMAlUsfH+RCJ23q0cfeVivc/yZaN+gs7KWE3NucG0g1yuKyf7JJ74bE0zZmc2HDT27du8ii9YwIrxRNhGTLILMqtVrVMf27fTnlGgp54hpHtovm41I69Shg6S1t2rhbH1YJhuQEMLYVITADGFCZp3qadlYE9U/nTHia8nSpapxo4Zq9EMPamzY8FO1atVYbhfPqLR4PMGQ9ai3dOuqPv7kk1hd5oQxCmtITZoNF9Ki2uLCOh6eps5Uj2zOwSMBu/LRqnvyCHgEPAIeAY/A5USgVPtufS5d0JjGFuXUqqPKlUtdy5XGpiTECmGjmgg9mDPZJJNJurlrF+3K5+lnfqbYvXxENuIgJKN1uvZae0SdvLxzssFnu24WkX4od/DQIS2wBduKBvSMrLf7WoTBZAiNKppazN5hE2+YT6LthB+80vkCEMWT8cMBOIL8L//13/RSgHC70/3bhXUyeCbbLrTJvDg884tfahdRtvLesbkNFX/NI+AR8Ah4BNKNQInVUKYbCMMPDRYCWlHSeVn/iLbLUKeOHRR+JqPoJ//8tNZmopnkY6NUhWE0fPFM7qa+RNuZCTxtPIlAM3LYUL1L/i3R2LKutCjIhXUyeCbb1qnTZ6g58xdEzgH4la+QpbJr1vLRcpIF1+f3CHgEPAIegaQQ8BrKpOBKb2b8Q+KIfP577xUQfoj6U1GcckcRmsziQMWtnfXFK0DTpk3ULnHrxBpGT/kIoKWEfAjGfDz8t0fAI+AR8AikHwEvUKYfU8/RI1AsETCCJY3zwmWxHCLfKI+AR8AjUGIRyPgu70xtyimxiPuGewQuEwKYv80HM7gnj4BHwCPgEfAIpAuBjAuUhXEbhJuXqE+6AMg0H6LXsBuXDzuPo3YYF6YdxMw2O7MLwycTZekvG2iIq50KsemkuLrGMXMz2K/gNXPOMUzha+Z3sEz4PMwj+NuUD15znZu1la48Ps0j4BHwCHgEPAKJIlBsN+UQq/j73/m2tR+E0vvTfz5nTUv0Ik62l370sdq4eXOiRVLKh0BF5B12jrPzeMWq1eqU+BFMJxEiEYfdq9asibHNRP+S5YmPzGF3DI5FyNkkWL8tbphyc/Njp8caG3GCkHTfqLvVdIkF/p64ySlu9I//4x9UGdkV/+vf/k7vYCes5N9//3sSlnOl2rhps3rg3nt0k9kcROjNT1es0K6McBHVvFkzvTubDGwmwrXSq2+8If0dZe1mvDnPznbm2u/+8EdreX/RI+AR8Ah4BDwCmUSg2GoocyUM4qtvvKk/GzZt0hiwc5dr8xcsLDQmN7ZurW4QASDTxC5sHvIz3pmd6aoK8M9E/5LliV/LDRs3qZcnTlSzJPpQk8aNnbvXC3RAfiCIEQkGR+7FkYgzjl/Nfn16X3A0P1SdEbdP78yZG9NEz5k/X4890XRw81O9WjXFZqYgmeg8RNdJdc4TMhSBNh3O44Nt8+ceAY+AR8Aj4BFIBIFiq6EkGggaHQifjOyGXrk6ce0eJmaiz/CQPS4+EKfPeke0g6vUXSNGqEYNG8BWhJs+OsrMYYlO8/yL4/S1rp07a2fRPPj37z+gpk6fruNDY1a+RzRLN+TkaGGBqCqT356mvtq1S40d/Ygi7ng5MW8TFpFQiIRBnPDqa9r5uWYc8YV7IBydl5OINIRffEucVMPbVR+aqOFDhqgO4tg8TwSYoHOcVPtH81LFLKJraoZgHiS0cmjjEqG/e+xRrdUl77vz5inirBuKaifpUXhSNy6FGB8E232CNUL+lq1bDdukj8RbJzJPr+7d1Tfnv1Fo1XnpOXLkSIwX0XqYI8yHx8eM1mMWSwyd4DN0U4pz/pPlKyTiUj/Vt3evYiuAh7rrf3oEPAIeAY/AFYRAkWooy0rUlawK6XVybuOJQIfAdfzECTXx9TfUxxIFprI4AIdWr12j5l3QcOJaZt6CBTpqDWktmzfXWiQiusyeO1cpWfqGeRLTKw7Ez8gDf5qYX9G2VROBc7SYzaGaNWuqwyJE7PziCx1WcfnKVap+vXoS9rC5To/6Is72wP791CEpu1xiTufUqKGGSBQeyFVf0yZN9HrM7Tt2qHUbNsRigFMu1f6lihl1JkKsoczJydYCXSL535OIRIxTtmBSrcrF6DqudrrwxPk4azFrygvBosWL9fj16927QFNsc6lABsuPKfJScU58l/aXlxMczqMpDBPzp26d2vryyZOFX+5gayf+Lome07BBAy3Yhtvgf3sEPAIeAY+ARyCTCBSphrJSxSxVRUx/X+7JjUV2IY51BYn4EqadO78osCYwnG5+23gSnYSH+OmvT2vNFqH4cFgObdq8RR/vv2eUaI52y3q3Vfo3X2g0oS1bt6nz585r4Yf1iU0aN9LlXnplon5g15RY3ydEWEX7SV3Q5+vWS2Sdo6L9bKjDNbZp1VILhTox4quFCLDQ+AkTdPzpM2dOq56i7WIjD8JiVH1oa4nkM+7lCbpf2dKe2hfM96n2D3NrKphFdK3AZfjec9edWqifIObvRIi1rZRjnILkGlsXnobHtBkztY/KLNnx3KlDe3NZH21zKd78xCfoIXGEj6C6acuWAv5EYfrAPffIhqQK6hoRaHGAjtad+VQYsrUTfh99vEzM7320lvKF8S8Vpgpf1iPgEfAIeAQ8AkkhkHGBMrjLm9B7J09JZJdABBNMxZVks0qY8iQ2dnCTSTjd/LbxxDyKpojNMO3a3qgwaU8SU+R60ea5qHr1ajoZLY8hhMvSpctoQfE7Yx/TAhxmU4RghFQjUJ7NO6tjPrPuD23RWRH4TJrhFT7Wr1tPC5LHj5/QScQOp0xtcXgORdVXr24drRE1QvIeKWcESl0w4svVv1Qxi6iqwOU7hw/Tpu4p06arrdu2F0hL9oernfHwpC7ioEOHDh/SO89ZPmBwtM2lePOT8JkIk5TF9P3Rsk8KLHNgrrCUYcu2bfolgblRYI2Cbk1yX7Z2wuG0hNr8YMkSNVBM3zeI1py6PXkEPAIeAY+AR6AoEMi4QBn0Q3lChEk+QfrruPHBn0mf23jCZJKsRZwppmk2KYwYOkQesn0vESjNZghTKVo6hItxojEklnWQHnvkYS0kPvurX+s0djzjDgeBJEhR4f60ICEZiYBjdnnzwG/VsoUWTqkPcy7lWW93n5jaEUpt9VGufbt2WoNHfsrZKJn+UT4VzGz1Bq9hwu/WpYteQrD4ww+DSdqcPVR2gUNvvjVZxzIvkCHiR1Q7XXga10OYp6PINpdc85MNOYMHDdJCKptp/uGHT6rhd9yhNyGZOha8/75eQ2l+czx56qTCbG2oTJn8TTpmXpjrUUdbO03exUs+VL169JBd/730hiZz3R89Ah4Bj4BHwCOQSQQKSkMZqCmoocwAeytLBL2hgwerHDEFHzt+TOWJVgjzaZDY+ILvxlYtWog2J0cnsaYSAZHduE2bNFYtJY01lOVlw8yhw0dUaUlr0qiR6i0P7GR307K+DhrYv7/eYIRgye5l2jVy2DCFi50uN3XSwsnJkyed9eGSpoK0CWEN4aFB/Xqad/Ar2f6lilmwzvB5j1tv0Vq7fLPwYTExd1Ad2rWNZWPnMzjyqVy5cuy668TVTheeLp6ppqF5Zcf2m5OnaC0k2sG2N7bR4+viSdx2NNyY05lnbDJC65iOkJpsZsP03U7aYYRoV1t8mkfAI+AR8Ah4BNKBwEU1STq4WXgENZSW5IQunRXzdzJ0jQgn7Jzu2f1WXQxT8jTxfxikhbLpY6gIZI+K5vGorIP7mWgel8nmHVzd9Ljllpij8AMHD6oyok1asnSpatyoofYXiBaTjTtoqAwhEGD2jqKDss5uzrz5ejNNR9md/fqkt/R6ulWr1yh+88HF0BwxzUOu+nCjhCm+5635/UP7GdaMJtu/VDGL6i/Xa9fKj8ZStUoV7U/S5F23YaPW8p6TdaouCr8EkNfVTszZUXhSlnEzmmJ+F4ZYB8nLCP4xEd6hufMXiNDcUQ2+bZBaKJpJiHkRpg/F/2kzWQeLaRrCVI3WNZg32TkfrIPNOQipvXv20HyDaf7cI+AR8Ah4BDwCmUDgio3ljaYRZ+JsXmEzRDLEOkY0YZihj4nLoSBxnWvBh38wPZXzLNFWsasbodOs5zN8XPUhqOWdy5MNQidN9oSOUf1LFjM0YLh0slFe3jm969mWlug11i8++cR3tQl59Zq1sWLx2unCM8akGJxUqlRRvB5kiTb6cNoEXdMttOxohJ/5xS/1i4q5HjwS29vH9A4i4s89Ah4Bj4BHIFUEMi5QEjOYMG+erjwEcHmE38co+sk/P52SoNRadsj3l93KbHZB8/rML391yZrWqDr99XwEMMUTmSnoE9OGjRcqbaj4ax4Bj4BHwCOQLAIZFyhzatURh9/lk22Xz18CENBCi6wFjaJU1wSimcQ1EusBcWaPiyZPmUEAgRLymsrM4Ou5egQ8Ah6BqwUBL1BeLSPt++kRcCBgBEtHFp/kEfAIeASuKAT8i3R6h7NEbMpJb5c9N4+ARyCMgF+WEkbE//YIeASudARYkueFyvSNcol0G1ReNrG4iN3XODVnd3ZxJNvuZdNOV5rJY470D/dDyRBl2ExjK8dmFzYBESYxnUSdxEa3Ef2lPWwwSoaKmmcU1i486U9UuXBfkxn3cNnwb9xhMY4uCtfH7/A1ypvrwaOLbzDNlAleM+fMNeLV4/4qEbK1jXKmjqhjkDfhN8GFupMta/hEtSNeerAcbsiY88FrwfYYXsGjKy9p4Y8pGy5nrpujrS1RZZK9buoobkc2a+KmzcyDom4f857/aBRF4RyVv6ReJyIc3ij43NKta0bGIx7WvEgjVHpKDwIZl7jS4TYo3NXTIafj4fRmEut61J0j1drPP9e7vMPp/MYx+VJx30KIvzC50sJ5k/2Nf8zut9ysfvrszy/ZfRtM+1rihrdu2VL17d1Lh3gkykwwTjSbYUhDYMG1EaH2iMjiIm6id40YrqPxsJsc35hTp0+XiCp79Q12mDgZNxGANgkub4urpdxcN09uflHt5IZNyMU2rVppX57wmvnubPXZ5+t0M9u2aaN9fhoB9gNxyk17XHQ5eEZh7cKTPkSVC/cvOO64jiosPXjfvWrWu++qBe+9b2Vlq4/d9HXr1FF/e/U1vW6VgozPww/cX4AHPjSnylwc8/BDOhLPf/zpzzr9x0/9SAtJ//n8f6vtO3fqazaeeBgYPmSI5s0udzZdffzJp+LLc3KBeoI/8Pt6x+23qX/52bN6Xa1JGzSgvyIee9QDmHb86T+f0/0CE4Q4iMhU1EcfbMSue16Aour7P//yU+t9JV47/+mn/0/7x+3WpbNuM+0Y/7e/6QhKD9x7b8xHK9c/X79Ou6TiP/PY6Ed08ILf/PZ3urn4On1Q8nPvYiz+8X/8wyXdmDDxVe2N4om/e1yHaP1sXf5/zmQEM/zfhtvSoF49J9bhvtvmkqmjuB6bN2sq9x15Pnz22SX34KJoM+F8+/TqaY0El048M/kcSwdO3MtR/CDgs4FwxarVsaAf6eAPDxfW6arD87mIwLcunmbmLBOOzeNpKBPpyY2tW6sbLsS/Dud3pYXzJvMbrSA3cEJKhgWHcBpxqUc/9KDWqPAQ5m3OEJtW2GGNP8p5CxbqB+UoEdziEQ7T5y98T/1VhM+3Z8xQ8BnQN98XIv43N2zcpF30zJIIQ00aN3bu4DZ1udrZQaL54Lrm0xUrdfSh0mVKqztuu00/TNEU8ZA/fOSIellipE98/Y24AjF1FjVPF9YuPF3lDHYcw+MeTEv1/LU3J0lUqI3W4rb6qoh2uM6FcJ/ssDe044svFBGANso8g/IjFM1WjCNzkjLZNWpogY0j18pdmKdRPDu2b68IV7li1Sr13y+OUzNmvSPO4d3vtWZzV7WQlhuh7+TJU7qNtJP/A/SW+HLl93z5b+BC6tuPPaod0L/y2mt6Hu7as1u7aiKPrdxq+X9Ctvpw0YUrMhu52kk5HPjT9+UrV6qXXnlFInB+I7HeR+n/AxjgiuyV116X+8Nq/b8hChPEg9cQvk+JD//Vrl3qbyI0mjTuKaY/HL/86isdiMGUCx95ybO1xbhYS6TvtrkUrsf/ThyBdOOZqedY4j1y5+QZ+Ls//FHNeGe2O6NPLTEIuO/kaejG5dBQmmYTvrBhw4Zqn2jumLRbtm4VDd0IicvdQGcZ0LePjk5DrO/n5eHmSuNBe6e80e8/cFAEsTraZ+RbU6dqB+Mw443/qSd/oG/waAvxKRmm7uIwnZ3RC957L5wkWsuCaQcPHdQPF7SI//SP/6tAfjQU0GR5cBrn4WgWMBubh1qBAhd+oKUIaipu6thRBMdGOpUHe5Cay8OPh048crXTaITQrBIWEU0mdWLm7CxRgXgYIvzs279fnRHn3olQYXhGjZGLpwtrF56ucsExCo87Jpp7ZN7eIC6TwAen6ZPfnqYFiHhzEAGkRfNmGkZeHMA8TOH6SG/dsoWev9u279BCD4IhDuBxOfTpihVaO4Yj9pUiBGrNeUDoRANQvsKlZusonswBeBNoAC25EQLD7Qz+Zn5AxKKvJS+BBBggrCoCZe6+XN1G0vGJincAPAOYMJY4/0frjpBl5r7RkBuH9OFyCMpEoLLVt29/tMbe1U7K3SgaX/rOeJ4WCwRjffvAgTFh/oS88CFo87lOwqkiPCIQG2IM0BgTz577FWNhFooQ6ICxCpJr2UNUW4y2N5G+2+YS5kv+44zTcfHXO13uK/QHIkTs8CF3qPr166syMse279ipXnz5ZS1Io80nGEU5uTdgaXlLHP2b8cE8zAv0ug0b9Asl9w+CRCxctEjKdNYO/JkL+/eL9lwsHJu2bAnCEHn+2JjRqo4EX0AjPUXGxFirotri+m9SSVQ731+8WGvlO0jwijx5afgmokU2PCOy6stRWLueYxSMaqcLT1ffx4oGnRdoXia55zDOhA+eINYOgoakSqmMA/fM4UOGqHhYp9omX86NwMVXX3e+lFODGkriF2dZHj4wTyYtqKF0lashWpNF8mfmbRvTGLR67Rqt1eOcUIvzFiwQU/IyfjrTWH+F1qVataqaJzf6kUOH6XLm64aaNXW4R2PCNdc56vUiYupeLzdFTMxBsqXt3Zurb8RhR+eUq161mjZn8UAh/J+hsFbBXA8er5F+gMWYhx7SD7I1YvYJE+3Pycm2CiThvK52rvlsrX5Y3Clm9mHyIOGNmZs2b6Ym/vhoWXrw7L88rb77+FgdPSbMP/y7sDxtY+TiGQ/rKDzjlaNftnHHwf0ZGddpM2cpNMWMKRhB8ebgug3rZW4u0f47EQjCZKuPPAh5h+QFiP8KwldjCS+aCBGViBt3e3ngcx6kKJ681CGwMt4sGcDsHY9igppg0U00fAgshBvNFyjzhc0oHtkSfhWzOmE5E6VU64tXDtMeL5oIk9Du3fkCf9WqRizMbyHCWE1pNw9j/uMQD/QxYrGg7H+98GJMYM4vofQaNEzjfMLLFEye4DGqLee/yY9eBbYurG1zKV9gHKKOi5svLA4fS+SxyjKfIZbmjBUBrpG84K9YuUosJDPlfnqNvu8T+haB8ZC8wCwXa0aO3LcJK2soK6uC1oQTwWyDjCNzHH4txYqDA3+ils2eO1fe6pUOlWuEYlM+6ggGzHnWkY68cB91tcX136SOqHY2lSVYrBHcvmOHFor5H4fJhmc4T/C3C2vXMw4eUe104enqe0157mFp2ikWDZbNLJfxrS8KjlYtmgebnNR5quOQCNZJNcRnTgqBItVQVqqYpapUrqS+3JN7SUSYZNKCayhd5abJTQuhkWgknTq018Bs2pz/9nq/mJq+2rVbT36DmCvN5EGTt3rtWh19hzchhEzzFvbRsmVaq4QpNExdxdSNSQPNUZhcaeG8/M4SHHmwDB40UGs8CePIWkWbIBsuz40Ls7sRPsOmUW7G8OJBMGHixHDxpH4fFzMf2ji0p3wgox2qVDH/QbNf1n8uWfqRfnghHP/q3/7dWUdhedrGyMUzHtZReMYrRydt485D5yVZAtCwQQMtVOCDEwEDIcxQ1BxEw8iH9cM2stXHw5TlDaxjZN0sLzAIg8bMbeNjrq1YvUq1a5u/uWClmGnNuYsn4U2vv/46rVmij8zjd+fOU2hxoog8mGJ5iNYWLKAG9err/54R4qLKXnNNZXVGtELJhNxMtb545fgPBDXx50XQhXgphhBwfv3sz/Q9hN+srwyGVMW6wTxAo27zzUpkr0SJe5GtLVJhQljb5hJt4/5x+uvTWovKfdK8EGPVYfwIT6qFP2moWRMOL2j8hAl6feuZM6clbG53/cJFWFJD02fN0sKk+f3w/ffrU7Sz5yWMK9oxNOZYXcy93OS1HeHHixDCEOtJ0eiyhAeytcX13wzOr3A7h91xh14mMe7lCRoPXnLMPDbtsuFp0mxHF9am77ZnXJBXuJ3x8HTdlz5ft17mzVH9woD1oY1YMRBCU6VUxwELBUtSXFin2iZfLj4CGRcogxpK1gidPCU3vQs30mDzkklDQ2mESlc5YjtDhw4f0sIW6nBzgwvWncw5qnzowMF8kzY3yrWffa5v/G9OnmJlxZ+/l9wgt27bHtuwYDK60kye8BFzXlMRAniwYDI2N7Ov5Xo8YlPFz3/zr1q7Qxzzu0X4wBRocEGow9TNJiDaWxi6uUsX/RDhwYjp/t677lIjhg7Ra0jNww/TFm06d/6c4saL8GRMXba6C8OTh7NtjFw842EdhWe8clHjjgbnO2Mf0+PBA9JskiK/oag5aNJtx6j6WNdHWp3atURL1F8XxbQ+Zdq0AsKMjee+ffv1uCKwHT58JJbFxRONGyZflqA0a9pEDZI6b5cXo48/+SSmjYsxCpxQVysRdP//9s4t1KoijOOntF46gpeeEjWrp64oYRfvWUFBWZHUYz301gWihx5KUinqtYcKFbGEfOj2VCSKhV1MCiG6SGWKJSEimJ6k8hyr7zdnf6c5qzWz197n7GVn8f9g39aaNZffzJr1zTffzMYy9cXevWbtvjzk+1hrOjwKOuor067ntxQxv09GBUj86Da93HVs1N9vA2oXt6TxN6UIfRl+qlda2bgHp/T/a8miPW16bUvfQw8+0Hf/qnuD7xnhXRiU7d6zx3+2/czlJVcGIk61JabiURJZaMHgAleit8wth1mZaVOHdx1AKSvKnFmzgyLJYiSEGRzSmGmuBwcOHhwJXhz8uhWegYkLyuWkSdUeayP3kbkxIUzb5vJCmNS9GbetYj55RqC0eh97xMoXK5QpnqSXkhzr1DXF48V85ni265cGhwat/Q6FPgMWg6bUUa5updt6aMe62/zoumoEzq0WrPtQsQ/lKVMmjx3/tc9H5nGsnZxzZZLrc9edMWtLTnKLAVLn3N/Opy2Y8nVZvnRJ34rly4IS4Mf4vHb+vGBN2VniO5k7F8cRfz9xYtgvBSsSflMzLxq22tBpISyQYHqJV2o7HvyG6NyxVDCdhjDNdL0pgVgQPtm9Oxzztypxelj/nD17VhgtMnplUQL+cij1c6zjZjSLDFnng5wxCwPCeSSV3ljiJN6yOsrF2Y41cSJFnu2uS9X7ssWLQme8xv6D+8WXXg6+kzBxLqSVa4OcL5NUeiiPPABOnx4MyjwWP9qM++aWxRUfe2n9hrC4Jj5WJU6sYwzEPv3ss6Akzm5ZsON44u/4IDINy44GX339jfk3Diso7XY2OGqKKIoblotOpNv0ctedOHkiWMGwaiO4XyB+3+JDyf3MCm0GVcxA+KwD08jcr+9t2xbuVxa3jUVyecmVgTRTbYlzKMTPPPtc8P/Gp+7WFTdxOExL81m2EJKBE64PDJ4QLJkM/lzhCwftbcAGB7GcPDkQlLTNZtl8ZePGkRcKbBW5cPqMEIxZJoR85PJS5d4knmI+ibO/vz+0Q85TvlhyPONwxe8p1nG41HOMMMV85nhWLXtsUY/zkfvuyjjPIpdu66Eda49fn70hUG0oN4a0YwvlGKIZdWlsoRx1ooMfdNg4J/9i095YMGO/xty5W6yDxJTP1j8oET7lxkPLV2Uy8mMVJoIisGzJkvAb/59YcucIh6VixrTp4ZKLzZF94LcBm8L/Lky5L154Y+h0511ztU2dLujDGusPJqwgWIkQOjJfBML/Y3PDH7a88T/ZTA/xgKYMxIcVlbDHTelndfZfZjVkK4fheMrj5FwqnyiSPMixQB0yB3wsF1hVfjr8sylNg7b/2A1mlbw9WCxZcQpPVqfm0htLnKk6ysWJv2eKdY4n032p63L1ftwsfZOszVxmfow8eLweA5TWW1kbxBqAdRehnDPsYYk/EwtrUEbK2iDXMLW03/waWXGN4Dv7xGOPBQsZ17IQxBWf+dYmyhabhQtbb5QtFycLTbCEfPnV1+a7dr6tNL4uTHsfbs0mxHHF37GaIVi6fVsiLD7t8vO5WT5ZfMd2WZPftZXUpjjT1t40xcddVeJ0/Hu36eWuw1+Ze+6uO+8IW5otbvUh3uY9bR6w+M8yIFyyaKEfDp9YIum38Mn7Zt+3Vr/DA7NRgQo/LrFFTK6scYq+IpeXudbXIGWsc22XKWPuaeKmr2KwSFtE8K/DAkmZ6QPoY3G9YYYC/9abrY6Ydt5vC2oW2II98ljmOhQia73hzsTgBT9KXFkmTz7PtqO6Isyu4H7QTkgTLtyn9HtY/XJ5qXJvlqX5/Q/7w0CdATtKG/6/rnjleJbF5cdyrD1M7jnmYeLPHM9uyx7Hn/pOO0OYIdlrAyrqvtt6yLEOieitpwR6rlDGFsrxKklsoUzFycPGRz5lYT7c9ZHtCXdbH9O+PFjWPf/CSLDcOR7y99kqXOIuTp+SJh1ELFdZB8c1WB2KkjtH2FW2Vxr7cyFhGswUzPWbNgX/IPYYXGrWLB7edIZvvP1OCMebW/tGDrS+sOE7Kynp5Mkr/nY7PtgZvrtFCusUU2ou+0w5Zno6FSfhUvnE2nLp3LlBaWCPPqxJTKVjrWRqatfHnwTFnMU6dH74vLqk0htLnMRdVke5OE+dOhT2cyxjneOJNSlVR7l6x2LHKma2jCKvLDggnVjK2iDthH0f/QFOPfNiwdn+Az+WtkEUUBaXxQMdLO5MVZIHLERxW7jbFCHa2lsJ1w7yiPU0FyeK9tIrF4WFNYSn3pkCZwo2Jz5wY2UwigZtibLG9zhTbkUh3o2bXw3b87iPWNH/sOy6KukV0+J37jossns+/yIoTCws4j7Yav2CKxfxFDYPVAalKGi0JT9HWHymH3/0kbArxQZboIP4+fCj9YYbCcJK91jYZeL97TuSecmVgansVH82xQavtDlXghmk40+H4OqwZevr1p5WBbcXjtGWEBQIfBnn2wIvXgzitttUuQv1w70Q1zXn8MdluzMW66BkIwyQcYuoolBOtcWNtG/ixdqH5PLS7t5M5ZOZGfo7rwfS8zrP9QUhQ4m3HGu/JPUcS+Uzx7N92W3K24wE3QiDQlbtM0ii/mnf9MmpNpHLS451N3nTNZ0RmJD/5T0eFsrOMPUFq8Y9K1f2rV67Llgo6QzLOvFivA/bQ/4Ce9izKbF3Ih4md87D5D6ZOsMCyQ1ZjDt1HdNQTNczvYZfVh1CB08HiAWyKCw04Fw7S1PxurrjTLFux7Psuir1jgWCKam4jWFZG+82WORax28so0wz4jyPwoygiLJ9T5ngY+hWjLLzVY/R7mk3sT9b1Ws93Hjkk0VL/TbL0cl96+mP92eneWnXdhlQs7iIuvU9LYt5ZtBKGyjWAwMRZn/gggJZVYiL+4WBL/dM1TpiQELYsr48l5eye7NKXin30JmhMJDw8CmeVcpQhbWn08lnkWd8bSdlr1KGOO6y793WQxnrsvg59ucfv+vvF1NwOjzec4WSvzVqwv8E+8P8qTVrK41+vR6YfsbaVqa85c759fpsHoFu670XbfD/QpdtY9h3LiVPPr36PxaqVNheHp8o+ewVg27bbq/yUxbvRKqjFM+JVIayOuDYRCmDFMpUDXZ+vOcKJU7YZ/4+Z1yVyrNhoWSzY/wBWVhT1RrYeXXoChFIE2hyG8RSHTvlFyn49GjxeN2/J0o+6+byf0qvCXWkMtTToqRMji/nniuUnl39AbuT0KcIiIAIiIAIiMDZJnD0yPDi2bOdj6ak3/NFOQ5KFeck9CkCIiACIiACIiACzSIweklys8qm0oiACIiACIiACIiACNRAQAplDZCVhAiIgAiIgAiIgAg0mYAUyibXrsomAiIgAiIgAiIgAjUQkEJZA2QlIQIiIAIiIAIiIAJNJiCFssm1q7KJgAiIgAiIgAiIQA0EpFDWAFlJiIAIiIAIiIAIiECTCUihbHLtqmwiIAIiIAIiIAIiUAMBKZQ1QFYSIiACIiACIiACItBkAlIom1y7KpsIiIAIiIAIiIAI1EBACmUNkJWECIiACIiACIiACDSZgBTKJteuyiYCIiACIiACIiACNRCQQlkDZCUhAiIgAiIgAiIgAk0mIIWyybWrsomACIiACIiACIhADQSkUNYAWUmIgAiIgAiIgAiIQJMJSKFscu2qbCIgAiIgAiIgAiJQAwEplDVAVhIiIAIiIAIiIAIi0GQCUiibXLsqmwiIgAiIgAiIgAjUQEAKZQ2QlYQIiIAIiIAIiIAINJmAFMom167KJgIiIAIiIAIiIAI1EPgHyJ8qYSVlrcQAAAAASUVORK5CYII=;" vertex="1" parent="1">
          <mxGeometry x="600" y="290" width="457.55" height="113" as="geometry" />
        </mxCell>
        <mxCell id="qu9SdGnDJm_bEYJQGnke-23" value="" style="shape=image;verticalLabelPosition=bottom;labelBackgroundColor=default;verticalAlign=top;aspect=fixed;imageAspect=0;image=data:image/png,iVBORw0KGgoAAAANSUhEUgAAAosAAACZCAYAAABHa3CuAAAKsmlDQ1BJQ0MgUHJvZmlsZQAASImVlwdUk9kSgO//pzdaAgJSQg1FegsgJYQWQOnVRkgCBEKMgYAidhZXcC2oiIC6YEUUXAsgawEsWFgE7HVBFgFlXSyICsr7gUNw95333nmTM5nvzD93Zu49/82ZAEChcyUSEawEQJo4Qxrm50WPiY2j4wYADIiAAMjAnMtLl7BCQoIAItP27/LxPoAm7B2LiVz//vy/ijJfkM4DAApBOIGfzktD+AyiYzyJNAMA1EnEb5CVIZnguwjTpEiDCPdPcNIUj01wwiSjlSZjIsLYCBsCgCdzudIkAMjWiJ+eyUtC8pAnalmL+UIxwmsRdk9LW8pHuBFhEyRGgvBEfmbCd3mS/pYzQZ6Ty02S89ReJgXvLUyXiLgr/s/j+N+SJpJN12AgSk6W+ochVh05sz9SlwbKWZwwP3iahfzJ+ElOlvlHTjMvnR03zemicM4087negfI8ovlB05wo9JXHCDM4EdMsSPcJn2bp0jB53UQpmzXNXOlMD7LUSLk/WcCR589Ojoie5kxh1Hx5b6nhgTMxbLlfKguT70Ug9vOaqesrP4e09O/2LuTI12YkR/jLz4E7079AzJrJmR4j740v8PaZiYmUx0syvOS1JKIQebxA5Cf3p2eGy9dmIC/nzNoQ+RmmcANCphl4Ax8QhHzoIATYAntgA5yBP2BnCJZnTGyGvVSyQipMSs6gs5AbJ6BzxDzLOXRba1sHACbu79Tr8f7h5L2E1PAzvoQsAOxCEWfRjE/0HoAmGgAqNjM+BnKPSaUAXErkyaSZUz70xBcG+V1QBDSgAXSAATABFkh/jsAVeCIdB4BgEAFiwWLAA8kgDUhBFsgB60AeKADbwC5QAvaDA+AoOAFOgTpwHjSBa+AWaAf3wBPQBXrBazAEPoJRCIJwEAWiQhqQLmQEmUO2EBNyh3ygICgMioXioSRIDMmgHGgDVAAVQiVQOVQJ/QKdg5qgG1AH9Ajqhgagd9AXGAWTYRqsDRvDVjATZsGBcAS8CE6Cl8HZcC68BS6GK+DjcC3cBN+C78Fd8Gt4GAVQJJQaSg9lgWKi2KhgVBwqESVFrUblo4pQFahqVAOqBXUH1YUaRH1GY9FUNB1tgXZF+6Mj0Tz0MvRq9GZ0CfoouhZ9BX0H3Y0eQn/DUDBaGHOMC4aDicEkYbIweZgizGHMWcxVzD1ML+YjFotVwzKwTlh/bCw2BbsSuxm7F1uDbcR2YHuwwzgcTgNnjnPDBeO4uAxcHm4P7jjuEq4T14v7hCfhdfG2eF98HF6MX48vwh/DX8R34vvwowQlghHBhRBM4BNWELYSDhIaCLcJvYRRojKRQXQjRhBTiOuIxcRq4lXiU+J7EomkT3ImhZKEpLWkYtJJ0nVSN+kzWYVsRmaTF5Jl5C3kI+RG8iPyewqFYkzxpMRRMihbKJWUy5TnlE8KVAVLBY4CX2GNQqlCrUKnwhtFgqKRIktxsWK2YpHiacXbioNKBCVjJbYSV2m1UqnSOaUHSsPKVGUb5WDlNOXNyseUbyj3q+BUjFV8VPgquSoHVC6r9FBRVAMqm8qjbqAepF6l9tKwNAaNQ0uhFdBO0NpoQ6oqqvaqUarLVUtVL6h2qaHUjNU4aiK1rWqn1O6rfZmlPYs1SzBr06zqWZ2zRtRnq3uqC9Tz1WvU76l/0aBr+GikamzXqNN4ponWNNMM1czS3Kd5VXNwNm2262ze7PzZp2Y/1oK1zLTCtFZqHdBq1RrW1tH205Zo79G+rD2oo6bjqZOis1Pnos6ALlXXXVeou1P3ku4ruiqdRRfRi+lX6EN6Wnr+ejK9cr02vVF9hn6k/nr9Gv1nBkQDpkGiwU6DZoMhQ13DeYY5hlWGj40IRkyjZKPdRi1GI8YM42jjjcZ1xv0MdQaHkc2oYjw1oZh4mCwzqTC5a4o1ZZqmmu41bTeDzRzMks1KzW6bw+aO5kLzveYdczBznOeI51TMeWBBtmBZZFpUWXRbqlkGWa63rLN8Y2VoFWe13arF6pu1g7XI+qD1ExsVmwCb9TYNNu9szWx5tqW2d+0odr52a+zq7d7am9sL7PfZP3SgOsxz2OjQ7PDV0clR6ljtOOBk6BTvVOb0gEljhjA3M687Y5y9nNc4n3f+7OLokuFyyuUvVwvXVNdjrv1zGXMFcw/O7XHTd+O6lbt1udPd491/du/y0PPgelR4vPA08OR7HvbsY5myUljHWW+8rL2kXme9Rtgu7FXsRm+Ut593vnebj4pPpE+Jz3Nffd8k3yrfIT8Hv5V+jf4Y/0D/7f4PONocHqeSMxTgFLAq4EogOTA8sCTwRZBZkDSoYR48L2DejnlP5xvNF8+vCwbBnOAdwc9CGCHLQn4NxYaGhJaGvgyzCcsJawmnhi8JPxb+McIrYmvEk0iTSFlkc5Ri1MKoyqiRaO/owuiuGKuYVTG3YjVjhbH1cbi4qLjDccMLfBbsWtC70GFh3sL7ixiLli+6sVhzsWjxhSWKS7hLTsdj4qPjj8WPcYO5FdzhBE5CWcIQj83bzXvN9+Tv5A8I3ASFgr5Et8TCxP4kt6QdSQPJHslFyYNCtrBE+DbFP2V/ykhqcOqR1HFRtKgmDZ8Wn3ZOrCJOFV9ZqrN0+dIOibkkT9K1zGXZrmVD0kDp4XQofVF6fQYNGZRaZSayH2Tdme6ZpZmfsqKyTi9XXi5e3rrCbMWmFX3ZvtmHVqJX8lY25+jlrMvpXsVaVb4aWp2wunmNwZrcNb1r/dYeXUdcl7rut/XW6wvXf9gQvaEhVzt3bW7PD34/VOUp5EnzHmx03bj/R/SPwh/bNtlt2rPpWz4//2aBdUFRwdhm3uabP9n8VPzT+JbELW1bHbfu24bdJt52f7vH9qOFyoXZhT075u2o3Unfmb/zw64lu24U2Rft303cLdvdVRxUXL/HcM+2PWMlySX3Sr1Ka8q0yjaVjezl7+3c57mver/2/oL9X34W/vyw3K+8tsK4ougA9kDmgZcHow62HGIeqjysebjg8Ncj4iNdR8OOXql0qqw8pnVsaxVcJasaOL7wePsJ7xP11RbV5TVqNQUnwUnZyVe/xP9y/1TgqebTzNPVZ4zOlJ2lns2vhWpX1A7VJdd11cfWd5wLONfc4Npw9lfLX4+c1ztfekH1wtaLxIu5F8cvZV8abpQ0DjYlNfU0L2l+cjnm8t0roVfargZevX7N99rlFlbLpetu18/fcLlx7ibzZt0tx1u1rQ6tZ39z+O1sm2Nb7W2n2/Xtzu0NHXM7LnZ6dDbd8b5z7S7n7q178+913I+8//DBwgddD/kP+x+JHr19nPl49Mnap5in+c+UnhU913pe8bvp7zVdjl0Xur27W1+Ev3jSw+t5/Uf6H2O9uS8pL4v6dPsq+237zw/4DrS/WvCq97Xk9ehg3p/Kf5a9MXlz5i/Pv1qHYoZ630rfjr/b/F7j/ZEP9h+ah0OGn39M+zg6kv9J49PRz8zPLV+iv/SNZo3hxoq/mn5t+Bb47el42vi4hCvlTo4CKEThxEQA3h0BgBILALUdAOKCqfl6UqCp/wSTBP4TT83gk+IIwCHETIx/YZ4AlCHKaERmEERDEI7wBLCdnVynZ+HJuX1ClI4DUK5lYx/o9ehQ51rwD5ma6b/r+58WyLP+zf4LHI4KWeFP9d0AAAA4ZVhJZk1NACoAAAAIAAGHaQAEAAAAAQAAABoAAAAAAAKgAgAEAAAAAQAAAougAwAEAAAAAQAAAJkAAAAAtuisJwAAQABJREFUeAHtnQecFUXyxwsQiYIKJoIEFRBQQcWESlDPRFhzOBHEQDIjAnJ6ngcKiOn4mxGRaM6HyHHqEQQDGBCUJKCAZCWJguHPt9Z+zg4z/cLugwWq9vN25k13V3f/ut9MTXV1VZEGxzX7XYwMAUPAEDAEDAFDwBAwBAyBCASKRlyzS4aAIWAIGAKGgCFgCBgChoAiYMKiTQRDwBAwBAwBQ8AQMAQMgVgETFiMhcYSDAFDwBAwBAwBQ8AQMARMWLQ5YAgYAoaAIWAIGAKGgCEQi4AJi7HQWIIhYAgYAoaAIWAIGAKGgAmLNgcMAUPAEDAEDAFDwBAwBGIRMGExFhpLMAQMAUPAEDAEDAFDwBAwYdHmgCFgCBgChoAhYAgYAoZALAImLMZCYwmGgCFgCBgChoAhYAgYAiYs2hwwBAwBQ8AQMAQMAUPAEIhFwITFWGgswRAwBAwBQ8AQMAQMAUPAhEWbA4aAIWAIGAKGgCFgCBgCsQiYsBgLjSUYAoaAIWAIGAKGgCFgCJiwaHPAEDAEDAFDwBAwBAwBQyAWARMWY6GxBEPAEDAEDAFDwBAwBAwBExZtDhgChoAhYAgYAoaAIWAIxCJQbP8qNe6MTS2ECSVLlpRTmp8iBx90sBxU8yBZsHCB/P7771lr6bauL9WOHH/c8bLp502y4ccNqRbZZfJVOqCS1K9fXxYtWrTL9NnX0eLFi0vp0qVl06ZNvmxbpRUpUkT23XdfKVGihGzcuDGRDr999tlHSE+XZ4KJ5yRq/MqXLy977LGH/Pjjj56SWyfF9aFYsWKyT8V9RIqIbN68OU/BVPsH70woqlxcO+P4V6hQQY495lj55ttv0rr/ZVou2A7G4phGx0iN6jXkm2++0SQfnsGyUedxfY/jWRB9oB3hceB78BPV1nSvpTqXfHzDv4dgG8N98PHxpYX5hL9Hld1rr72kwRENZN36dbJbsd3kqCOPkvUb1stPP/0kmT43Mx3bTOuL6lfwWrLxA6fwPdKHS5B3+DwVzMNltuX33bZlZQVRV7GixaR5s+ayd4W9ZY+ye8ik9yfJhg3ZE5i2dX0Oo5tvuln+M+4/Mn36dHcpz/H6666XUc+OktffeD3P9Wx8SdaWgq4zv/Udf/zx0rpVa5k8ZXJBN2278ssEl/POPU9yWucIN71ly5ZJv3v7yZIlS5L249hjj5VrrrpGypQpo3nHjBkjQ4YOkaZNmspVV14lu+22m/z222/y5VdfyjPPPKNCS1KmKWYIjl+pkqWk+63dpU6dOlp65cqV0v/e/inVF9eHZk2bSZvL2qgA/euvv8oXX3whQ4cPlcWLF6fcv1639ZLD6h8m9953r0ydOjXFnolElYtrJw+Po486Wlq3bi3Vq1WXIc8MkXH/Had1HXH4EXLN1dfIRx99lNYLY6blXAfr1K4jd9x+h4Abgvu0adPk6KOPjsXTlYs7xvXdN0b57QNtCY9Dw4YNpXu37nmaOXLUSL2/+sYhT4HQl4L6rQR/D752hqpP+Sv93n///eWmrjdpmXp168ntf7td/nHXP/T3HceoUaNG0r5de+lzTx8pvltxufGGG+WJJ5+Qd959RzJ9bmY6tpnW5xvbZOMXN3d9uMRhyfU+vftI0aJFpUfPHr5s2y1thxMW0aR179lduJl0uKZD1oHb1vW5DvHmPnvO7Fhh8dHHHlWtqsufzWOythR03du6voJuf7b4pYvLwQcfLBecf4EKM2igzsk5Rzpe01HuuPMObxP33WdfueG6G1Qz+8SgJ2T34rurpoBCaBFefe1VmTdvnr5R//XSv8p5550nDzz4gJdnpolHHXWUCopvvvmmLFu+TC668CK56qqr5I6/Z96HSpUqyWeffSYffPiBakgvvuhiQaj+18B/pdS/Jic3UUGRPu2+++4pdy2qnA/rhg0aStebu8ratWtVOEd7sr0JwRDNUedrO+uR9vjw9LXX1/dMefrqc2lR44CwAb3w4guyYsUKPV/4zUI9ZjoO2fit+Nqpjc3gX9Fiea3R3Jx2xwxY6gvMjvCc9o2tb/x8czcTvCgzbtw4fQFs0KCBfPrpp5myyVq5rAuL+++3v7Rt21Zq1aqlqmoEoHsH3CuH1jlU30b/fuffdWKxrNqyZUvp9bdeuqzCdx500z6ZJic2PlFKlSolL770orzx5htZAyMTxjxkWBYvUbKEamwGPTVIFi7MvcnE9b1ihYrSsUNHqXpgVSlapKhwUxr89GBZsGCBXH3V1YoNbYF386bNBW3K3X3v1uZdesmlqvrnCw9ttwzE97i2HHHEEfoGiMBQv159bSdvzTNmzqBYLCVrS9wY0SY0N3Fje/pfTpcmTZpItQOr6YNw+MjhMmnSpKR9B+eWLVrqA/67775TTRdaIZar2l7eVho3biybN+VdUoztXJIE3nB9ffAVj8OFuRs3RvCLS0s2Drwd97unn3DT79+/vyxfsVybd9yxx+nxqaef0iVDvvA73HvvvaVkiZKxc7Bp06b6hvvo44/qXPn555+VD//QogU1aTx4mVOO4saI9LjfA1qquPFjqZUXthGjRuh9oWbNmvqiyFLomjVrXLVbHX19GDFyRJ78LKU1OrqRXkvWP+q9vM3lMmPGDKlXr14ePr4vceV87WQcBz48UL766it5eODDkezRutaoUUPvEYOHDI59uQwXjirHcmfcfYl7SNs2bWXPPfdUjezdve9WzXKv23uJD89wvcHvvr6nwjOqD/D3zcG4cXDtmjptqnz77beqOXXXfOPgwyzZXMrk9+DaFNVOl1bYjz7MXNszGVtXNuoYd4/0ja1v/HxzN6r+VK6NnzBezj/vfMlplVMohcW8rxSp9CiNPCx99ejeQ+oeWleFgWHDhwnr+byxcKxSpYo+lGDJA6xmjZoJOxJsrHi7PPOMM+XTzz6V0W+N1qW0NKrPetYDqx6oAi3C3MSJE6VypcrS5q9ttF5f37G94u18+PDh8uxzzwrCY9ebumq5KVOmyCuvvqLn06ZOk5dfeTmx9MRFln3AomrVqlKxYkXNxz9fW/bacy/Zb7/9tAxlKZeTk5MoG3eSrC1xY+QbW26Q7dq2k7Vr1srDjzws7773rpTbo5w2wVcfyy8ITT/88IM89/xzamvWuWNnnS/YJ/7ltL/I7Fmz5ZNPP9EHWlyfUr3u60MyHnG4+MbIl+bDxbXlwAMPlCqVq0iZsrnLxlxnnBGoNv64Ua5sf6XLqvPNNwdZkoJuvvFmGTJ4iC5JHX744YnyCAwsbd/S9RZBePvwow81zTdGvt+Db/x++fUXfaHiZg+xTAMxPj5K1gdXlmV27kPBl664/lGGuYv9Jr/LdCiunK+d2NzyEoUwHUfYePGb5mU6OMZx+d31qHK+OcHLGX1eunSprF69Ws95WcUUIUhReAbTg+e+vgfzxfGM6oNvDsIzbhxcfX3v7iuPP/q4YoldLuQbBx9mlI2bS5n+HuAJRbUzNyWz/zx/u3Xtpp9LLr4kJSbg8t93/qtzgmcg56mYuCTDjMozGdtkjY66R/rGFn5x4+ebu5ni8ssvv8i/R/9bV1Jq16qdrDvbPD2rmkU2oQAqN5nnX3heO+dsblLtKW+Y3AzzS0jspUuV3orNnLlzpHLlyrFpPrs31MXQgPsHqIYMAfDss87WJbsa1WvE9n3W7Fm6bIcdFg+qtevWqk0SdmDTv8i1UezSuYvMXzhfJk6amKfNX836SviEl+B9bXEMhg0bJryRlildRk466SS97MPF9T2uLY5veIyw9Ygj+siDnwfuosWLZMoHUxIPHF/f0WBBM7+cqfl5uJ9w/Amq1UILyCYFxoEHK0J79erVNb/vn6/vvnKppoVxadWylRaNmi++8fPh4trCjRoN67p169wlKVumrGz8aaNw8y++e3F5/InHdd7w8EWoZuk4ag5yM4ewcRz7n7Fy6imnylXtr5Lrb7xer7McyjX3svLJJ5/odd8YcSOMuxf4xg+bPDS17a9ory8Krg7msG/8kvWBBjMP0aSVK1dOHnzoQe0D/+L6x5I4bRlw3wD5edOf2lbK+NqyafOm2HKptBP+cYRWfvLkybJq1SrFiOWxk08+OfZ+5vhElfPdl5YvXy58DjvsMH3ZD9+X4BuFpw+XVPoexdPXBzc/ou4Tu5fYPXYcVqxcIZg6LPx2od5TmN/cq/jN+MiHGXM+bi75no2+30Om7fSNA/2jr26zWqqbyGbOnCl8HD056El36j36MHMFo+anb2zdPdKVjzpG3SOj8gWvxY2fb+5migv10kbMhXgZx768MFFWhcWK++RqvmbNmpW0z0WK5moOwhl5qBUE8eN0Axzkx40c4/G4NCcwBcu4c5b0sCfiA7HMy48ODWmFihX0WlTf0bRiYM1bOUvQaKIQcnjYc4PJhHxtcfzmzpurp9xwEBjQ0vhw8fXd8eSYbIyCY4uAyAsDm5Qw3OaN9KnBTyXl4QQTDOwd8aMEb2zzeFg6Dcy3i75NSVj09R0NSpCCfQhe952HcfGNkS+NB5+P8AYQdaNm4xdau/1O208eeewR+fWXXA0Vy7q+OegeFphULF22VHFl6bVatWpqYgE2115/rQqLt95yq9rZ8BLiG6M999pTuxD1e/CNH3x5iKsAtOV34gih2Dd+yfoAHzRxLD+zcYSNOo7i+odZAi8lZcuW1eV88rOEjdmJry3HHXdcbLlU2unaFXVkyRRCsIfA0tcWBD4oqhzjl5/7UhSevrak0vcontoBTx9Ij7pP+MaPMXTmQxMmTNCVLsbt6SFPJ4QoV2/w6PsdcS+Pm0u+Z6Pv95BpO33jQH+YFw8NfEi7hh2f21AW7GtBnfswc3XEzU/So8bWlYs7xt0j4/K763Hjl8rcdTzSOaJwGvP2GH35RBMaXPFIh0828mZVWGTJEOIh89nnn+Vp/+Zfcm3LypUvp0blLMNFUZxdkhMMEHpS2Q3dt3/fKPYpX4uqj4HEXQDCHpOHJVYmJRO92G65BtNRfW/RooU+PDASpxy7XNEIICwGiY0FqZKvLWzth377Ne+SEddSxcXXlvAYJRtbhBB2cqNNY1mIt96wYBWuj7mEcI1Wzv1QaT+ExqfxCY1VswH+jEMq5Os79o9QsvnpqyeMi2+MfGnBOsK4uDS0lsyft8e+ncBn1epVmvz5558LD0DsXSEEax7CCD5Rc/D777/XfCwBQ+4Ynp8I+mgJTjv1NDlg/wNU8xc3RmikoKjfA32PGz/sJdEyjHpulL7cXNvlWt0hzAuPb/yYV5Bruzu6Plz218tUO8qKBzfnKAr3D/tiXi7btGmjuz0pg10oS7S+tqABjyuXKtZR7eMa5iUse7llebD0tYWXtLhyl156aeyc0EKef3F4+tqS3zGK6rvvPnFFuytix4El9SChZWOHb1DjFkx356ney8Nzyfds9P0eXL3umGo7fePQs0dPx67Aj1HPzVQwS3dsXcOj6nNpUfdIl5bsGB6//P5uffVxP2pxdgv16DHw/wb6sm7TtKwKi3PnzlWtG3aHTOoFCxeo8TGapHlz52lHGcDZs2er0JVOzzH6hi684EJ9EM77ep6sX78+HRZp5Y2qjx1L555zri7/sNGCHdrsEmUXla/vTDweWrgoYGkO7USYwIolL94k2Z3ntJY8bCGWZyh70EEH6cPf15Yw73S/R7XFx8M3tgjFp59+unz44YcqXKDtCmvtourD2Bg3ItgtvvPOO2q/iuuCIUOGCMIQy0bYi67+YbVqfRAa80O+PmTK1zdGvjRXXxQupDEXnCCIfe/8+fO1yAcffCBnnXmW/Pb7byqMnXLKKYJ2GWHRNwc/+vgjOeP0M3QjB9rl0045TfN//fXXOt8RCOcvmK82sAhCaLW+W/qdbnyJGyPf78E3fiwR0xZML9COoAlk2TXo99HhEzz6+gAm3IyxvUPoxCSDFynccPF7juufW4anHrQ/ve/qLY898Zi2J1h3+NxXjk0ycVjDBzcc++27n7LEjgkhg01/js475zw1K6FP9AfNfSoUVc43J3w8fXj6ymU6Ro5nVB989wnfOPCM4gUfwZvNl9yTsRV2L6Zx4+DDzDeXeJFjRSrq2ej7PSRrp8OmsByjnps+zFy70x1bzG2gqPqQC+LukZSJG1t+l3H3At/chWd+iPayHM1YY5/vVgPyw7MgymZVWOSGjl0UNm/uLZIbGsTyFjf9k086WU468aStfIXxJs5bgntTCHeWXUzsjmZjA7ulH3v8MXnvf++FsxXY96j62L1EH6ifD8t7CMKQr+9jx46VunXrqlsM+ocGCgPjILFzFuGn2y3dhLeYTl066fIXDygmPoSWgA8Ti3rj2kJeJn2mS9xRbYFn3Bj5xpbdiM2bN1fbTnggBGNLGaSo+hhbbEv5ASFEQwgp2OKhtWZJ+qyzztLr9DO/wqKvD1qJ518cLghqcWPkS3NVReHi0phHTmvmrqH1ww8nghFLS/z28IMG+eYgWGJoDda460FIHTpsqJbD8Jw5xxykTpaVX3rlJT33jREPxrh7QbLxYwc8D17GlJcylo2Tka8P1f+wZ+U316VTlwQrtNu+/iUyFuCJr51Ugy9F/MlCPNT49Lm7j37nH0vHnTt1VvyjTBESGUMnUeV8c8IVd3Zt7jtHH55O2Armd+e+vvt4uvJRffDNQSdQuPLBIxsGndYVbTaC4osvv5jIEjcOPsx8c8n3fPD9HpK1M9HgNE74HUeNaxosYrNGPTd9mDlGmY5tVH1OLoi6R1Jf3Nj6xs83d10f8nPk/ovXEJRprMQVBirS4Lhm+VPBpNgLbsx4eV+5aqUKLq4Yu434cSbTFLj8hfGIsT02j0xUhLIwxfUdLduatWu0/+EymX5P1pZM+WZSLm5sEWoq7F1BhU23HJMqf5aF2KXIQyi8zAvOLK0GN3mkyjcuX1wf4vKnct03Rr60VHhH5cFIGw0dGuqwEO2bg0RuKV+ufMIVj+PNdZY9wTnKBMQ3RvCI+z3EjR/eE/AY8MOaHxKaHteWZMe4PvjKJeufr2ymaZm0k7oQ2tE8rv5+dVoPfF8535zItH++ctnoe7I5GNUe7uH8TtB8Bd1FReUNX4vDLJW5lO7vIT/tDLd7e36Pw4w2+eZnJmObaT+TjV+mczeV9rCKhjKtY6eOWynTUilf0Hm2mbBY0A03foaAIWAIGAKGgCFgCOyMCPCSzGY6txq7vfuYVT+L27tzVr8hYAgYAoaAIWAIGAI7GgKYBhQWQRHsTFjc0WaQtdcQMAQMAUPAEDAEDIFtiIAJi9sQbKvKEDAEDAFDwBAwBAyBHQ2BrAmLBxxwQL6wwMA1SOHvwTR3jtE9fs/YcctGAc7ZoOAIHuGPS9tZjoSRws4hinxpUfm35zV2PGMAnU1KNl/i6k5lLsaVteuGgCFgCBgChsCOhkDWhEUc1WZK3bt1l/sH3J8ojj/CUSNGqf+rxMWIE9xK3HjDjYLn89q1a+v5kQ2P1Jw4WYZH+EM83e1FOON2zopTaQNCCn7mev+ztwwfOlx9CwbLnXfueTJ40GAZ9MQgeeiBhzS2tkv3pbk82/KYrO/XX3e9EEEhm+SbL756+/TuI33vyZ+Tdx9/SzMEDAFDwBAwBAoTAlkTFvOjWSxaLG+z2BUEuWMmABYrmhsdBU/9jzz6SOITdr+SCe9My+DDzjnZToUHvvK63txVNW64D8AliiOcBF9w/gXqoPqVV1/RyA4dr+moyb40V35bH5P1/dHHHhUcTBdGGjdunIaIdPGcC2MbrU2GgCFgCBgChkBBIZA1p9z50SwWVOei+Ez5YIosWLAgT9JVV14lNarX0MDdOA/G0Tfe23H0jd8tQqPhpJkIEviqGzR4UCKA+inNTxGcBuP7jz4PGTpEHQdTAWHn2rZtqxFF8DE5e85suXfAvdL28rYJLSkav+ZNm6tvr7v73q3tQoPY755+gtDcv3//hJ87/DgOfHigeql/eODDefrAkjv01NNPaV84J94wPrx8acl2W8X1gZ1atJ3+lyhZQpYsWaLOQ4k4c8QRR0j7du3V4Xb9evU1beSokTJj5gyNwEKEBCiq70QicRFtEOwJfQX5eB5x+BFC3Ne/3/l39UfFEnbLli2l1996qV9B3xgp8zT/4YydEIU5rXKEyCtGhoAhYAgYAobAzoxAXhVeAfY0P5pFmoGQ061rN/1ccvElKbWMUE1EMyH4N45VOUeICdLlbS5P8GXJGsHsrTFvaXQQojkQPo88xHdGuMOujQ/e3Ee/NVrjQCMIQQ0bNlThB8fShOWRLWaWnTt2Vp7YB/bo3kMImj5p0iQZNnyY8kE7SnQAtH/QtKnT5OVXXpZx/x2n390/ltJZIi9Ttoy7pKGo4IUn+jDh8R4t6cYfN6pw69JxZuxLc/mijr4+EMsbTSY4T5w4USpXqqwRZ+Cz1557qWaTaANgRv05OTlaRbK+T5s2TctQlnKOfDwZnypVqmjsYPIzd2rWqKnj4BujVOaLqz94JEIMHvbr1KkjhGAzMgQMAUPAEDAEdmYEtptmEc1M6VKlt8J2ztw5eo1lVheCyBcyKsiAEDx8HEWFvypapGiCL/mKFi0qixcvliefelKu63KdarAQNon5GqQRI0cIsXa//+F7aXd5OxX8mpzcRLPM/HKmRm5BC0asXLRpCBTEbkYQfP6F5zWfEwinfzFdvxMGcf7C+TJx0sRgVXqOoEukk1SjkZQtU1YIZ4VgTQi8x594XDpc00HKlCkjvjTfOCAEx/XBhcYacP8AjXH6008/aQi/4NI4YfymTpuqm42Ivwsl6zsxgPnQ9iiK4hmVz13zjRFtSTZfHJ/wkfE5J+ccyWmdoxrpcLp9NwQMAUPAEDAEdhYEsiYsoln0LUWzpEvYojARVxciePZDAx/Sc2z10OIUBLFMHF6Ghi8aOzRlLLuOHjN6q/CDaBqh5cuW6xE7QKf5qlP7z7YhfCDo7rlX7i5sYuemS4RkixJ0fXwIu1a/fn3Z77T95JHHHpFff8nVPhKv2pfmG4fdiudOj6g+sMTNkj0fiBjP9BuNniPiHUMrVq5QoRXBPCocosufyjGKZ7hckaJ/7qT3jVG4XDrfEY7HvD1Gl6PRArvl8nR4WF5DwBAwBAwBQ2BHQCBrwqJPUASYvv37xuLTs0fP2LRsJbRo0UIFRbSZ5597vnz00Ufy/fffJ6rbb7/9dEmbJU9o8aLFguYN4QftWlj76XY5s4GFwPBxtHvx3M074XQCiKNZfHvs21vxDufl+6rVq/Ty559/LhMmTBBs//T6qlXeNN84+PqAcHTUkUfpsjx9R8hGyEWo3nffXJc3v/26dZxsbdQf/+L6HswTPo/iufmXzZqtXPlysm79OmGJ3JFvjFyeTI8Iiy3ObiGtW7WWgf83MFM2Vs4QMAQMAUPAECjUCBRam8VsoYYrHZZE3QftJprBSy66RN6f/L5079ldd13fcN0NKqy5drAZgyVNNr5gp7fkuyUydepUXcYm4Pdh9Q8TeHfq2ElKlSwlc+fOVa3bmWecqWXQjLLsHFymXbBwgbAZA6ErKOBgR4mwd9GFF6ntn2sDR9y9nNj4RL2EvRznpUuX1iVyLv72+2/S+ITGcsoppwhauFVbhEWWz+PSNCHmn68PbOygne2vaC9NmzSVZk2bybx581RYi2GX53JU39FMYjPKB94sgXMe9JWZh8kfX+bNnadnCNhsZgFPR74xcnkyPa5fv17tYtUn5B8Ccqa8rJwhYAgYAoaAIVBYEdhumkUfIGzgcPaKvnzppLlNIRdecGGeYvc/cL/uTkYAZOl348aN8tTgp1SwQ9D7+eefNf8B+x+ggiB8nnjyCb323v/e040x5ENggJYtW6Y2gyzPPvDgA8qnXdt2mhbeefzGm2/oppBut3RTLWanLp00H/+oB81imK65+hrZo2zu8j2CI58+d/dRW8DX33hdNV0s21OXa+es2bMkLi3MP/gdLOL6gCA6efJkFVYRWFnuBjdHaFyx24yjqL7jTLz3Xb1VUKQcdpF8sA+cM2eOanGjeLJTnbacfNLJctKJJ2lbXL2+McLGM7/ERpfT/3K6IKgOempQftlZeUPAEDAEDAFDoNAhUKTBcc1+z0arktksZqPObPA87dTTdHfxlVddqTaWq79fvZUgi0YM1zksx0b5bWR3Lq5zVq5amW+bvWR9RHOJux9c/LAsHCRfWjBf1HlcH4iUg3YWtz75tUeMqjeda2ggEe4RcsOUbIzC+dP5jmYZQbVjp455BNV0eFheQ8AQMAQMAUOgsCKQNWGxsHY43XY5YfGK9lfobuN0y1v+nR8B3CGhFQ1rjnf+nlsPDQFDwBAwBHYFBHY5m8V0B3Xe1/Pk2eeelZ9+/indopZ/F0EAkwkTFHeRwbZuGgKGgCGwCyKQNZvFnQXLr7/+WvgYGQKGgCFgCBgChoAhsCsikDXNYjLXObsi2NZnQ8AQMAQMAUPAEDAEdjQEsiYs5jfcnw9I3KoEKfw9mObO8Y9IjOTy5ctrRBHOo1yykM6OWtzkpMLX8S9MRzZb4Bcym5QqnuE27KiYhvth3w0BQ8AQMAQMgV0FgawJi9nSLHbv1l3uH3B/Ynzq1a0no0aMkkPrHJq4FnWCixliQRNto3bt2nqOX8Qg4W/x0YcfFdzT4OeQMHnbi26+6WZxTrHTaQPCWOdOnaXR0Y3SKZZ23lTwjGLap3cf6XtPvEP2qDJ2zRAwBAwBQ8AQMAS2HwJZExazpVksWixvk9mJCrljfqA8+uijhTBuV3e4Wjp06pCyg+n81BlX9phGxwjRX9Il3OUQTQSn2YWRxo0bJ9WrVZcGDRoUxuZZmwwBQ8AQMAQMAUMghEDWNrhkS7MYan+BfD3iiCOkbZu2uixNNJS7e9+tPgN73d5L/fYRvYXIICVKltCQfzhfXrhwodaNM25iSk/7ZJo6qC5VqpS8+NKLUrduXSF+dMkSJWXhNwsFp96EwiPeNRFeOnboKFUPrCpFixTV9MFPD9aY1fjsc1pS6m3etLlGjLm7791aH5rDfvf0E4Tm/v37q39DB0Kvnr2kQoUK+vWFl16QRYsXuSR1HN2kSROpdmA1jSwzfORwjYdNhrj+gUv7du017nP9evW17yNHjZQZM2ck+KZ7Mn7CeI2nnNMqp9AKtOn2yfIbAoaAIWAIGAI7MwLF9q9S485sdBDNIuHQCpqwJ6xataoccvAhGtbu2GOPVTvEiRMnavSUuPpKlCihEUU+nvqxbN60WYWtGTNmqKNstHHLly8X2sz58y88L1/N+koWLVokVSpX0SVrBD3iLiM0EZoPoQci5B7h7ghL9+FHH8r06dP1OlFUcNBNdBHyvPveu4K2cOnSpSqA1jqklrz11lvy5VdfCnmxoXxrzFvatgULFmjeDz/4UMvNmTtHFi9ZrHwRFq9sf6U63h4/cbzGp9aELf9+WPODUBbBllB9s+fM1iTiNvfo3kO+WfiNCrK4eSmy5Y889IXl+aj+IbTSNyLJvPPOO1K/fn05oNIBGnvah6drT9TROe6mjWBFOEIjQ8AQMAQMAUPAECi8CBRKzeL5550vpUuV3go1hCaIaBwuHCBRU1KhmTNnCh9HhPZzhKDIBxtBlrMnTprokhLLpQPuH6AaOZapzz7rbI3xzLmjESNHyOi3RruvKrBNnTZVw/jVPbSuDB02VO0Iia5C+D3C6BEvukqVKrJ23VpdmqVf07/IFTaJIz1/4fw8bXHMCX+HALdu3Tp3SY8IXwiTlA0SfLlOZBO0jVM+mJKItuKWg6P653gMGzZM6AvRWoipDfnwdOXijrT/nJxzJKd1jvS7t19cNrtuCBgChoAhYAgYAoUAgawJi2jpMl2KPviggzWEXBifTZs36SUEO5ZzIbRyCF3Zolq1aqmQSKxn6Jtvv1FhtWaNmjLzyz+Fz08+/WSrJiDQ8kFbqfGut7QfwQ3hsddtvVRgY4mapW8XCzoq9nGQMbyCgm4wLe4cAXHcf8dpnOXjjz9el7WJ40ybff1z/IgDDa1YuULKlCkjRYsWTQibLk86R4TsMW+P0eVoNhx988036RS3vIaAIWAIGAKGgCGwDRHImrCYqaBI3/v2j98t27NHz20IzxbhcIsgc9SRR6lAhxaTJV0ENpZtgxQVE9qlkz9ILVq0kM2bN0vnaztrPGl2Pu+7z76qLQzm27147uad4DXOW7VspXnfHvu2lg+nR33HznLUs6NUU9qubTsV1BAWff3bd999ldVvv/4WxTJf1xAWW5zdQlq3aq0bcvLFzAobAoaAIWAIGAKGQNYQyLu1uACrydZu6AJsYkqs2FXMEm77K9qr/V6zps1k3rx5+dopvXLlShX2cPvTskVLaXDE1juDFyxcIGyeQVDFrtARbcGtz0UXXpSyL0UE0TaXtVH7yx9++EF+/eVXKVI011dlNvrn2uo7Ys/KcjR9dEKpL7+lGQKGgCFgCBgChsD2QaBQahZ9UOhy7pal3WyQs4MM8mYJdvLkybrT+cTGJ8qGHzcIS7iOWBqnTXzCpMvQfyydB9PGjh2ru6W73txVy6GV3HvvvYNZ5I0335A2f20j3W7ppnaPnbp0SqS7JevEhcAJS8RhwtF48+bN1daSNJbSsUOEkvWPDSnJlsaVUQb//j3637pLG00pmk8jQ8AQMAQMAUPAECh8CBRpcFyzvGukBdTG/NgsFlATCpQNmzv22GMPdVXjdvTmtwI0fmvWrtHd0fnl5crjrqf3Xb3lwYce1I0s7jobYirsXUEQbtEuhikb/QvXEfUdV0FEnOnYqaMK4lF57JohYAgYAoaAIWAIbD8EsiYsbr8u7Zo1H33U0XLuuedK1SpV1aayY+eOKdszbk/E2H1etmxZwZ2PkSFgCBgChoAhYAgUPgSytgy9s2kWC9/Q5W0RPhanTp0q48ePl/cnv79DCIr0gKV6ExTzjqV9MwQMAUPAEDAEChMCWRMWC1Mnd4W24GCbj5EhYAgYAoaAIWAIGAIFicDWuyEKiHt+XOcUUBOMjSFgCBgChoAhYAgYAoZAPhHImrC4vVzn4FomSOHvwTR3vtdee2m4PXYNs9GD0Ht77rmnS95uR3Urs2UTTCpUsmRJ3Vl8+l9Ol7+c9petfDamwiM/eSodUEnd4OSHx45SNtP5kspc3FEwsHYaAoaAIWAI7DoIZE1Y3B6axe7dusv9A+5PjB5+DEeNGCXEOPZRo0aNND4y0URq166t50c2PNJXpEDScMZNiME4uv666+W4446LS85zvVjRYhqh5fzzz1efkAiP25KIDNOp45/ufZLVnazvycpHpWeDZ1Q9mc6XPr37SN974h3OR9Vl1wwBQ8AQMAQMge2NQNaExe2hWSxaLG932GkLueP2Bjtc/zGNjpFq1aqFLye+P/rYo/LpZ58mvvtO8P/YvWd3GTlypC9boUlL1vdMGpoNnpm0I67MuHHjNAa4i8cdl8+uGwKGgCFgCBgChQmBrG1w2R6axWwAi0uaK9tfKUuXLRViVq9YsUIGDR4kM2fOFJZeO3boKFUPrCpFixQV4jwPfnqwLFiwQJvCMvIF518g0z6Zpk69S5UqJS++9KLsv//+CW3neeeeJ82bNtd4zXf3vVvLEaHFRXV59bVXE7GTk9WXSf+POPwIje7y9zv/rn4OaXPLli2l1996afSYuL7jt7Ht5W2lcePGsnnT5jxV+9qJX0Wn6Y3q+ynNT9GoNvvss4/GFh8ydIh88cUXyp9l3H739BNeCvr3768+L0lIxjNuHAh1SGSbqL4TotHXljwdTvHL+AnjNcxiTqscIXKOkSFgCBgChoAhsCMgkFcVV4At3h6aRZpPJJRuXbvp55KLL0mpR4sWLdLQc0uXLlWhjTB0S5Ys0bLYp/GpUKGCjH5rtMaIbt+uvabhpPunn36S4cOHy7PPPSsVK1SUrjd1TdRZunRpqVSpkpx5xpmqIaR88eLFZcqUKfLKq69ovmlTp8nLr7ws4/47LlFu2rRpWlfVqlWlYsWKievJ6ktkTOOEvlWpUkVc5Bfwq1mjpoY49PW9fv36ahs5e9ZsIcZ00MbT105f3xs2bKiCH07Dn3v+OZEt5qedO3bWtrguYSpQpXIVKVO2jLuUFM+4cfD13dcW33xJNCrihEg4RK2pU6eO1K5VOyKHXTIEDAFDwBAwBAofAjucZvH8886X0qVKb4XknLlz9Npuu+2mvvv48uOPP26VL+oCWkI+jp4c9KQ7TRxHjBwhH3zwgXz/w/fS7vJ2KkDOmj1LHnjwAX34I3CtXbdWlxlpQzBEHmURFMPUpXMXmb9wvkycNDFP0lezvhI+Ha7pkOd6qvXlKVQAX6L6jkZy8+bNMuD+ARqysHKlylK9enWtzdfO6V9M1zxRfW9ychNNm/nlTCFKDpq/E44/QerXqy+uHII8Ws1169ZpXv65tCieiUxbTsLj0LRJ02BynvNkbUk2X/IwC3yh/efknCM5rXOk3739Ail2aggYAoaAIWAIFE4EsiYsZsspN0vBaK7CRBg7aPny5fLQwIf0vGGDhirI6Zd8/vv222+Vw/Jly/VIWL0N6zdIr9t6qWDDEjQaLBe3OSgsonkrCKp7aN2U6stPXUWK5t1NDq+ovtP/VatWJWJif7vo24SwmGk7nRa1Tu06iS4glCF8QywNRwnyicxJTpKNQ7DvydqSpKrYZDTRY94eo8vRaEkRiI0MAUPAEDAEDIHCjEDWhMVs2Sz27R+/m7Rnj55Zw3q//fbTpWmWLqHFixbLZZddptq1ztd2Vi0mu3GJ94zmK0hr1qwJfs1zvnvx3E04eS7GfGnRokXS+hBWoTJlysiGDRtiOP15efMvufaG5cqXk3Xr18mBVQ/8M/GPs6i+I+Q0PqGxLhEjxO2/3/6Jcqm0k8zhvrP8jEYRbWWcVrhVy1aK79tj347ME+aZaNSWk/A4+PqeSluCvNM5R1hscXYLad2qtQz8v4HpFLW8hoAhYAgYAobANkcga8JitjSL2xyhPypkM0a5PcrJGaefoXaNS75bokcEQ1z0sGnFbUpJtY0LFi5Q34QLFy7UjTPffPuNatHcDmk2dMD3oIMOUi3eypUrVVDy1ffVV19p9RdecKFMmDBB5n09T9avXx/bpHlz52kaQtjs2bN1U0s4c1TfP//8czn1lFOlzV/byOofVkutWrVU80fZVNoZ1XfCFbKhiA0r77zzjtp3HnvssTJkyBDZ+NNGFUzZ/AOxS3z+/Pl67v5F8XRpUUdf35O1JYpfqtcYD5ajsWXFNhNtuJEhYAgYAoaAIVBYEciasJgtzaIPSLRqxBrOBh2w/wHqR5A6nnjyCa1i7NixUrduXel6c1ddjkVzxQYRRyyNk99p+9x1d3zjzTdU2Op2Szf5/vvvpVOXTlK2bFnpfVfvxKaO5s2aq/9EhIu33nrLWx98l69Yrjuuccx9YuMT5bHHH5P3/veeq3KrI7u8J0+eLCefdLKcdOJJuiM6nCmq7599/pnaeZ511lmanWV3NIxQMlzIE9V32lm5cmUVotjBDC1btkyK715chUW+g2VYc8t1KIon1+PGwdf3VNoC70yJjS44UEdIH/TUoEzZWDlDwBAwBAwBQyDrCBRpcFyz3Cd8AVe1s2gWTzv1NHWdc+VVV6qt5OrvV28lkLL0vGbtGvn5558LGMVodunUxxIy+aOIZViniWQ3M+3fuHFjImsqfUc4ZqNLcMOJY5BOO10Zjtgo4jqHpejw0nEwX0GdR/Xd8c5mW9CgIqR37NQxUkh3bbCjIWAIGAKGgCGwPRHYqTSL2QQSWzo0UVGENm9bUjr1IYywjBxHl11+me7cxkYvjnx9X716dVyxhB/E2AwxCWgpt6Vm2tf3bLblmaHPyEsvv2SCYsw8sMuGgCFgCBgChQMB0ywmGYeaNWvK4YcdLq+9/lpimTVJkUKVXKJECd3sEtcon7C3o/c9rs923RAwBAwBQ8AQMARSR8CExdSxspyGgCFgCBgChoAhYAjscghkLYLLtlxG3OVGzTpsCBgChoAhYAgYAobANkIga8JiNsL95ZcnrmiCFP4eTHPn+FU87tjjpHz58lKmdBk9D4a2c/nSOZYsWVJ3wrIbll3Lcbt70+GZrbxgFIeTSwseg+0oVbKUsMEmXN73PcjLnQd5ghWxp4mz7cjlizq6PHFHXxnS8kPMEzb5uFCKjper031P5ejKxLXJpYd5uevBYzAP12ljfud0kCfnUX13bQjn5btLCx6D+dz1qGsuLXhMhWeQV/AcPj5y9QTzuGtRR/LFXQ/y8J1H4Rnk6ysbTgu2JZzm4xks586D5blWkHPJ1RE8uvq4FkWZ3q/j+EXVYdcMgV0RgR1qg0t+tJXdu3VXn4U3db1Jxxlfhbf/7Xb5x13/kC+/+jJ27Bs1aiTEgu5zTx8pvltxufGGG9V1zjvvvhNbJllCsaLF1B3O3hX2lj3K7iGT3p+UkgPtZHwLOv26a69Tx9vwXbt2rUydNlXe/PebsnjxYmncuLFc1+W6raq8pdstsnjJYml/RXv1w8hNmLL33X+fEAawU8dO6o+yQ6fcUIaNjm6krodu7X6rVD2waizP75Z+J+3atlNhnQg+uOl597135X//+5/8485/bNUOLuA38o4774hM4yI+HG+6IXc+uExsYrrxphu1TbQNVz2475nyQW48b3Z+JyOiDIEdgjJE/2/tcau4jTT/vOufQp5/DfyXvD/5fWnQoIHccvMtgp/N23rdpmXuH3C/7LvvvnJX77t0Z7jDmn4TCnL8+PHaf8285V+YJ9d9/SMd10pXtLsiYdM6d95c9W/J2AXbcuwxx2p/7vrnXTJ7zmyKxlJc39tc1iajubRo8SKtK9w/Ymv7xv3t/7wdO5ccz6hO4AYr2bhvq7bQvjg8d/a55Ju7vjHK9H7dp3cffanr0bNH1LSwa4bALo9A1oTFbLjOyQ/PosXyKlF33z03coo7bsuZsOHHDdK9Z3dp1rTZVvGft2U7ktUFNrjTeWLQE3LIwYeo8Idj8nvvu1cQeKFXX3tVI9s4Xri64WGL2x2cgn889WMVHK/tcq1cf+P1Esbbfefo44kPSHiOGTNGCNtXtWpVwXk5gukjjz6i1SPAErP6qcFPabuJSOOjOXPmaFmEpsMPP1z9HToXQLSHcXr22WflsMMOk3PPOVfjgT/+xOM+lqp9vq3nbepeiegs4IcGuXjx4loOzcdBNQ/S86OPPlqFxd2K7abugmrWqCmVKuVqTTlCbFByuLBzGufkzZs2l2uuvkZjYuMAPYonZX39YzwZk6+//lp3ZOPfE0fu9Bt3QbTlyIZHyrRPpgmacK7RFh+heY/rO3wzmUvUF9W/ZOPOSxgUNT81IeZfsnHflm3x4Unzo9qys8wl39xNNkYxQ+u9PG7cOP1N8eL26aefevNaoiGwKyKQNWExP1rAuIHIBs+4ulK9Tpi7tm3bagQTbtRoXu4dcK8KC7isOaX5KVKiZAkVqHC+TLQWHyHsoIX5+51/V2EF59QtW7aUXn/rJbd2u1WIyVyyREkhFjXOsonbTCxs4gyjAUUjVL9efa1v5KiRMmPmDK0OgaVJkyZS7cBqqukaPnK4TJo0SdPQ/vW7p58gUPfv3z+PyxuijZCPD3098sgjVSByfUDjtmDBAvdVj2gF0MgNfnqwCjcI+RdfdLGwuzoViuKJYAXPYSOG6RGn4I7GTxivp2jiwA9tXSqhDtkJTlmi5CAsouEN+plcu2at/Gfcf/TTrWs3aXJyE3n2uWe9vh+bNG2iMcIffvRhIQoMhMDsiAg14I12kIg/YROEE44/QUqXKu2y5zl+9PFHijVj3rN7T9UMIgxF8QQrX/9wpu5CK7od8RMmTtD56ipFQEZYTJWS9T2TuUTdUf2Dl2/ccRkFRc0lTfD88437tmxLMjyj2hLs1o48l3xzlz7GjVGw/+mcM5fOP+98yWmVY8JiOsBZ3l0GgbzqtgLsdn7tC6Oakl+eOJDmoc/nkosviapiq2uLFi3S0GxLly7VMHZEUlmyZInmQ1vUo3sPqXtoXRWmhg0fpm/7vPkSY/mC8y/QMhMnTpTKlSprtJatKghdQFtQpUqVhJ0bbUbLg4ABz9WrVsucuXN0eWripIkqpKIB2mvPvXTZE43b6LdGS8WKFSUnJ0e5I+SxhMsN9uFHHtblSzSEQULYrFK5ipQpWyZ4OXGOFo92EWnmx40/Jq5f3ubyBKYs0dPOChUqaAg7tGAQgi0UjG6jF2L+RfGcMWOGCla397pdmjZpqg7SY4pn5TJCE7aHCOg+AkOWij/77E9hNpifB/yKFStk9OjRKlTWq1cvkUwknRNPPFGOP/54jaqTSAicgK/TTCIwQT6egaJ5TomUQ3xvJyiSiPDoiAg2vJgcVv8wdynpMVnfHYN05hJlMumfqytqLrm0VI7hcd+WbUmGp68tO/pcSmVsXJ7gGPnu1y5/1BF/qkRVqlOnjmDiYGQIGAJ5EdipNIu8GUZpZRCuIJbSXDhAooOkQjNnztSwdi7vk4OedKcqsKGVevmVl+X5F57X6+P+O06PhOmDBtw/QDV5P/30k5x91tm6pMd5poTdIAIbAurQYUN1ybdcuXJ6DZ7Dhg1T20KWsE466SSthn4jZKA1w14LbUtQMCATQjBaLrcMqwW3/EPwGzFsREIDdt8D9+XxN1m0SNEEppRBoCpbpqwuOToeri6up0JRPBFeENSaN2+uN3QE0RdefEGFrlR45jeP01Sy0clHpLPcysMnTGz4QTjE1nL6F9NVQ8oDnzjbEJpNBEXo/SnvJ871wpZ/2C2WKVNGN49gs4YmMBlPVzZ83LP8ngkhHk1w61atNcuXX+ba76JpQVA8J+cc+d/4/4WLR3739Z0Cmcyl3Yvv7sUssiGBi1FzCa1rqhQc90yxdnWl2xYfnsnasqPPJYdZKsfgGH3w4Qex9+tkvLgHMt9zWudIv3v7Jctu6YbALoVA1oTF/NgXxo1AMp4Yg7P5IUzEBoaWL1+uS7acN2zQUIUOzjOlivtU1KKzZs3aikWtWrVUSGRzA8TysLMFm/nlzK3yx10oUrRIniSEXT5or3jo0Tf4OmKTArRi5QoVLBDeEBARYhFgEUawc8OuD9s/CF5BIVgv/vEPwYe8GI5ji4iQEaQhQ4dstQy9fsN6KV/uT6GKhyS0avWqLZUFS/95/nsgIYongu7gIYNlxKgRumR84fkXyiUXXSLvvvtunqXjPzkW7BlCGpQs/CDjjW0fYxIWGLGH4nqNGjVU6ww/hMXp06dzKku+W6LhF3/e9LOsWrkFqxChCcRWD4GOZWzGHzOFKJ5PD3k6j1AfYqX9CPYJ8whsaBfMX6BZafvrb7wubIBhc1Eq5Os75TOZSw0aRWOWrH+uvVFzyaWlcgxiFDd+2WqLD8+4tuwscymVsXF5gmPkrmVy5CV+zNtjdDmalRZ+b0aGgCGQi0DWlqGzYV+YjGff/n2l1+29tvpgZ5YNcjsSWVYLEzcaBNfSpXPtz1gKRijD3syR03C4mx3XidcMlSufu0zM0nMUwSuKfvv1z6XEYDr2kld3uFoGPjxQbSjRwgapVctW+lbt2uvSnG3Ygw89KAsWLtDl+2B7Xb7gkaVN7AfZGAFx44WWfrdUECTdZg+usWQPbVi/QY/J/iFwfPTRRzL2P2OVzyGHHJKsSIGks9QP5kHBCbdH4BbUNiLMocXFdjJMCIYIYZt+3iTVq1VXXizNu13T5L/zrjvlnr73hIvq99feeE1efOlFtUN1cyeOJwKpjzClwH4VrTTxwXlIhokd/8xx7G5TIV/fKZ/JXMq0f6m0N5U8wXHPZltsLqUyGtF5gmMUnSP1q/wOEBqdpj31kpbTENi5EfhTJVXA/UymBcykumzwzKQdrszcuXNVe3jmGWeqtg9higcrmjh21LFBADckX3zxhWpt5s2bJ8EdujykIXahsnN43tfzZN7ceXoNIQTXL0cdeZR+z88/fJ+dfvrp8uGHH+rD/9dffpWgxhLh5tJLLtUqPv3sU5k/f/5W1SGcIHT3uLWHLqdjwwlxo8ZO0hH9ZikI43q0Ugh24INLGrSdlEMgRVhFI8vGGwTA73/43rGI5Em+ffbZR6ZMmSIlS5XUndEsRbObN1NCyGNjixNmWbZfsXxFQuOKL0d2YLMb+qijjtLl2KBm8aILL1LtLePulpLfe+89jcV91ZVXqTCLlhAebPZp0LCBCnpOGMQGdED/AWobmEkfMBuI44kWeNWqVbH9e2vMW+pa5+abblYzCgTHMOEm6M3Rb8pll14WTor8Htf3sNY61bmElszXv1TGPmp+hk0twp2JGncE3Wy2xeZS3lHI728zL7fUvzHOLEdzz3ru+ed0NSr10pbTENh5EciasJhMC5gJpPnhyQPK2StmUndUGZZGH3jwAenSuYtuICGP2zDAcrAamW9xy4JrFtywIEQGafmK5aopQqtAnscef0ywzaMcuzlxF0O5IOky9B/L6sHrnGMbGF765Do3Xmz9sJmEWBLHtjFI4BPemUt6EDMEwQULFqjg+fTTT2txBN0g4U8RAZEbLsve7CCG8B+IZo7dxQhoTrPJW/ygwYNUYKQNUBRPbExxju74IaDRBm7ujoJtddd8R3xtdunUJZGF3eSMX+drO+s1HCG3vbyt+lnELvWVV19J5EXgdY7BnakBibSnb9++6paGDT8Q6QiG2JEGN75gjI9JAGk+criE+1e9evVYnnXr1lUtdlz/WMbGDRA772/rcZtWj20vQj3k6sKlCFoW54pGE2P+xfXdZXc8+Z7KXBoxcoS3f1F83TWHWdRcYle5j6LGPRnWjl+wj+5asrbYXHJI/XnMz2/zTy6ZnbHRhZdTXthZkTEyBAyBLYEFGhzX7PdsAJENLWA2eBZU31lOxHXOylUr82weQUBgORrB0G30SKVOHlho3IKuXFIpF5cHQbDC3hXUxtEtn8flLajrGOGzuxftKo7PcersCExYzkZYihJwXb7gkT6AMxqvVPrA8i5a1Shiud9pdqPSk11DY4UrI7RfOGyPIsaQDRrYajqBISrf9ryGVhmN7cYfN+bReke1KR08C2vf0+lDFAbZuGZzKS+q+f1t5uWW2berr7paX9g7duq41Qt7ZhytlCGwYyOwy2gWsz1MTqMYrgfNYFg7GM4T9T0VYSiqXNw1hBUE1m1JLBOjSWS3onOj4+pnKTDZcqDL6470AbczqRLaWXxdxtFll1+WsqAa5rH/Afur9o2lqjgq6DGMqyc/19H2svErFUoHz8La93T6kAomBZHH5tLWKObnt7k1t/SvPDP0GXVWn8m9O/3arIQhUPgRMM1i4R8ja2GGCLAr2bcZJ07Az7C6nb7YzoDnztCHnWGi2TjsDKNofdiVEMiaZjEbIObHZjEb7TGehRsBlvH5GBUMAjsDnjtDHwpmNLcvFxuH7Yu/1W4IpIvADuU6J93OWX5DwBAwBAwBQ8AQMAQMgfwhkDVhkc0o2SKM8oMU/h5Mc+eE0WM3LTuD2XTCOUb424JwnBy30WJb1G91FA4EMp2DqczvwtFDa4UhYAgYAobAzohA1oTFbC0Zd+/WXe4fcH9iLHCxMGrEKDm0zqGJa1EnRCDBlQk+9WrXrq3n7EJMlfBHh7+9TOj6666X4447LpOiBVomP30o0IYUMmbbCpdM52Cf3n2k7z19Cxlq1hxDwBAwBAyBXQWBrAmL2dIsFi2Wt8kuAog7Zmvgjml0jERFakmlvkcfe1Rwdr29KT992N5tz2b9hR0XfB0S8YUQb0aGgCFgCBgChsC2RiBrG1yypVnMFkA4YW3SpImGQMOJ8vCRw2XSpEmCvy2ntcQNS/OmzdU34N1979amsMR8wfkXyLRPpqljbRw1E5LtjTff0KgoDY7IfdrKVcgAAChTSURBVMC/+tqriVijhA27sv2V6gCZeNa4g8Ex9cyZyWNG0waixJQoWUII2YbTWOL6El4OB8t/v/Pv6qqHdrVs2VJ6/a2XEE3E1wf4tWzRUv3tMW7E0yXqDOTrn2aI+FfpgErSsUNHqXpgVSEu9MJvFmoEExx6Qz6ecWlTp06N5XlL11vk559+1lCG8GcH9D/+/g91DE6kEpZx+93TT3jR6N+/f8KFUKZjSyjHOKxxRePDk/alS+MnjFcn5jmtctSZdbrlLb8hYAgYAoaAIZAfBPKq6fLDKVQ2W5pFqsExc7eu3fRzycWXhGqO/kq0DKKKEG4OR9CcI2xBxG1u17adrF2zVh5+5GF59713pdweubGZCS/nIndMmzpNQ6ON+++4RCVEX6hUqZKGh0J7OPqt0YnYx9OmTdPvhMOrWLFiogy2a3wqVKig6fAgekgyIk40gintnzhxolSuVFna/LWNFoMfkUCKFs0dUjCqWaOmCkq+PjRs2FAFYvziqc/ALeagnTt21nIw9vUvrr043CYyy/DhwzVEYMUKFaXrTV0T2X0849J8PBcvXiwnnHBCwi60cePGigXhEx1hflCl8pYoKmXLuEsaOjCTsfVh7cPTNwcTjYo4wWk5USXq1KkjtWvVjshhlwwBQ8AQMAQMgewhUCg1i4SCK12q9Fa9JhwZtNtuuyXCkREGLhVCaxfU3AXj1cIP7RPRUhYtXiRTPpiSiLYy/Yvpyp6QfvMXzpeJkyZGVkdoMgTFIBFSjU+HazoELyfOKfPBBx9oXOR2l7dTAfL77/+MkZzI+MeJW4YccP8ADSGHQEYIv5IlS4az5vnu64MLnzfzy5naZ7RmxHWuX6++uHIwi+pfnkoCX2bNnqVhEBFuEGDXrlury6jgHIzW4uMZlUZoxSieCP6E5mratKk8/8Lz0rRJUx1HYms7Ig8RYIKOwF3/0h1b+MdRMjzj5mAcP3ed9p+Tc47ktM6Rfvf2c5ftaAgYAoaAIWAIZB2BrAmL+QnNx9IsmqQwbfojJjIRJx4a+JAmN2zQUAWIcN50viMgoi0klvHxxx+vmjviOH/y6Scps0knr2P67bff6unyZbkRNA4++GCNq+zSw8datWqpkOhiERPjGQEMDWKYihTNu2M8nO6+O41nndp13CUVquEbpHT6V/fQutLrtl4qfLIEjbaQ6CsIa0Fh0ccznObjyXxg2RxB7cMPP1Q8hg4bmmg+S8PBl4NEQoon4baEiwWxThXPMI9k33kxGPP2GF2ORkuKUG9kCBgChoAhYAhsCwTySgQFWGN+bBb79o/f+dmzR88CbOWfrLD9G/XsKN1EwJI02s2wkECc3zhas2ZNXFLsdeLUshTOsia0eNHi2LwkICAcdeRRKnyhUWX5HEEIoXOvvXN5lCtfTmP8smQdReE+sPxMzGq0lT4tbTr9a9GihcZv7nxtZ+XJbmNcByEsBsnHM5yWjOe4d8bJTTfcJNdde53WPWHChGBVqnmk/rfHvh3ZzzAuwcLhthC7ForCOlU8g/xTPUdYbHF2C2ndqrUM/L+BqRazfIaAIWAIGAKGQL4QKJqv0p7C2bRZ9FSbURKCDBsWsGnjYf/rL79KUFsE0wULF+jGDIS1OEEsWDmauYMOOkg/LHHvv//+eh707chmFbRhZ5x+hmozl3yXa0MZ5BM8//TTT3W5vP0V7XWptVnTZjJv3jwVDufNzbXPYzmWDRa0M0xRfWDjCHaObPY4rP5hgjuhTh07SamSpcLFU/6OTSWCGW6N2DjjNvmkzCAiYzKeH3/8sWpdK1euLJyvW78uwQX8L73kUrnowosEAT1MUbiE8wS/+7DOBp6u7vXr16utLZuA9t13X3fZjoaAIWAIGAKGQFYRKJSaRV+PWc7ctGmTL0vaaTjqbt68udr/UZjl3WHDhuXhw+5mNpN0u6WbYFfYqUsnTWdpnDbxCVLZsmWl9129ExtFWOLmg+2Z2xV8wP4HqGBG2SeefCJYPPJ87ry5MnnyZN11fWLjE3XXM8vl0NJlSzXt5JNOlpNOPEnTwkyi+vDe/94TBKwzzzhThWHKLFu2TIrvXlw2/rRR4voX5h38PnbsWKlbt650vbmr4oJmjg03jnw849KS8QRDbE3/ctpf5J333nFVJY6khzWbLjEKF9Li2uLDOhmers5Mj2x0Yec+LwVow40MAUPAEDAEDIFsI1CkwXHNfs9GJfmxWcxGe5LxRJCosHcFFRDQLmaTTjv1NHWdc+VVV6pt5urvV6sAjNYrLtILS59fffWVNosINNh0Ll+xPLERx7UXzSVxV9mskw6hCd1nn310iTa87Brmk2o76cuatWsKND5zHE+0o33+2Udxue6G63R5Ptzugv7uwzodPNNtF1pgXgo6duoY+VKQLj/LbwgYAoaAIWAI+BDY4TSLvs7kJw3NE8LXtiRsBdFSOUIAYGk6ji67/DLdILLhxw2xQkKmgi4bT1K1M021ndnAM4pno6MbCUvz2H6iacWOc1uQD+t08Ey3rc8MfUZeevml2DmQLj/LbwgYAoaAIWAI+BAwzaIPnSyl1axZUw4/7HB57fXX8gg2JUqUUIfScdWuXr06LmmbXi9s7Tzk4EM0FCPOyadOm7pNsbDKDAFDwBAwBAyBnR0BExZ39hG2/hkChoAhYAgYAoaAIZAPBLK2GzrVJc18tN2KGgKGgCFgCBgChoAhYAhkGYGsCYv5cZ2Dq5O4T5bxKDD2RFVh1yofdujG7cTNT4XEYMaNSmEm7Buj3NUUhja7ORZsS/CaO+cYpvA19z1YJnwe5hH87soHr9m5IWAIGAKGgCFQGBAodBtciH37jzv/EYkN4dvuuPOOyLRUL+Ig+j/j/iPTp09PtUhG+YoVLaaucvausLfsUXYPmfT+JNmwYUNGvOIKEW0GB82Tp0xOZMlG/zLliQDUuVNnGT5iuLz57zcTbSwsJw/e/6DG8b6p6026Y7tatWpyT597ZMLECfL59M/lui7XaVPZMEPYxvHjx2vccPxQ4juyQ6fcMI5ssMFN0COPPqL9jepfsrnbp3cf9XfZo2ePqOJ2zRAwBAwBQ8AQ2G4IFDrN4uIli/Why4P3s88/U2DY4cr3V157Jd9AHdPoGEEoyDaxY7l7z+4ycuTIbFeVh382+pcpT4QsIo3gTLww0vCRw9X/IzGXEWzZUY3boeeef04Q9iF2HY8YNULKlysv11x9jRDOb/fd80bycd/xv8k8zWTujhs3TuNnu/jfhREva5MhYAgYAobArolAodMsEqVi/ITxOhpEqTji8CPk/cnvp6yVY9m3SZMmUu3AahrRA4Fg0qRJGqHk0DqHKl/c0zRv2lyjptzd9269RtQToo3gaxB7yyFDh2i8YZZ6O3boKFUPrCpFixQVYh0PfnqwOtbufmt3IZ5zyRIl9TpOtgm9R9xqBAcf0QbqLFGyhIb8w8Eyu3l99bGU3fbyttK4cWPZvCk35JyrA997mfSP8pli5uqOOvbq2UsqVKigSS+89IIQf9tRXH2kx+FyxBFHSPt27dVhev169RWzkaNGyoyZMxzbtI8fffSREHHl7LPOVn+VaLV5MQnuOv/o4490rBnXnt17qkP0uIrwbTn9i1yNdbpzlzlPiMmcVjmFVriO67ddNwQMAUPAENi5ESh0msX8wE2sZOI6r12zVh5+5GFdMiy3RzllOWXKFHnl1VzN5LSp0+TlV16Wcf8dp2kNGzZUYRK/eWiVZIuJWueOnVXbhPPrn376SYYPHy7PPvesVKxQUbre1FXLEfZv9arVMmfuHDn4oINl4qSJUqtWLQ2Z5+sH5S44/wIVVidOnCiVK1XW6DCU8dVXv359tX+cPWu2xq0Ohg7MtH+ZYubrH2mvv/m64l2pUiV1du7y++rz4bLXnnup7WPVqlVl9FujVcOXk5Pj2GZ8HDxksEaZOfecc9XpuZsTQYZoHQ+qeZBe4mUmG4RfRqKz1KlTRxBajQwBQ8AQMAQMgcKCwHbTLKJFKV2q9FY4IHgFbfC2yuC5QNQMHuxoeNBkEf4Nx9eQ0/h06dxF5i+cr4KdY0V8ZmjmlzM1/zfffCMnHH+CoMGi3AMPPqAP8SpVqsjadWt1uZC6IPz6oUWse2hdGTpsqGC/Vq5croCqGSL+uaXGAfcPUO0nwijaLTbFzJo9K7Y+tKybN28WyuFEHCGzevXqWkOm/aPtmWAW0a08l7AJhS94B8k3Rj5cHA/CMII5UWxOOukkdzn2mGyeoUVcsWKFIIR+MeOLPH4vYYrdYpkyZQTBnJcJ7Bnr1asXW19+EggFyZJ4Tusc6Xdvv/ywsrKGgCFgCBgChkCBIZA1YTFZuD80cWjRwkQ83kyFRQRENEPEYGbzx8qVK3VZ8ZNPPwlXk+c7dmhQndp1EtdnzpwpCDYIgb1u66VCJEvQpUuXVkHN7W4mTjUf7PMQ4Gi/EyQTzEInaB/Xrl2rH5KIRU2ZmjVqas64+ljyXrVqldZDxm8XfZsQFrVgzD9f/zLFLKaqpJd99SXDBebEx4ZWrFyhQhxh/twLgSaE/iWbZ4ReRFBkDM8++2yN3R00IeDFATvaL7/8Uje5MMYSEyDm97iEUJvivvLSMObtMbocfeCBBwp1GxkChoAhYAgYAtsbgawJi8n8LPbt3zcrfcf2b9SzowQtFUvSaJbCwuLuxfNuUEBjhMCBxu7HH3/M065bu92q2rzO13bWNHYGE5/YCYsuc1yIORUutmRCO+V2QyMEHHXkUSp4Uh9Ls5THLq5Tp06x9VGu8QmNVWNHfspFUTr9o3wmmFGOJebLL7ucU3li0BN5bP30Ysy/uPp8uGADCP32a66mOIb1Vpd982zvvfeWSy65RAVQNqX079tfbUIffOjBBJ/X3nhNbRYTF7acrN+wXndRu2tug8uG9fnf7Y6w2OLsFrrLnc1BRoaAIWAIGAKGwPZGYKeyWUSIa3NZG6lSuYouGf76y69SpGheH3kLFi5Q34QIa9jIQWxyQEPFJpHD6h+mNoe4RylVspRqJxEM69WtpxtgcJmSDn311Vea/cILLtTNOmXLltUNDCzRsvu2aZOm0qxpM5k3b56sW7/OW9/nn38upUqVUvvGFi1aqH1kuC3p9i9TzKiXHcII5XzKly8fbkrkd1997JqOwyWSWT4vXtn+SimxewkZNGiQbpgZM2aMHHfscTpOPtZLly5VQZ8XEeYLG3bYRf39D/5NTT6eLg2bSJaj8Z/pBGSXZkdDwBAwBAwBQ2B7ILDdNIupdJalwXQIgaV58+Zq/0c5lnexcQvSG2++ocJWt1u6qa1hpy6d5L3/vSeVK1eWM884M+HketmyZVJ89+IyduxYqVu3rvrRQ0u4Zs0adbfieOoy9Jal5zhavmK5vPjSi7ox5cTGJ8pjjz+mu70nT56sO2u5hpsdduFCvvpwJcTy+FlnnaV52RQR1mim279MMaMBTmuqjYn4hwAeJl99LDHH4QIftL/0uSAIu0NeGPD/iIANvfTKS3LyySfLpZdcKq+/8bpei5qD+Ok8/PDDVWtNJpaPBw0epAKjFtryL6qcS0t2ZKMLAmirlq1U65ssv6UbAoaAIWAIGALZRGCniw2NFrDC3hXUdpDl5XQIu0Fc57A0jFAYJDRia9auySMQBNMzOWeTBnabCJRhuztffSyfstFl3bp1aVUb17/8YOZrADaWve/qLSzrstnIUbL6fLg4HoXhyNhhXoBtbEEJsa5faLmJftOxU0d9mXDX7WgIGAKGgCFgCGxrBLImLG7rjlh9hQeBo486Ws4991ypWqWqaj47du64lS1o4Wlt4WwJdpCYLAR9PhbOllqrDAFDwBAwBHZ2BLK2DJ1sN/TODuyu3L8f1vygdqCEx8OhenjT0K6MTap9ZxnbBMVU0bJ8hoAhYAgYAtlEYLf9KlUpEP7LliwqED7GZMdHYO7cucLHyBAwBAwBQ8AQMAR2fAS23oFQQH1K5jqngKoxNoaAIWAIGAKGgCFgCBgCWUQga8Iiy9AFTcl4svEDNzTFixcv6KoLhB9uYeLIlxYuQ/+wZ0uHKLPffvtFlmPDCRtq2KxRkESdziF4mC/9xTUMY5YObWuecVj78KQ/ceXCfU1n3MNlw9/V3c6WcfRRuD6+h69R3l0PHn18g2muTPCaO2euEf8cF1CpUFTbKOfqiDsGeRN9h/ntdufHlXHXg2XdOWk+iksPXscVF7/B4DV48j18zdUVvh7M686Dx7hy7ro7RrUlXJfLm+51V66wHYlVj6syNw+2dfuY9/xG4ygO57j8O+p1IpXh7YHPX077y1Y+iwuiX8mwLog6djUeWbNZzIZmMRnPww87XDpc00E+/vhj3S0cNZg41cb1CeHowuRLC+dN9zv+H3HNc/U1V2+1uzWY9uPGH4UNIq1bt9awgkOeGZKIYU2d5517noaDQxjBvQ9h4ZYsWeJtDjfIq668SqPEsOv6y6++lGeeeUZdCyFcU7+LTPPFF1/I0OFDZfHixV6e3Nji2snNuFOHTnJ0o6PVVyW8cJT+8dSPleexxx4r11x1TUI4xb/hkKFDvPVtD55xWPvwpBNx5cIdDI477pPyS9dfd73i7Nz+hPlF1ffPu/6pcc3/NfBfal9KGcbnphtuylN86bKlwly85eZbdN7c1us2Tb9/wP0q9N/V+y6ZPXu2XoviiZCIk3z8WLKLHJdP7773rjzx5BN56gl+admipfz10r/KVddcJcGY3PgsJSxi3MOVdtxx5x3ar+uuvU4FNPgSNenxJx+Xbl27BatJnBP2EW8IcfVd3u7yyPtKsna2vaKt/sZOPeVUbTPtuO/++zS0J+3D0T7EdUJZ4s6J30z3bt1l//33l5u65o4F2DHG+FtlLB584E/n8a4TD/3rIfXkcMftd8i9992rtsMujSOY4d813BaiJ/mwDvc9ai4F6ymM54RLvebqa+Sjjz7a6h68LdpLVLHWrVpHRigrSDyz+RwrCJyKFS2mUdb2rrC37FF2D5n0/qREwIqC4A8PH9YFVceuxmen0iymMnjHNDpGqlWrFpnVlxZZIMWLaAG5OeNDMCwUhNMaNmioPh3RhODqhrcwR7iiueD8C/Rh8cqrr+hDsOM1HV1y7BFn36++9qr0699Pnhn6jBxy8CFy3nnnaX6isHz22Wfq3ubZ556V+vXrq7ATy+yPBF878R1J3OYJEybIgPsGaD94EPGgol83XHeDhi184KEH5OFHHtZwesnq29Y8fVj78PSVC/YxPO7BtEzPH33sUfn0s08ji0fVt9dee8lBNQ/S/EcffXSi3Jw5c4SINgglkEbcGTVKdiu2WyIsJfPmoIMO0ig+zNMSJUpo3jieJ514khBacdKkSXJP33tkxMgRSVcAVn+/WnlWrJAbjlO/bPm3T8V9VHikjXzwPwrhq5Tvr7z2isYOv63nbdouIuEwDxcuXKhujuLKOfdOUfXhpgp3VVHkayflcORP3ydOnKhx3xGUr+1yrf4e2PWOQ/eBDw9UYR2cLr34Uq2maLE/b8/4BEWwnD9/vjw08CFxaYRGdf3h+PX8rxNpUW0ldn1UW1yIy1T6HjWXouqya6khUNB4Zus5llpvkufiGdi9Z3cZOXJk8syWo9AgsFNpFh2qhMw7tM6hqnEbOWqkzJg5Q6OzcA1C89O8aXN9cNzd925vGtozIn2gWSHOMNoHHDDjHBtCAOp3Tz+9Qffv3199JmpC4N8Zp58hPBRee/21wNXc03AaPhd5cBD55eGBD+fJj2YBeurpp6RG9Rp6jkaApVzfzlki1PBx1OTkJlK/Xn39ykM7SDzYeKAkI187XeQR4nQTwg9BhDpLlyotTZvmLgM9+vijOj48KFOh/PCMGyMfTx/WPjx95YJjFB53lk06dugoVQ+sKkWLFBXikA9+erCGGkw2B3Ei7iIL8VIA5mEK10c6fMHmq1lfaXm0fzhap53jJ4xXrRbOx3nz37hxo+Z3fE84/gQdT/fdHeN4MgfgPWzEMD06Ac+Vizp+t+Q7vYwpAy94OMdHQ12hYgXVvNFGiHFEa8TOexdSE8f1aMsffvThxNx3mm2ExqhyxGZHSxhVn09772sn5dDU0nfGc+NPGwVzmosvulhq1qyp7UBrihDNhxCeRx55pAq7mrjlH2Nw4w03yqJFi4T7FWOBUA5xH3I46IUt/9COxlFcW9zSbCp9j5pLLCk2adJEqh1YTTWkw0cO1/7QDvrUtm1bjTjFC8fsObPl3gH3quN67sWnND9FSpQsofcDXkzc+LBky8vxtE+maQADTBcIcEDgAcowVvSVFSdWJlgVSYW639pdatSooff/wUMGJ1aZ4tri+21SX1w7R781WsOHNm7cWDZvin7RoHwUnlyPozis8c0a94yDV1w7fXj6+g6OvByXLFFS71cH7H+AhqzlZca9fMT1wXc9k3Hg3tX28raSDGtfvZbmR6CoPznz1GT2hZlwTpUnWg9+qNz4cnJytKopU6YI2jho2tRp8vIrLyeWd31p3JT5YO8CTx5A7du1Vz7u34EHHqghBsuU3drmD80gNwPiUxNRJkhRaTwQeGhERUehPzgL3/jjRhVgHa+wNsBdDx6x28ppnSO3dL1FH1IffvRhMFnPsVmsUqVKpLARzuxr54cffqgPgqvaX6U/YN50P5/+uWpVWVaDbr7xZhkyeIjc/rfb9WEY5h/+nl+eUWPk45kM6zg8k5WjX1HjztIskWCGDx8uaHgZ0643dVUYks3BadOm6dysWrVqpI1oVH0wRrDj5Wf06Nx5TVSbVEij7Jx4oi71cB6kOJ4zZsxQ26Tbe92udmP0Nxk5s5OK+1SUU089VV84ateqrZrFJd/5TS8I+YkGD615qpRpfcnKce9Yvny5Coq0hRcBKGyvi0DM748HLeYoEPc8lv4REPvc0ychDGviln/YfLFczSdsOuDyBI9xbfn1t181WzKso+YSwiAmBmvXrNWVAswLyu1RTvlhLtOjew+pe2hdva8NGz5M76e8PBNuFWEQp/ZoXStXqqzRtVx7uddyL8d8B40591/4NWzYUF/wCbrw3PPPbXljF+ncsbO++LiyvqO7lyN8ogiAfG3x/TYpG9dOVmkYn9mzZuv9n3tGmKLwDOcJfvdh7XuOwSOunT48fX0Hs9WrVsucuXNUkTJx0kR9ITiy4ZHBJqd1nuk4pIJ1Wg2xzFshsFNqFgnxh+0PkUBYDoWmf5Fro9ilcxeZv3C+MLEd+dJcHjRwH3zwgcb/bXd5O73hubcnYvnyZhMVUYU3YJYZ0PiEyZcWzsv3smXK6gPnkosv0VCEjz/xuNpoprIxhZsSS+EIM9Ann3yiR/cPDROarXLlyumStLueyXHturWqnULryQfCjhRyQgL2lmP/M1bbhFB5/Y3Xa3rcv/zyjBojH89kWMfhmawc/Ysa91mzZ+kSZZ06dVRgoG3Vq1XXZV+HSdwcRDPIB3vdKIqqjw0OCIc82Jn/vJwg6Lml5yg+7hqaRmyCoPenvJ849/EkpCaaB8Jx0kc0bC+8+IIKqo5v+EgeBAIekGABOU16MmGRsJJordOJrJNpfcnK1TqkVp7ITy5a0+7Fd9c+IbyMGDYiYeh/3wP35QnjiWDFUj8aVOwaw5SOH1PmZ1Cb79oiv0tKWEfNJdrG/QOBdtHiRRqtyfFlNYYXRF7On3/heW06Kw5Q82bN9Tjg/gHaL16Wzj7rbH2Z4twR8x5B0RFaVmjmlzM18hWadDTdrJa4e7nLG3VE68lLzqpVq9R+E9MY4ttDUW3x/TaD8yvczsvb5Nq4wpPfF8Jw9erVtR73LwpPlxZ19GHt+h71jAvyCrczGZ4PPPiA/mZ5kQnfl3jO8hzkZWDosKG6KsUzJFPKdBxYWcBMxId1pm2ycrkIZE1Y5I3YvXEXFNip8iTGMLRi5QrdRMESi7t5ZdqWb7/9VosuX7Zcj6jfMZRGe/HkoCcj2fLDbnF2C91Q4oz/XUZfmssTPrLExhvUfqftJ4889oj8+kuuNiBsBxkux/elS5fKtddfq8Lirbfcqobe/NCdBpM3bJafMZxnA0x+CKGUBwQPPZbTO3XsJFe0u0J483UPNpabWNqnfm6qaFXc8lNU3fnhGTdGPp7JsI7DM1m5uHHnZtvrtl46T9E8oQUAG15CHMXNQZcedYyrj5syaSzHod2BEBafHvJ0HkEliieCGuP686afZdXKVYksPp4IEiz5jRg1QjXJF55/oVxy0SXy7rvvqpCRYBI6YRmXdqFR+t/4/wlaajBJdm9BqMKOkj4GH+gh9lt9zbQ+X7n1G9ZL+XLlE3VhZgA5G0iEN+wtGzVqpL/BPcv/qYFiPvW/t79gf9mlUxe19QrGHeeFiw17qZKvLb4+wD9uLiEgIgAi/PESgaaQ/rCagqYSmjVrlh6D/xD8GScnALPyQh2YAyAIOoJPkNwLb53adRKXWY6nbCrkfke8sELcy31tIU/cbzM4t8LthC8CqbvHfrvo2zzCYhye1BdHPqzjyoSvh9vpwzPZfYm5yId7LP3ctHlTyuMQbhffMx2HZFhH1WXX0kMg966VXpmUcie7mafEJJQpVZ6//fpbqGTer+6NPu/V3G9xabi8gJyt0OJFf+4WbtWyle7O5AEfJGL7kj9Kq+hLC/IInq9anftgRvvD5hH3lsoNCWLJpsetPfQTXuJyfLiR86aMthNND3TZXy9TDR9v/mPeHuOy6jEVnnkKbPlyyCGH6IMQ2z60rSwFIrAffMjBCVuWX379RYu5oxOK4urLD08qihojH89kWGvjt/wL45msXNy4t2jRQjHr0KmD/O32v6mtIpg4XKjPNwdde8LHuPoQwHjQbfp5k2rtvlv6nS6LIjymQnfedaduVAnmTYUnghEvWQg5CICMgY8QTHmY8WDHbMDZ4zk7wbiyi5csVm0XGod0KNP6fOWwAUUriDYawiQCcjas2Cxid0gM9QULFwgrB261AEGK3yu217wss1EsP+Rri68P1Bk3l0jj5e/qDlervTX2h+efdz6XVVvJMWpTIRpBVhrcfRMNMkKHE+YoB2F6EyS0zbz8o0ViF777hIWgYJngefh3RDt8bUnltwn/cDvhiYYbrStE/4LkwzOYL3weh3UwX9xzjDzhdvrwTLXvjFu65IRoN9cpn+k4JMM63bZZ/q0RSO1VbOtySa+kqgVMyiiQoSB4cjPG0BctFvZaQTtCXxpGt9jhYH+IgMCNFeJGwAYDCLsaditCCEetWrXSh37YbsqXRlk0DPvtmyucYqPFjxkjb5bBzzrzLPnt99/U3cYpp5wiaFGdsIj2wqnxuUm5h9G555yrN9f5C+YLdm0s2fDwRUCAH9pP8qKJZdkeYZulRiiOJ2lx7URjyUOahx4a1WbNmunSF1FdeAsFQ7SJ7OQ87ZTTFM+vv/4alrH15Ydn3Bj5eP644cdYrH14+sbIN+7MKQTDenXrqVbWbVhRUP74FzUH0U64BzH9RKPLLmXmBIJG1BykngYNG+jGL3YmQywxDeg/QDVblGVThRNqmBMrlq/4oxXRB/rm44kdE4Ie2uWSpUrqjlyWb924R3OVxO+MZXannechs2x5rlYortx7772nG9lwGYVQihaUXcCsAjjzkaiy7nedbn2+cgi5/ObQriMoY4PHeM/7el6eJtAv7FV54WM5NkgI19y3sIHDpMO9lATzhM/rHVovIYiRNm/ePBW449pSq3YtZRHVd9/cZRn39NNPV97cq1jxKFI0V0DiN888pM/89rnHsvSK5vHTTz8Vfku48mFzCm68aCPeBnzESygvJmzoeOedd3R82bgzZMiQhF2or/x555ynJkrc+7jvoa3ztSWV32ZUfbzUs3rR5q9tZPUPq1Vr5oQqH55RvNw1H9Yuj+855vIEjz48M+17kH/cOasTEK6wUH7we8h0HHxYx9Vv19NDIGvCYqpawHSamwpP3jiDSwNh/uz84sfb7ZZu+tDo1KVTIosvDS0cy6nc0MO+4bgW1ADBkJsXb5L4PQuTL428+ALD/xSkS1NbhMc+d/dRexx86CHc4bqGG12wLbQjirCJYokIYYI8LAm99MpLel79DxsaNJEsczniLZ0l4zie5Itr54TxE9SGhYczOxZZ3mJ5Gy0jy0X/Hv1vfXiwpMiNDVsXR3H15YcnvOEbHiMfz1nrZkkc1j480QLFlfON+9ixY3W3b9ebu2pbefsPa4ej5iAa4t539U5oLxhnPthofjHji8g5yJhjzxt8iWHDEg8Gdhyj2QnOBTZ0MdeefCra3AJ8mes+ngjR7BRnVzzEuD/99NN5/CdqQuif+80jKCJEMJfcPHZZEULChLaub9++6qLG2WS55U6XN6pcKvW58sGjrxybyd559x0Vhug/v4MH//VgYrk/2A4elgsWLFDhi40RLg0h47HHH5P+/fqrkMRmF8ilB9vizFPYER4kvDGwISSuLb4+sLwcdz/jxRRbVCfg8gKO3TiE+QE2b9jRsQkGYi5BvOjqZqnGJ+puZ8xpECIdsaTJ7zZ8T8D+tXLlynoPQYCGePktvnvxlIRFNNWdO3VWvs6EyNeWZL/NuHay45/7nRsHnktOWPTdC1z/o44+rF3+uOdYXDt9eCbt+5bfHnwzITxqsLudFyBcozG/0bDHzQlfW3xYZ9I2K7M1AkVOP7dN+vrjrflIODZ0QWgBw9Vkg2e4jvB3BB7s+a686kpdMsGnWtQNOlwOx8QIfDjUdTcIl8eX5vL4jixnYUSMZjTMO64c9lssifOgwg5qWxAaHW5uCCFhoj1oLblhpEPbmmcc1snwjCqXyrijOVizdk2eTQjZmIPpYF5QeRHWEYCx1UMDBbEkSJ+jaPMvm9U2MiotnWvsQmVZDm1cWPBIlU9BtJMNQOXKl9Od0an+blNtX7r50m1LsrnL2FbYu4IKDm5sw21i7HGds3LVyjw25LxksBzNvSAd23K06mireanl5SrVMeJlg5WbqHu5ry1Rv81wH6O+uznPvddRHJ6p9CEVrF096RzDeAbLptP3VPoQ5B11nuk4RGEdxd+upY9A1oTF9JtSOEu4B/UV7a9I6a3V9QJhjgdTlGDmS3Pl7bjzIZDpuGdjDhYWdNlcw/J6HF12+WXelYK4cgV9fUdpZ0H32/HLdO668tviuCONURyeO1If4sZ0Z+hDXN925etZExazoQXMBs9kg4/jXMIIsoSzvbUBydpq6TsnAjvzHERDGzRwD4+gW7IMX9/W33eUdm5rXApTfTvDGFkfCtOMsrYEESjS4LhmBbIMHWRq54aAIWAIGAKGgCFgCBgCOwcCWXOds3PAY70wBAwBQ8AQMAQMAUNg10bAhMVde/yt94aAIWAIGAKGgCFgCHgRMGHRC48lGgKGgCFgCBgChoAhsGsjYMLirj3+1ntDwBAwBAwBQ8AQMAS8CJiw6IXHEg0BQ8AQMAQMAUPAENi1ETBhcdcef+u9IWAIGAKGgCFgCBgCXgRMWPTCY4mGgCFgCBgChoAhYAjs2giYsLhrj7/13hAwBAwBQ8AQMAQMAS8CJix64bFEQ8AQMAQMAUPAEDAEdm0ETFjctcffem8IGAKGgCFgCBgChoAXARMWvfBYoiFgCBgChoAhYAgYArs2AiYs7trjb703BAwBQ8AQMAQMAUPAi4AJi154LNEQMAQMAUPAEDAEDIFdGwETFnft8bfeGwKGgCFgCBgChoAh4EXAhEUvPJZoCBgChoAhYAgYAobAro2ACYu79vhb7w0BQ8AQMAQMAUPAEPAiYMKiFx5LNAQMAUPAEDAEDAFDYNdG4P8B+ej2b22ESioAAAAASUVORK5CYII=;" vertex="1" parent="1">
          <mxGeometry x="600" y="-10.5" width="480.8" height="113" as="geometry" />
        </mxCell>
        <mxCell id="qu9SdGnDJm_bEYJQGnke-24" value="StarRocks" style="text;html=1;align=center;verticalAlign=middle;whiteSpace=wrap;rounded=0;" vertex="1" parent="1">
          <mxGeometry x="837" y="172" width="60" height="30" as="geometry" />
        </mxCell>
        <mxCell id="qu9SdGnDJm_bEYJQGnke-25" value="&lt;div style=&quot;background-color:#1e1f22;color:#bcbec4&quot;&gt;&lt;pre style=&quot;font-family:&#39;JetBrains Mono&#39;,monospace;font-size:9.8pt;&quot;&gt;&lt;span style=&quot;color:#c77dbb;&quot;&gt;status &lt;/span&gt;&lt;span style=&quot;color:#cf8e6d;&quot;&gt;int&lt;/span&gt;(&lt;span style=&quot;color:#2aacb8;&quot;&gt;11&lt;/span&gt;) &lt;span style=&quot;color:#cf8e6d;&quot;&gt;NULL DEFAULT &lt;/span&gt;&lt;span style=&quot;color:#c77dbb;&quot;&gt;&quot;0&quot; &lt;/span&gt;&lt;span style=&quot;color:#cf8e6d;&quot;&gt;COMMENT &lt;/span&gt;&quot;&quot;,&lt;br&gt;&lt;span style=&quot;color:#c77dbb;&quot;&gt;version &lt;/span&gt;&lt;span style=&quot;color:#cf8e6d;&quot;&gt;int&lt;/span&gt;(&lt;span style=&quot;color:#2aacb8;&quot;&gt;11&lt;/span&gt;) &lt;span style=&quot;color:#cf8e6d;&quot;&gt;not null default &lt;/span&gt;&lt;span style=&quot;color:#c77dbb;&quot;&gt;&quot;0&quot;&lt;/span&gt;&lt;/pre&gt;&lt;/div&gt;" style="text;html=1;align=left;verticalAlign=middle;whiteSpace=wrap;rounded=0;" vertex="1" parent="1">
          <mxGeometry x="930" y="172" width="60" height="30" as="geometry" />
        </mxCell>
      </root>
    </mxGraphModel>
  </diagram>
</mxfile>
